M48
; DRILL file {KiCad 9.0.7} date 2026-04-08T16:35:41+0300
; FORMAT={-:-/ absolute / metric / decimal}
; #@! TF.CreationDate,2026-04-08T16:35:41+03:00
; #@! TF.GenerationSoftware,Kicad,Pcbnew,9.0.7
; #@! TF.FileFunction,MixedPlating,1,2
FMAT,2
METRIC
; #@! TA.AperFunction,Plated,PTH,ViaDrill
T1C0.300
; #@! TA.AperFunction,Plated,PTH,ComponentDrill
T2C0.600
; #@! TA.AperFunction,Plated,PTH,ComponentDrill
T3C1.000
; #@! TA.AperFunction,NonPlated,NPTH,ComponentDrill
T4C0.650
%
G90
G05
T1
X94.475Y-104.7
X100.312Y-107.637
X100.875Y-118.8
X100.975Y-115.4
X101.875Y-111.3
X104.975Y-118.7
X107.075Y-109.9
X108.775Y-114.9
X109.275Y-108.3
X110.675Y-102.6
X111.775Y-115.3
X111.975Y-107.5
X113.075Y-120.0
X113.175Y-109.9
X114.475Y-107.1
X114.575Y-117.5
X116.375Y-112.3
X117.275Y-113.5
X117.275Y-118.1
X118.475Y-108.3
X123.575Y-110.9
X125.075Y-110.7
X144.2Y-110.8
X151.7Y-114.2
X151.8Y-117.4
X160.0Y-110.0
X161.5Y-116.4
X166.8Y-116.5
X183.1Y-116.7
X194.1Y-114.1
X194.5Y-116.3
X196.1Y-119.9
T3
X110.475Y-124.66
X110.475Y-127.2
X118.735Y-120.6
X121.275Y-120.6
T4
X193.53Y-116.85
X199.31Y-116.85
T2
G00X192.1Y-113.5
M15
G01X192.1Y-112.9
M16
G05
G00X192.1Y-117.93
M15
G01X192.1Y-116.83
M16
G05
G00X200.74Y-113.5
M15
G01X200.74Y-112.9
M16
G05
G00X200.74Y-117.93
M15
G01X200.74Y-116.83
M16
G05
M30
