%TF.GenerationSoftware,KiCad,Pcbnew,9.0.7*%
%TF.CreationDate,2026-04-08T16:35:33+03:00*%
%TF.ProjectId,Bio-Data-Bridge,42696f2d-4461-4746-912d-427269646765,rev?*%
%TF.SameCoordinates,Original*%
%TF.FileFunction,Legend,Top*%
%TF.FilePolarity,Positive*%
%FSLAX46Y46*%
G04 Gerber Fmt 4.6, Leading zero omitted, Abs format (unit mm)*
G04 Created by KiCad (PCBNEW 9.0.7) date 2026-04-08 16:35:33*
%MOMM*%
%LPD*%
G01*
G04 APERTURE LIST*
%ADD10C,0.150000*%
%ADD11C,0.120000*%
G04 APERTURE END LIST*
D10*
X170833333Y-121654819D02*
X170500000Y-121178628D01*
X170261905Y-121654819D02*
X170261905Y-120654819D01*
X170261905Y-120654819D02*
X170642857Y-120654819D01*
X170642857Y-120654819D02*
X170738095Y-120702438D01*
X170738095Y-120702438D02*
X170785714Y-120750057D01*
X170785714Y-120750057D02*
X170833333Y-120845295D01*
X170833333Y-120845295D02*
X170833333Y-120988152D01*
X170833333Y-120988152D02*
X170785714Y-121083390D01*
X170785714Y-121083390D02*
X170738095Y-121131009D01*
X170738095Y-121131009D02*
X170642857Y-121178628D01*
X170642857Y-121178628D02*
X170261905Y-121178628D01*
X171309524Y-121654819D02*
X171500000Y-121654819D01*
X171500000Y-121654819D02*
X171595238Y-121607200D01*
X171595238Y-121607200D02*
X171642857Y-121559580D01*
X171642857Y-121559580D02*
X171738095Y-121416723D01*
X171738095Y-121416723D02*
X171785714Y-121226247D01*
X171785714Y-121226247D02*
X171785714Y-120845295D01*
X171785714Y-120845295D02*
X171738095Y-120750057D01*
X171738095Y-120750057D02*
X171690476Y-120702438D01*
X171690476Y-120702438D02*
X171595238Y-120654819D01*
X171595238Y-120654819D02*
X171404762Y-120654819D01*
X171404762Y-120654819D02*
X171309524Y-120702438D01*
X171309524Y-120702438D02*
X171261905Y-120750057D01*
X171261905Y-120750057D02*
X171214286Y-120845295D01*
X171214286Y-120845295D02*
X171214286Y-121083390D01*
X171214286Y-121083390D02*
X171261905Y-121178628D01*
X171261905Y-121178628D02*
X171309524Y-121226247D01*
X171309524Y-121226247D02*
X171404762Y-121273866D01*
X171404762Y-121273866D02*
X171595238Y-121273866D01*
X171595238Y-121273866D02*
X171690476Y-121226247D01*
X171690476Y-121226247D02*
X171738095Y-121178628D01*
X171738095Y-121178628D02*
X171785714Y-121083390D01*
X179433333Y-130059580D02*
X179385714Y-130107200D01*
X179385714Y-130107200D02*
X179242857Y-130154819D01*
X179242857Y-130154819D02*
X179147619Y-130154819D01*
X179147619Y-130154819D02*
X179004762Y-130107200D01*
X179004762Y-130107200D02*
X178909524Y-130011961D01*
X178909524Y-130011961D02*
X178861905Y-129916723D01*
X178861905Y-129916723D02*
X178814286Y-129726247D01*
X178814286Y-129726247D02*
X178814286Y-129583390D01*
X178814286Y-129583390D02*
X178861905Y-129392914D01*
X178861905Y-129392914D02*
X178909524Y-129297676D01*
X178909524Y-129297676D02*
X179004762Y-129202438D01*
X179004762Y-129202438D02*
X179147619Y-129154819D01*
X179147619Y-129154819D02*
X179242857Y-129154819D01*
X179242857Y-129154819D02*
X179385714Y-129202438D01*
X179385714Y-129202438D02*
X179433333Y-129250057D01*
X180004762Y-129583390D02*
X179909524Y-129535771D01*
X179909524Y-129535771D02*
X179861905Y-129488152D01*
X179861905Y-129488152D02*
X179814286Y-129392914D01*
X179814286Y-129392914D02*
X179814286Y-129345295D01*
X179814286Y-129345295D02*
X179861905Y-129250057D01*
X179861905Y-129250057D02*
X179909524Y-129202438D01*
X179909524Y-129202438D02*
X180004762Y-129154819D01*
X180004762Y-129154819D02*
X180195238Y-129154819D01*
X180195238Y-129154819D02*
X180290476Y-129202438D01*
X180290476Y-129202438D02*
X180338095Y-129250057D01*
X180338095Y-129250057D02*
X180385714Y-129345295D01*
X180385714Y-129345295D02*
X180385714Y-129392914D01*
X180385714Y-129392914D02*
X180338095Y-129488152D01*
X180338095Y-129488152D02*
X180290476Y-129535771D01*
X180290476Y-129535771D02*
X180195238Y-129583390D01*
X180195238Y-129583390D02*
X180004762Y-129583390D01*
X180004762Y-129583390D02*
X179909524Y-129631009D01*
X179909524Y-129631009D02*
X179861905Y-129678628D01*
X179861905Y-129678628D02*
X179814286Y-129773866D01*
X179814286Y-129773866D02*
X179814286Y-129964342D01*
X179814286Y-129964342D02*
X179861905Y-130059580D01*
X179861905Y-130059580D02*
X179909524Y-130107200D01*
X179909524Y-130107200D02*
X180004762Y-130154819D01*
X180004762Y-130154819D02*
X180195238Y-130154819D01*
X180195238Y-130154819D02*
X180290476Y-130107200D01*
X180290476Y-130107200D02*
X180338095Y-130059580D01*
X180338095Y-130059580D02*
X180385714Y-129964342D01*
X180385714Y-129964342D02*
X180385714Y-129773866D01*
X180385714Y-129773866D02*
X180338095Y-129678628D01*
X180338095Y-129678628D02*
X180290476Y-129631009D01*
X180290476Y-129631009D02*
X180195238Y-129583390D01*
X195666666Y-113354819D02*
X195666666Y-114069104D01*
X195666666Y-114069104D02*
X195619047Y-114211961D01*
X195619047Y-114211961D02*
X195523809Y-114307200D01*
X195523809Y-114307200D02*
X195380952Y-114354819D01*
X195380952Y-114354819D02*
X195285714Y-114354819D01*
X196095238Y-113450057D02*
X196142857Y-113402438D01*
X196142857Y-113402438D02*
X196238095Y-113354819D01*
X196238095Y-113354819D02*
X196476190Y-113354819D01*
X196476190Y-113354819D02*
X196571428Y-113402438D01*
X196571428Y-113402438D02*
X196619047Y-113450057D01*
X196619047Y-113450057D02*
X196666666Y-113545295D01*
X196666666Y-113545295D02*
X196666666Y-113640533D01*
X196666666Y-113640533D02*
X196619047Y-113783390D01*
X196619047Y-113783390D02*
X196047619Y-114354819D01*
X196047619Y-114354819D02*
X196666666Y-114354819D01*
X198633333Y-125554819D02*
X198300000Y-125078628D01*
X198061905Y-125554819D02*
X198061905Y-124554819D01*
X198061905Y-124554819D02*
X198442857Y-124554819D01*
X198442857Y-124554819D02*
X198538095Y-124602438D01*
X198538095Y-124602438D02*
X198585714Y-124650057D01*
X198585714Y-124650057D02*
X198633333Y-124745295D01*
X198633333Y-124745295D02*
X198633333Y-124888152D01*
X198633333Y-124888152D02*
X198585714Y-124983390D01*
X198585714Y-124983390D02*
X198538095Y-125031009D01*
X198538095Y-125031009D02*
X198442857Y-125078628D01*
X198442857Y-125078628D02*
X198061905Y-125078628D01*
X199490476Y-124888152D02*
X199490476Y-125554819D01*
X199252381Y-124507200D02*
X199014286Y-125221485D01*
X199014286Y-125221485D02*
X199633333Y-125221485D01*
X96133333Y-101459580D02*
X96085714Y-101507200D01*
X96085714Y-101507200D02*
X95942857Y-101554819D01*
X95942857Y-101554819D02*
X95847619Y-101554819D01*
X95847619Y-101554819D02*
X95704762Y-101507200D01*
X95704762Y-101507200D02*
X95609524Y-101411961D01*
X95609524Y-101411961D02*
X95561905Y-101316723D01*
X95561905Y-101316723D02*
X95514286Y-101126247D01*
X95514286Y-101126247D02*
X95514286Y-100983390D01*
X95514286Y-100983390D02*
X95561905Y-100792914D01*
X95561905Y-100792914D02*
X95609524Y-100697676D01*
X95609524Y-100697676D02*
X95704762Y-100602438D01*
X95704762Y-100602438D02*
X95847619Y-100554819D01*
X95847619Y-100554819D02*
X95942857Y-100554819D01*
X95942857Y-100554819D02*
X96085714Y-100602438D01*
X96085714Y-100602438D02*
X96133333Y-100650057D01*
X96514286Y-100650057D02*
X96561905Y-100602438D01*
X96561905Y-100602438D02*
X96657143Y-100554819D01*
X96657143Y-100554819D02*
X96895238Y-100554819D01*
X96895238Y-100554819D02*
X96990476Y-100602438D01*
X96990476Y-100602438D02*
X97038095Y-100650057D01*
X97038095Y-100650057D02*
X97085714Y-100745295D01*
X97085714Y-100745295D02*
X97085714Y-100840533D01*
X97085714Y-100840533D02*
X97038095Y-100983390D01*
X97038095Y-100983390D02*
X96466667Y-101554819D01*
X96466667Y-101554819D02*
X97085714Y-101554819D01*
X119441666Y-122854819D02*
X119441666Y-123569104D01*
X119441666Y-123569104D02*
X119394047Y-123711961D01*
X119394047Y-123711961D02*
X119298809Y-123807200D01*
X119298809Y-123807200D02*
X119155952Y-123854819D01*
X119155952Y-123854819D02*
X119060714Y-123854819D01*
X120441666Y-123854819D02*
X119870238Y-123854819D01*
X120155952Y-123854819D02*
X120155952Y-122854819D01*
X120155952Y-122854819D02*
X120060714Y-122997676D01*
X120060714Y-122997676D02*
X119965476Y-123092914D01*
X119965476Y-123092914D02*
X119870238Y-123140533D01*
X95954819Y-127861904D02*
X96764342Y-127861904D01*
X96764342Y-127861904D02*
X96859580Y-127814285D01*
X96859580Y-127814285D02*
X96907200Y-127766666D01*
X96907200Y-127766666D02*
X96954819Y-127671428D01*
X96954819Y-127671428D02*
X96954819Y-127480952D01*
X96954819Y-127480952D02*
X96907200Y-127385714D01*
X96907200Y-127385714D02*
X96859580Y-127338095D01*
X96859580Y-127338095D02*
X96764342Y-127290476D01*
X96764342Y-127290476D02*
X95954819Y-127290476D01*
X95954819Y-126338095D02*
X95954819Y-126814285D01*
X95954819Y-126814285D02*
X96431009Y-126861904D01*
X96431009Y-126861904D02*
X96383390Y-126814285D01*
X96383390Y-126814285D02*
X96335771Y-126719047D01*
X96335771Y-126719047D02*
X96335771Y-126480952D01*
X96335771Y-126480952D02*
X96383390Y-126385714D01*
X96383390Y-126385714D02*
X96431009Y-126338095D01*
X96431009Y-126338095D02*
X96526247Y-126290476D01*
X96526247Y-126290476D02*
X96764342Y-126290476D01*
X96764342Y-126290476D02*
X96859580Y-126338095D01*
X96859580Y-126338095D02*
X96907200Y-126385714D01*
X96907200Y-126385714D02*
X96954819Y-126480952D01*
X96954819Y-126480952D02*
X96954819Y-126719047D01*
X96954819Y-126719047D02*
X96907200Y-126814285D01*
X96907200Y-126814285D02*
X96859580Y-126861904D01*
X112514580Y-109016666D02*
X112562200Y-109064285D01*
X112562200Y-109064285D02*
X112609819Y-109207142D01*
X112609819Y-109207142D02*
X112609819Y-109302380D01*
X112609819Y-109302380D02*
X112562200Y-109445237D01*
X112562200Y-109445237D02*
X112466961Y-109540475D01*
X112466961Y-109540475D02*
X112371723Y-109588094D01*
X112371723Y-109588094D02*
X112181247Y-109635713D01*
X112181247Y-109635713D02*
X112038390Y-109635713D01*
X112038390Y-109635713D02*
X111847914Y-109588094D01*
X111847914Y-109588094D02*
X111752676Y-109540475D01*
X111752676Y-109540475D02*
X111657438Y-109445237D01*
X111657438Y-109445237D02*
X111609819Y-109302380D01*
X111609819Y-109302380D02*
X111609819Y-109207142D01*
X111609819Y-109207142D02*
X111657438Y-109064285D01*
X111657438Y-109064285D02*
X111705057Y-109016666D01*
X111943152Y-108159523D02*
X112609819Y-108159523D01*
X111562200Y-108397618D02*
X112276485Y-108635713D01*
X112276485Y-108635713D02*
X112276485Y-108016666D01*
X146738095Y-100654819D02*
X146738095Y-101464342D01*
X146738095Y-101464342D02*
X146785714Y-101559580D01*
X146785714Y-101559580D02*
X146833333Y-101607200D01*
X146833333Y-101607200D02*
X146928571Y-101654819D01*
X146928571Y-101654819D02*
X147119047Y-101654819D01*
X147119047Y-101654819D02*
X147214285Y-101607200D01*
X147214285Y-101607200D02*
X147261904Y-101559580D01*
X147261904Y-101559580D02*
X147309523Y-101464342D01*
X147309523Y-101464342D02*
X147309523Y-100654819D01*
X147690476Y-100654819D02*
X148309523Y-100654819D01*
X148309523Y-100654819D02*
X147976190Y-101035771D01*
X147976190Y-101035771D02*
X148119047Y-101035771D01*
X148119047Y-101035771D02*
X148214285Y-101083390D01*
X148214285Y-101083390D02*
X148261904Y-101131009D01*
X148261904Y-101131009D02*
X148309523Y-101226247D01*
X148309523Y-101226247D02*
X148309523Y-101464342D01*
X148309523Y-101464342D02*
X148261904Y-101559580D01*
X148261904Y-101559580D02*
X148214285Y-101607200D01*
X148214285Y-101607200D02*
X148119047Y-101654819D01*
X148119047Y-101654819D02*
X147833333Y-101654819D01*
X147833333Y-101654819D02*
X147738095Y-101607200D01*
X147738095Y-101607200D02*
X147690476Y-101559580D01*
X100113095Y-119354819D02*
X100113095Y-120164342D01*
X100113095Y-120164342D02*
X100160714Y-120259580D01*
X100160714Y-120259580D02*
X100208333Y-120307200D01*
X100208333Y-120307200D02*
X100303571Y-120354819D01*
X100303571Y-120354819D02*
X100494047Y-120354819D01*
X100494047Y-120354819D02*
X100589285Y-120307200D01*
X100589285Y-120307200D02*
X100636904Y-120259580D01*
X100636904Y-120259580D02*
X100684523Y-120164342D01*
X100684523Y-120164342D02*
X100684523Y-119354819D01*
X101684523Y-120354819D02*
X101113095Y-120354819D01*
X101398809Y-120354819D02*
X101398809Y-119354819D01*
X101398809Y-119354819D02*
X101303571Y-119497676D01*
X101303571Y-119497676D02*
X101208333Y-119592914D01*
X101208333Y-119592914D02*
X101113095Y-119640533D01*
X108170833Y-101379580D02*
X108123214Y-101427200D01*
X108123214Y-101427200D02*
X107980357Y-101474819D01*
X107980357Y-101474819D02*
X107885119Y-101474819D01*
X107885119Y-101474819D02*
X107742262Y-101427200D01*
X107742262Y-101427200D02*
X107647024Y-101331961D01*
X107647024Y-101331961D02*
X107599405Y-101236723D01*
X107599405Y-101236723D02*
X107551786Y-101046247D01*
X107551786Y-101046247D02*
X107551786Y-100903390D01*
X107551786Y-100903390D02*
X107599405Y-100712914D01*
X107599405Y-100712914D02*
X107647024Y-100617676D01*
X107647024Y-100617676D02*
X107742262Y-100522438D01*
X107742262Y-100522438D02*
X107885119Y-100474819D01*
X107885119Y-100474819D02*
X107980357Y-100474819D01*
X107980357Y-100474819D02*
X108123214Y-100522438D01*
X108123214Y-100522438D02*
X108170833Y-100570057D01*
X109123214Y-101474819D02*
X108551786Y-101474819D01*
X108837500Y-101474819D02*
X108837500Y-100474819D01*
X108837500Y-100474819D02*
X108742262Y-100617676D01*
X108742262Y-100617676D02*
X108647024Y-100712914D01*
X108647024Y-100712914D02*
X108551786Y-100760533D01*
X188333333Y-130359580D02*
X188285714Y-130407200D01*
X188285714Y-130407200D02*
X188142857Y-130454819D01*
X188142857Y-130454819D02*
X188047619Y-130454819D01*
X188047619Y-130454819D02*
X187904762Y-130407200D01*
X187904762Y-130407200D02*
X187809524Y-130311961D01*
X187809524Y-130311961D02*
X187761905Y-130216723D01*
X187761905Y-130216723D02*
X187714286Y-130026247D01*
X187714286Y-130026247D02*
X187714286Y-129883390D01*
X187714286Y-129883390D02*
X187761905Y-129692914D01*
X187761905Y-129692914D02*
X187809524Y-129597676D01*
X187809524Y-129597676D02*
X187904762Y-129502438D01*
X187904762Y-129502438D02*
X188047619Y-129454819D01*
X188047619Y-129454819D02*
X188142857Y-129454819D01*
X188142857Y-129454819D02*
X188285714Y-129502438D01*
X188285714Y-129502438D02*
X188333333Y-129550057D01*
X188809524Y-130454819D02*
X189000000Y-130454819D01*
X189000000Y-130454819D02*
X189095238Y-130407200D01*
X189095238Y-130407200D02*
X189142857Y-130359580D01*
X189142857Y-130359580D02*
X189238095Y-130216723D01*
X189238095Y-130216723D02*
X189285714Y-130026247D01*
X189285714Y-130026247D02*
X189285714Y-129645295D01*
X189285714Y-129645295D02*
X189238095Y-129550057D01*
X189238095Y-129550057D02*
X189190476Y-129502438D01*
X189190476Y-129502438D02*
X189095238Y-129454819D01*
X189095238Y-129454819D02*
X188904762Y-129454819D01*
X188904762Y-129454819D02*
X188809524Y-129502438D01*
X188809524Y-129502438D02*
X188761905Y-129550057D01*
X188761905Y-129550057D02*
X188714286Y-129645295D01*
X188714286Y-129645295D02*
X188714286Y-129883390D01*
X188714286Y-129883390D02*
X188761905Y-129978628D01*
X188761905Y-129978628D02*
X188809524Y-130026247D01*
X188809524Y-130026247D02*
X188904762Y-130073866D01*
X188904762Y-130073866D02*
X189095238Y-130073866D01*
X189095238Y-130073866D02*
X189190476Y-130026247D01*
X189190476Y-130026247D02*
X189238095Y-129978628D01*
X189238095Y-129978628D02*
X189285714Y-129883390D01*
X175245833Y-109384819D02*
X174912500Y-108908628D01*
X174674405Y-109384819D02*
X174674405Y-108384819D01*
X174674405Y-108384819D02*
X175055357Y-108384819D01*
X175055357Y-108384819D02*
X175150595Y-108432438D01*
X175150595Y-108432438D02*
X175198214Y-108480057D01*
X175198214Y-108480057D02*
X175245833Y-108575295D01*
X175245833Y-108575295D02*
X175245833Y-108718152D01*
X175245833Y-108718152D02*
X175198214Y-108813390D01*
X175198214Y-108813390D02*
X175150595Y-108861009D01*
X175150595Y-108861009D02*
X175055357Y-108908628D01*
X175055357Y-108908628D02*
X174674405Y-108908628D01*
X176102976Y-108384819D02*
X175912500Y-108384819D01*
X175912500Y-108384819D02*
X175817262Y-108432438D01*
X175817262Y-108432438D02*
X175769643Y-108480057D01*
X175769643Y-108480057D02*
X175674405Y-108622914D01*
X175674405Y-108622914D02*
X175626786Y-108813390D01*
X175626786Y-108813390D02*
X175626786Y-109194342D01*
X175626786Y-109194342D02*
X175674405Y-109289580D01*
X175674405Y-109289580D02*
X175722024Y-109337200D01*
X175722024Y-109337200D02*
X175817262Y-109384819D01*
X175817262Y-109384819D02*
X176007738Y-109384819D01*
X176007738Y-109384819D02*
X176102976Y-109337200D01*
X176102976Y-109337200D02*
X176150595Y-109289580D01*
X176150595Y-109289580D02*
X176198214Y-109194342D01*
X176198214Y-109194342D02*
X176198214Y-108956247D01*
X176198214Y-108956247D02*
X176150595Y-108861009D01*
X176150595Y-108861009D02*
X176102976Y-108813390D01*
X176102976Y-108813390D02*
X176007738Y-108765771D01*
X176007738Y-108765771D02*
X175817262Y-108765771D01*
X175817262Y-108765771D02*
X175722024Y-108813390D01*
X175722024Y-108813390D02*
X175674405Y-108861009D01*
X175674405Y-108861009D02*
X175626786Y-108956247D01*
X185379580Y-108472857D02*
X185427200Y-108520476D01*
X185427200Y-108520476D02*
X185474819Y-108663333D01*
X185474819Y-108663333D02*
X185474819Y-108758571D01*
X185474819Y-108758571D02*
X185427200Y-108901428D01*
X185427200Y-108901428D02*
X185331961Y-108996666D01*
X185331961Y-108996666D02*
X185236723Y-109044285D01*
X185236723Y-109044285D02*
X185046247Y-109091904D01*
X185046247Y-109091904D02*
X184903390Y-109091904D01*
X184903390Y-109091904D02*
X184712914Y-109044285D01*
X184712914Y-109044285D02*
X184617676Y-108996666D01*
X184617676Y-108996666D02*
X184522438Y-108901428D01*
X184522438Y-108901428D02*
X184474819Y-108758571D01*
X184474819Y-108758571D02*
X184474819Y-108663333D01*
X184474819Y-108663333D02*
X184522438Y-108520476D01*
X184522438Y-108520476D02*
X184570057Y-108472857D01*
X185474819Y-107520476D02*
X185474819Y-108091904D01*
X185474819Y-107806190D02*
X184474819Y-107806190D01*
X184474819Y-107806190D02*
X184617676Y-107901428D01*
X184617676Y-107901428D02*
X184712914Y-107996666D01*
X184712914Y-107996666D02*
X184760533Y-108091904D01*
X185474819Y-106568095D02*
X185474819Y-107139523D01*
X185474819Y-106853809D02*
X184474819Y-106853809D01*
X184474819Y-106853809D02*
X184617676Y-106949047D01*
X184617676Y-106949047D02*
X184712914Y-107044285D01*
X184712914Y-107044285D02*
X184760533Y-107139523D01*
X129432142Y-119554819D02*
X129098809Y-119078628D01*
X128860714Y-119554819D02*
X128860714Y-118554819D01*
X128860714Y-118554819D02*
X129241666Y-118554819D01*
X129241666Y-118554819D02*
X129336904Y-118602438D01*
X129336904Y-118602438D02*
X129384523Y-118650057D01*
X129384523Y-118650057D02*
X129432142Y-118745295D01*
X129432142Y-118745295D02*
X129432142Y-118888152D01*
X129432142Y-118888152D02*
X129384523Y-118983390D01*
X129384523Y-118983390D02*
X129336904Y-119031009D01*
X129336904Y-119031009D02*
X129241666Y-119078628D01*
X129241666Y-119078628D02*
X128860714Y-119078628D01*
X130384523Y-119554819D02*
X129813095Y-119554819D01*
X130098809Y-119554819D02*
X130098809Y-118554819D01*
X130098809Y-118554819D02*
X130003571Y-118697676D01*
X130003571Y-118697676D02*
X129908333Y-118792914D01*
X129908333Y-118792914D02*
X129813095Y-118840533D01*
X131003571Y-118554819D02*
X131098809Y-118554819D01*
X131098809Y-118554819D02*
X131194047Y-118602438D01*
X131194047Y-118602438D02*
X131241666Y-118650057D01*
X131241666Y-118650057D02*
X131289285Y-118745295D01*
X131289285Y-118745295D02*
X131336904Y-118935771D01*
X131336904Y-118935771D02*
X131336904Y-119173866D01*
X131336904Y-119173866D02*
X131289285Y-119364342D01*
X131289285Y-119364342D02*
X131241666Y-119459580D01*
X131241666Y-119459580D02*
X131194047Y-119507200D01*
X131194047Y-119507200D02*
X131098809Y-119554819D01*
X131098809Y-119554819D02*
X131003571Y-119554819D01*
X131003571Y-119554819D02*
X130908333Y-119507200D01*
X130908333Y-119507200D02*
X130860714Y-119459580D01*
X130860714Y-119459580D02*
X130813095Y-119364342D01*
X130813095Y-119364342D02*
X130765476Y-119173866D01*
X130765476Y-119173866D02*
X130765476Y-118935771D01*
X130765476Y-118935771D02*
X130813095Y-118745295D01*
X130813095Y-118745295D02*
X130860714Y-118650057D01*
X130860714Y-118650057D02*
X130908333Y-118602438D01*
X130908333Y-118602438D02*
X131003571Y-118554819D01*
X97634580Y-120966666D02*
X97682200Y-121014285D01*
X97682200Y-121014285D02*
X97729819Y-121157142D01*
X97729819Y-121157142D02*
X97729819Y-121252380D01*
X97729819Y-121252380D02*
X97682200Y-121395237D01*
X97682200Y-121395237D02*
X97586961Y-121490475D01*
X97586961Y-121490475D02*
X97491723Y-121538094D01*
X97491723Y-121538094D02*
X97301247Y-121585713D01*
X97301247Y-121585713D02*
X97158390Y-121585713D01*
X97158390Y-121585713D02*
X96967914Y-121538094D01*
X96967914Y-121538094D02*
X96872676Y-121490475D01*
X96872676Y-121490475D02*
X96777438Y-121395237D01*
X96777438Y-121395237D02*
X96729819Y-121252380D01*
X96729819Y-121252380D02*
X96729819Y-121157142D01*
X96729819Y-121157142D02*
X96777438Y-121014285D01*
X96777438Y-121014285D02*
X96825057Y-120966666D01*
X96729819Y-120633332D02*
X96729819Y-119966666D01*
X96729819Y-119966666D02*
X97729819Y-120395237D01*
X112614580Y-114066666D02*
X112662200Y-114114285D01*
X112662200Y-114114285D02*
X112709819Y-114257142D01*
X112709819Y-114257142D02*
X112709819Y-114352380D01*
X112709819Y-114352380D02*
X112662200Y-114495237D01*
X112662200Y-114495237D02*
X112566961Y-114590475D01*
X112566961Y-114590475D02*
X112471723Y-114638094D01*
X112471723Y-114638094D02*
X112281247Y-114685713D01*
X112281247Y-114685713D02*
X112138390Y-114685713D01*
X112138390Y-114685713D02*
X111947914Y-114638094D01*
X111947914Y-114638094D02*
X111852676Y-114590475D01*
X111852676Y-114590475D02*
X111757438Y-114495237D01*
X111757438Y-114495237D02*
X111709819Y-114352380D01*
X111709819Y-114352380D02*
X111709819Y-114257142D01*
X111709819Y-114257142D02*
X111757438Y-114114285D01*
X111757438Y-114114285D02*
X111805057Y-114066666D01*
X111709819Y-113733332D02*
X111709819Y-113114285D01*
X111709819Y-113114285D02*
X112090771Y-113447618D01*
X112090771Y-113447618D02*
X112090771Y-113304761D01*
X112090771Y-113304761D02*
X112138390Y-113209523D01*
X112138390Y-113209523D02*
X112186009Y-113161904D01*
X112186009Y-113161904D02*
X112281247Y-113114285D01*
X112281247Y-113114285D02*
X112519342Y-113114285D01*
X112519342Y-113114285D02*
X112614580Y-113161904D01*
X112614580Y-113161904D02*
X112662200Y-113209523D01*
X112662200Y-113209523D02*
X112709819Y-113304761D01*
X112709819Y-113304761D02*
X112709819Y-113590475D01*
X112709819Y-113590475D02*
X112662200Y-113685713D01*
X112662200Y-113685713D02*
X112614580Y-113733332D01*
X117034580Y-126366666D02*
X117082200Y-126414285D01*
X117082200Y-126414285D02*
X117129819Y-126557142D01*
X117129819Y-126557142D02*
X117129819Y-126652380D01*
X117129819Y-126652380D02*
X117082200Y-126795237D01*
X117082200Y-126795237D02*
X116986961Y-126890475D01*
X116986961Y-126890475D02*
X116891723Y-126938094D01*
X116891723Y-126938094D02*
X116701247Y-126985713D01*
X116701247Y-126985713D02*
X116558390Y-126985713D01*
X116558390Y-126985713D02*
X116367914Y-126938094D01*
X116367914Y-126938094D02*
X116272676Y-126890475D01*
X116272676Y-126890475D02*
X116177438Y-126795237D01*
X116177438Y-126795237D02*
X116129819Y-126652380D01*
X116129819Y-126652380D02*
X116129819Y-126557142D01*
X116129819Y-126557142D02*
X116177438Y-126414285D01*
X116177438Y-126414285D02*
X116225057Y-126366666D01*
X116129819Y-125509523D02*
X116129819Y-125699999D01*
X116129819Y-125699999D02*
X116177438Y-125795237D01*
X116177438Y-125795237D02*
X116225057Y-125842856D01*
X116225057Y-125842856D02*
X116367914Y-125938094D01*
X116367914Y-125938094D02*
X116558390Y-125985713D01*
X116558390Y-125985713D02*
X116939342Y-125985713D01*
X116939342Y-125985713D02*
X117034580Y-125938094D01*
X117034580Y-125938094D02*
X117082200Y-125890475D01*
X117082200Y-125890475D02*
X117129819Y-125795237D01*
X117129819Y-125795237D02*
X117129819Y-125604761D01*
X117129819Y-125604761D02*
X117082200Y-125509523D01*
X117082200Y-125509523D02*
X117034580Y-125461904D01*
X117034580Y-125461904D02*
X116939342Y-125414285D01*
X116939342Y-125414285D02*
X116701247Y-125414285D01*
X116701247Y-125414285D02*
X116606009Y-125461904D01*
X116606009Y-125461904D02*
X116558390Y-125509523D01*
X116558390Y-125509523D02*
X116510771Y-125604761D01*
X116510771Y-125604761D02*
X116510771Y-125795237D01*
X116510771Y-125795237D02*
X116558390Y-125890475D01*
X116558390Y-125890475D02*
X116606009Y-125938094D01*
X116606009Y-125938094D02*
X116701247Y-125985713D01*
X118400595Y-105089819D02*
X118400595Y-105899342D01*
X118400595Y-105899342D02*
X118448214Y-105994580D01*
X118448214Y-105994580D02*
X118495833Y-106042200D01*
X118495833Y-106042200D02*
X118591071Y-106089819D01*
X118591071Y-106089819D02*
X118781547Y-106089819D01*
X118781547Y-106089819D02*
X118876785Y-106042200D01*
X118876785Y-106042200D02*
X118924404Y-105994580D01*
X118924404Y-105994580D02*
X118972023Y-105899342D01*
X118972023Y-105899342D02*
X118972023Y-105089819D01*
X119400595Y-105185057D02*
X119448214Y-105137438D01*
X119448214Y-105137438D02*
X119543452Y-105089819D01*
X119543452Y-105089819D02*
X119781547Y-105089819D01*
X119781547Y-105089819D02*
X119876785Y-105137438D01*
X119876785Y-105137438D02*
X119924404Y-105185057D01*
X119924404Y-105185057D02*
X119972023Y-105280295D01*
X119972023Y-105280295D02*
X119972023Y-105375533D01*
X119972023Y-105375533D02*
X119924404Y-105518390D01*
X119924404Y-105518390D02*
X119352976Y-106089819D01*
X119352976Y-106089819D02*
X119972023Y-106089819D01*
X171233333Y-103804819D02*
X170900000Y-103328628D01*
X170661905Y-103804819D02*
X170661905Y-102804819D01*
X170661905Y-102804819D02*
X171042857Y-102804819D01*
X171042857Y-102804819D02*
X171138095Y-102852438D01*
X171138095Y-102852438D02*
X171185714Y-102900057D01*
X171185714Y-102900057D02*
X171233333Y-102995295D01*
X171233333Y-102995295D02*
X171233333Y-103138152D01*
X171233333Y-103138152D02*
X171185714Y-103233390D01*
X171185714Y-103233390D02*
X171138095Y-103281009D01*
X171138095Y-103281009D02*
X171042857Y-103328628D01*
X171042857Y-103328628D02*
X170661905Y-103328628D01*
X171804762Y-103233390D02*
X171709524Y-103185771D01*
X171709524Y-103185771D02*
X171661905Y-103138152D01*
X171661905Y-103138152D02*
X171614286Y-103042914D01*
X171614286Y-103042914D02*
X171614286Y-102995295D01*
X171614286Y-102995295D02*
X171661905Y-102900057D01*
X171661905Y-102900057D02*
X171709524Y-102852438D01*
X171709524Y-102852438D02*
X171804762Y-102804819D01*
X171804762Y-102804819D02*
X171995238Y-102804819D01*
X171995238Y-102804819D02*
X172090476Y-102852438D01*
X172090476Y-102852438D02*
X172138095Y-102900057D01*
X172138095Y-102900057D02*
X172185714Y-102995295D01*
X172185714Y-102995295D02*
X172185714Y-103042914D01*
X172185714Y-103042914D02*
X172138095Y-103138152D01*
X172138095Y-103138152D02*
X172090476Y-103185771D01*
X172090476Y-103185771D02*
X171995238Y-103233390D01*
X171995238Y-103233390D02*
X171804762Y-103233390D01*
X171804762Y-103233390D02*
X171709524Y-103281009D01*
X171709524Y-103281009D02*
X171661905Y-103328628D01*
X171661905Y-103328628D02*
X171614286Y-103423866D01*
X171614286Y-103423866D02*
X171614286Y-103614342D01*
X171614286Y-103614342D02*
X171661905Y-103709580D01*
X171661905Y-103709580D02*
X171709524Y-103757200D01*
X171709524Y-103757200D02*
X171804762Y-103804819D01*
X171804762Y-103804819D02*
X171995238Y-103804819D01*
X171995238Y-103804819D02*
X172090476Y-103757200D01*
X172090476Y-103757200D02*
X172138095Y-103709580D01*
X172138095Y-103709580D02*
X172185714Y-103614342D01*
X172185714Y-103614342D02*
X172185714Y-103423866D01*
X172185714Y-103423866D02*
X172138095Y-103328628D01*
X172138095Y-103328628D02*
X172090476Y-103281009D01*
X172090476Y-103281009D02*
X171995238Y-103233390D01*
X122408333Y-114454819D02*
X122075000Y-113978628D01*
X121836905Y-114454819D02*
X121836905Y-113454819D01*
X121836905Y-113454819D02*
X122217857Y-113454819D01*
X122217857Y-113454819D02*
X122313095Y-113502438D01*
X122313095Y-113502438D02*
X122360714Y-113550057D01*
X122360714Y-113550057D02*
X122408333Y-113645295D01*
X122408333Y-113645295D02*
X122408333Y-113788152D01*
X122408333Y-113788152D02*
X122360714Y-113883390D01*
X122360714Y-113883390D02*
X122313095Y-113931009D01*
X122313095Y-113931009D02*
X122217857Y-113978628D01*
X122217857Y-113978628D02*
X121836905Y-113978628D01*
X122789286Y-113550057D02*
X122836905Y-113502438D01*
X122836905Y-113502438D02*
X122932143Y-113454819D01*
X122932143Y-113454819D02*
X123170238Y-113454819D01*
X123170238Y-113454819D02*
X123265476Y-113502438D01*
X123265476Y-113502438D02*
X123313095Y-113550057D01*
X123313095Y-113550057D02*
X123360714Y-113645295D01*
X123360714Y-113645295D02*
X123360714Y-113740533D01*
X123360714Y-113740533D02*
X123313095Y-113883390D01*
X123313095Y-113883390D02*
X122741667Y-114454819D01*
X122741667Y-114454819D02*
X123360714Y-114454819D01*
X180938095Y-108834819D02*
X180938095Y-109644342D01*
X180938095Y-109644342D02*
X180985714Y-109739580D01*
X180985714Y-109739580D02*
X181033333Y-109787200D01*
X181033333Y-109787200D02*
X181128571Y-109834819D01*
X181128571Y-109834819D02*
X181319047Y-109834819D01*
X181319047Y-109834819D02*
X181414285Y-109787200D01*
X181414285Y-109787200D02*
X181461904Y-109739580D01*
X181461904Y-109739580D02*
X181509523Y-109644342D01*
X181509523Y-109644342D02*
X181509523Y-108834819D01*
X182414285Y-108834819D02*
X182223809Y-108834819D01*
X182223809Y-108834819D02*
X182128571Y-108882438D01*
X182128571Y-108882438D02*
X182080952Y-108930057D01*
X182080952Y-108930057D02*
X181985714Y-109072914D01*
X181985714Y-109072914D02*
X181938095Y-109263390D01*
X181938095Y-109263390D02*
X181938095Y-109644342D01*
X181938095Y-109644342D02*
X181985714Y-109739580D01*
X181985714Y-109739580D02*
X182033333Y-109787200D01*
X182033333Y-109787200D02*
X182128571Y-109834819D01*
X182128571Y-109834819D02*
X182319047Y-109834819D01*
X182319047Y-109834819D02*
X182414285Y-109787200D01*
X182414285Y-109787200D02*
X182461904Y-109739580D01*
X182461904Y-109739580D02*
X182509523Y-109644342D01*
X182509523Y-109644342D02*
X182509523Y-109406247D01*
X182509523Y-109406247D02*
X182461904Y-109311009D01*
X182461904Y-109311009D02*
X182414285Y-109263390D01*
X182414285Y-109263390D02*
X182319047Y-109215771D01*
X182319047Y-109215771D02*
X182128571Y-109215771D01*
X182128571Y-109215771D02*
X182033333Y-109263390D01*
X182033333Y-109263390D02*
X181985714Y-109311009D01*
X181985714Y-109311009D02*
X181938095Y-109406247D01*
X194514286Y-100434819D02*
X195085714Y-100434819D01*
X194800000Y-101434819D02*
X194800000Y-100434819D01*
X195419048Y-101434819D02*
X195419048Y-100434819D01*
X195419048Y-100911009D02*
X195990476Y-100911009D01*
X195990476Y-101434819D02*
X195990476Y-100434819D01*
X196990476Y-101434819D02*
X196419048Y-101434819D01*
X196704762Y-101434819D02*
X196704762Y-100434819D01*
X196704762Y-100434819D02*
X196609524Y-100577676D01*
X196609524Y-100577676D02*
X196514286Y-100672914D01*
X196514286Y-100672914D02*
X196419048Y-100720533D01*
X127334580Y-107966666D02*
X127382200Y-108014285D01*
X127382200Y-108014285D02*
X127429819Y-108157142D01*
X127429819Y-108157142D02*
X127429819Y-108252380D01*
X127429819Y-108252380D02*
X127382200Y-108395237D01*
X127382200Y-108395237D02*
X127286961Y-108490475D01*
X127286961Y-108490475D02*
X127191723Y-108538094D01*
X127191723Y-108538094D02*
X127001247Y-108585713D01*
X127001247Y-108585713D02*
X126858390Y-108585713D01*
X126858390Y-108585713D02*
X126667914Y-108538094D01*
X126667914Y-108538094D02*
X126572676Y-108490475D01*
X126572676Y-108490475D02*
X126477438Y-108395237D01*
X126477438Y-108395237D02*
X126429819Y-108252380D01*
X126429819Y-108252380D02*
X126429819Y-108157142D01*
X126429819Y-108157142D02*
X126477438Y-108014285D01*
X126477438Y-108014285D02*
X126525057Y-107966666D01*
X126429819Y-107061904D02*
X126429819Y-107538094D01*
X126429819Y-107538094D02*
X126906009Y-107585713D01*
X126906009Y-107585713D02*
X126858390Y-107538094D01*
X126858390Y-107538094D02*
X126810771Y-107442856D01*
X126810771Y-107442856D02*
X126810771Y-107204761D01*
X126810771Y-107204761D02*
X126858390Y-107109523D01*
X126858390Y-107109523D02*
X126906009Y-107061904D01*
X126906009Y-107061904D02*
X127001247Y-107014285D01*
X127001247Y-107014285D02*
X127239342Y-107014285D01*
X127239342Y-107014285D02*
X127334580Y-107061904D01*
X127334580Y-107061904D02*
X127382200Y-107109523D01*
X127382200Y-107109523D02*
X127429819Y-107204761D01*
X127429819Y-107204761D02*
X127429819Y-107442856D01*
X127429819Y-107442856D02*
X127382200Y-107538094D01*
X127382200Y-107538094D02*
X127334580Y-107585713D01*
X110408333Y-122254819D02*
X110075000Y-121778628D01*
X109836905Y-122254819D02*
X109836905Y-121254819D01*
X109836905Y-121254819D02*
X110217857Y-121254819D01*
X110217857Y-121254819D02*
X110313095Y-121302438D01*
X110313095Y-121302438D02*
X110360714Y-121350057D01*
X110360714Y-121350057D02*
X110408333Y-121445295D01*
X110408333Y-121445295D02*
X110408333Y-121588152D01*
X110408333Y-121588152D02*
X110360714Y-121683390D01*
X110360714Y-121683390D02*
X110313095Y-121731009D01*
X110313095Y-121731009D02*
X110217857Y-121778628D01*
X110217857Y-121778628D02*
X109836905Y-121778628D01*
X111360714Y-122254819D02*
X110789286Y-122254819D01*
X111075000Y-122254819D02*
X111075000Y-121254819D01*
X111075000Y-121254819D02*
X110979762Y-121397676D01*
X110979762Y-121397676D02*
X110884524Y-121492914D01*
X110884524Y-121492914D02*
X110789286Y-121540533D01*
X175020833Y-115184819D02*
X174687500Y-114708628D01*
X174449405Y-115184819D02*
X174449405Y-114184819D01*
X174449405Y-114184819D02*
X174830357Y-114184819D01*
X174830357Y-114184819D02*
X174925595Y-114232438D01*
X174925595Y-114232438D02*
X174973214Y-114280057D01*
X174973214Y-114280057D02*
X175020833Y-114375295D01*
X175020833Y-114375295D02*
X175020833Y-114518152D01*
X175020833Y-114518152D02*
X174973214Y-114613390D01*
X174973214Y-114613390D02*
X174925595Y-114661009D01*
X174925595Y-114661009D02*
X174830357Y-114708628D01*
X174830357Y-114708628D02*
X174449405Y-114708628D01*
X175925595Y-114184819D02*
X175449405Y-114184819D01*
X175449405Y-114184819D02*
X175401786Y-114661009D01*
X175401786Y-114661009D02*
X175449405Y-114613390D01*
X175449405Y-114613390D02*
X175544643Y-114565771D01*
X175544643Y-114565771D02*
X175782738Y-114565771D01*
X175782738Y-114565771D02*
X175877976Y-114613390D01*
X175877976Y-114613390D02*
X175925595Y-114661009D01*
X175925595Y-114661009D02*
X175973214Y-114756247D01*
X175973214Y-114756247D02*
X175973214Y-114994342D01*
X175973214Y-114994342D02*
X175925595Y-115089580D01*
X175925595Y-115089580D02*
X175877976Y-115137200D01*
X175877976Y-115137200D02*
X175782738Y-115184819D01*
X175782738Y-115184819D02*
X175544643Y-115184819D01*
X175544643Y-115184819D02*
X175449405Y-115137200D01*
X175449405Y-115137200D02*
X175401786Y-115089580D01*
X109689285Y-129731009D02*
X109832142Y-129778628D01*
X109832142Y-129778628D02*
X109879761Y-129826247D01*
X109879761Y-129826247D02*
X109927380Y-129921485D01*
X109927380Y-129921485D02*
X109927380Y-130064342D01*
X109927380Y-130064342D02*
X109879761Y-130159580D01*
X109879761Y-130159580D02*
X109832142Y-130207200D01*
X109832142Y-130207200D02*
X109736904Y-130254819D01*
X109736904Y-130254819D02*
X109355952Y-130254819D01*
X109355952Y-130254819D02*
X109355952Y-129254819D01*
X109355952Y-129254819D02*
X109689285Y-129254819D01*
X109689285Y-129254819D02*
X109784523Y-129302438D01*
X109784523Y-129302438D02*
X109832142Y-129350057D01*
X109832142Y-129350057D02*
X109879761Y-129445295D01*
X109879761Y-129445295D02*
X109879761Y-129540533D01*
X109879761Y-129540533D02*
X109832142Y-129635771D01*
X109832142Y-129635771D02*
X109784523Y-129683390D01*
X109784523Y-129683390D02*
X109689285Y-129731009D01*
X109689285Y-129731009D02*
X109355952Y-129731009D01*
X110213095Y-129254819D02*
X110784523Y-129254819D01*
X110498809Y-130254819D02*
X110498809Y-129254819D01*
X111641666Y-130254819D02*
X111070238Y-130254819D01*
X111355952Y-130254819D02*
X111355952Y-129254819D01*
X111355952Y-129254819D02*
X111260714Y-129397676D01*
X111260714Y-129397676D02*
X111165476Y-129492914D01*
X111165476Y-129492914D02*
X111070238Y-129540533D01*
X193533333Y-125554819D02*
X193200000Y-125078628D01*
X192961905Y-125554819D02*
X192961905Y-124554819D01*
X192961905Y-124554819D02*
X193342857Y-124554819D01*
X193342857Y-124554819D02*
X193438095Y-124602438D01*
X193438095Y-124602438D02*
X193485714Y-124650057D01*
X193485714Y-124650057D02*
X193533333Y-124745295D01*
X193533333Y-124745295D02*
X193533333Y-124888152D01*
X193533333Y-124888152D02*
X193485714Y-124983390D01*
X193485714Y-124983390D02*
X193438095Y-125031009D01*
X193438095Y-125031009D02*
X193342857Y-125078628D01*
X193342857Y-125078628D02*
X192961905Y-125078628D01*
X193866667Y-124554819D02*
X194485714Y-124554819D01*
X194485714Y-124554819D02*
X194152381Y-124935771D01*
X194152381Y-124935771D02*
X194295238Y-124935771D01*
X194295238Y-124935771D02*
X194390476Y-124983390D01*
X194390476Y-124983390D02*
X194438095Y-125031009D01*
X194438095Y-125031009D02*
X194485714Y-125126247D01*
X194485714Y-125126247D02*
X194485714Y-125364342D01*
X194485714Y-125364342D02*
X194438095Y-125459580D01*
X194438095Y-125459580D02*
X194390476Y-125507200D01*
X194390476Y-125507200D02*
X194295238Y-125554819D01*
X194295238Y-125554819D02*
X194009524Y-125554819D01*
X194009524Y-125554819D02*
X193914286Y-125507200D01*
X193914286Y-125507200D02*
X193866667Y-125459580D01*
X175557142Y-120469580D02*
X175509523Y-120517200D01*
X175509523Y-120517200D02*
X175366666Y-120564819D01*
X175366666Y-120564819D02*
X175271428Y-120564819D01*
X175271428Y-120564819D02*
X175128571Y-120517200D01*
X175128571Y-120517200D02*
X175033333Y-120421961D01*
X175033333Y-120421961D02*
X174985714Y-120326723D01*
X174985714Y-120326723D02*
X174938095Y-120136247D01*
X174938095Y-120136247D02*
X174938095Y-119993390D01*
X174938095Y-119993390D02*
X174985714Y-119802914D01*
X174985714Y-119802914D02*
X175033333Y-119707676D01*
X175033333Y-119707676D02*
X175128571Y-119612438D01*
X175128571Y-119612438D02*
X175271428Y-119564819D01*
X175271428Y-119564819D02*
X175366666Y-119564819D01*
X175366666Y-119564819D02*
X175509523Y-119612438D01*
X175509523Y-119612438D02*
X175557142Y-119660057D01*
X176509523Y-120564819D02*
X175938095Y-120564819D01*
X176223809Y-120564819D02*
X176223809Y-119564819D01*
X176223809Y-119564819D02*
X176128571Y-119707676D01*
X176128571Y-119707676D02*
X176033333Y-119802914D01*
X176033333Y-119802914D02*
X175938095Y-119850533D01*
X177128571Y-119564819D02*
X177223809Y-119564819D01*
X177223809Y-119564819D02*
X177319047Y-119612438D01*
X177319047Y-119612438D02*
X177366666Y-119660057D01*
X177366666Y-119660057D02*
X177414285Y-119755295D01*
X177414285Y-119755295D02*
X177461904Y-119945771D01*
X177461904Y-119945771D02*
X177461904Y-120183866D01*
X177461904Y-120183866D02*
X177414285Y-120374342D01*
X177414285Y-120374342D02*
X177366666Y-120469580D01*
X177366666Y-120469580D02*
X177319047Y-120517200D01*
X177319047Y-120517200D02*
X177223809Y-120564819D01*
X177223809Y-120564819D02*
X177128571Y-120564819D01*
X177128571Y-120564819D02*
X177033333Y-120517200D01*
X177033333Y-120517200D02*
X176985714Y-120469580D01*
X176985714Y-120469580D02*
X176938095Y-120374342D01*
X176938095Y-120374342D02*
X176890476Y-120183866D01*
X176890476Y-120183866D02*
X176890476Y-119945771D01*
X176890476Y-119945771D02*
X176938095Y-119755295D01*
X176938095Y-119755295D02*
X176985714Y-119660057D01*
X176985714Y-119660057D02*
X177033333Y-119612438D01*
X177033333Y-119612438D02*
X177128571Y-119564819D01*
X147048095Y-118484819D02*
X147048095Y-119294342D01*
X147048095Y-119294342D02*
X147095714Y-119389580D01*
X147095714Y-119389580D02*
X147143333Y-119437200D01*
X147143333Y-119437200D02*
X147238571Y-119484819D01*
X147238571Y-119484819D02*
X147429047Y-119484819D01*
X147429047Y-119484819D02*
X147524285Y-119437200D01*
X147524285Y-119437200D02*
X147571904Y-119389580D01*
X147571904Y-119389580D02*
X147619523Y-119294342D01*
X147619523Y-119294342D02*
X147619523Y-118484819D01*
X148524285Y-118818152D02*
X148524285Y-119484819D01*
X148286190Y-118437200D02*
X148048095Y-119151485D01*
X148048095Y-119151485D02*
X148667142Y-119151485D01*
X130108333Y-102054819D02*
X129775000Y-101578628D01*
X129536905Y-102054819D02*
X129536905Y-101054819D01*
X129536905Y-101054819D02*
X129917857Y-101054819D01*
X129917857Y-101054819D02*
X130013095Y-101102438D01*
X130013095Y-101102438D02*
X130060714Y-101150057D01*
X130060714Y-101150057D02*
X130108333Y-101245295D01*
X130108333Y-101245295D02*
X130108333Y-101388152D01*
X130108333Y-101388152D02*
X130060714Y-101483390D01*
X130060714Y-101483390D02*
X130013095Y-101531009D01*
X130013095Y-101531009D02*
X129917857Y-101578628D01*
X129917857Y-101578628D02*
X129536905Y-101578628D01*
X130441667Y-101054819D02*
X131108333Y-101054819D01*
X131108333Y-101054819D02*
X130679762Y-102054819D01*
X187623809Y-123378628D02*
X187623809Y-123854819D01*
X187290476Y-122854819D02*
X187623809Y-123378628D01*
X187623809Y-123378628D02*
X187957142Y-122854819D01*
X188242857Y-122950057D02*
X188290476Y-122902438D01*
X188290476Y-122902438D02*
X188385714Y-122854819D01*
X188385714Y-122854819D02*
X188623809Y-122854819D01*
X188623809Y-122854819D02*
X188719047Y-122902438D01*
X188719047Y-122902438D02*
X188766666Y-122950057D01*
X188766666Y-122950057D02*
X188814285Y-123045295D01*
X188814285Y-123045295D02*
X188814285Y-123140533D01*
X188814285Y-123140533D02*
X188766666Y-123283390D01*
X188766666Y-123283390D02*
X188195238Y-123854819D01*
X188195238Y-123854819D02*
X188814285Y-123854819D01*
X169999405Y-109504819D02*
X169999405Y-108504819D01*
X169999405Y-108504819D02*
X170237500Y-108504819D01*
X170237500Y-108504819D02*
X170380357Y-108552438D01*
X170380357Y-108552438D02*
X170475595Y-108647676D01*
X170475595Y-108647676D02*
X170523214Y-108742914D01*
X170523214Y-108742914D02*
X170570833Y-108933390D01*
X170570833Y-108933390D02*
X170570833Y-109076247D01*
X170570833Y-109076247D02*
X170523214Y-109266723D01*
X170523214Y-109266723D02*
X170475595Y-109361961D01*
X170475595Y-109361961D02*
X170380357Y-109457200D01*
X170380357Y-109457200D02*
X170237500Y-109504819D01*
X170237500Y-109504819D02*
X169999405Y-109504819D01*
X171523214Y-109504819D02*
X170951786Y-109504819D01*
X171237500Y-109504819D02*
X171237500Y-108504819D01*
X171237500Y-108504819D02*
X171142262Y-108647676D01*
X171142262Y-108647676D02*
X171047024Y-108742914D01*
X171047024Y-108742914D02*
X170951786Y-108790533D01*
X169924405Y-115184819D02*
X169924405Y-114184819D01*
X169924405Y-114184819D02*
X170162500Y-114184819D01*
X170162500Y-114184819D02*
X170305357Y-114232438D01*
X170305357Y-114232438D02*
X170400595Y-114327676D01*
X170400595Y-114327676D02*
X170448214Y-114422914D01*
X170448214Y-114422914D02*
X170495833Y-114613390D01*
X170495833Y-114613390D02*
X170495833Y-114756247D01*
X170495833Y-114756247D02*
X170448214Y-114946723D01*
X170448214Y-114946723D02*
X170400595Y-115041961D01*
X170400595Y-115041961D02*
X170305357Y-115137200D01*
X170305357Y-115137200D02*
X170162500Y-115184819D01*
X170162500Y-115184819D02*
X169924405Y-115184819D01*
X170876786Y-114280057D02*
X170924405Y-114232438D01*
X170924405Y-114232438D02*
X171019643Y-114184819D01*
X171019643Y-114184819D02*
X171257738Y-114184819D01*
X171257738Y-114184819D02*
X171352976Y-114232438D01*
X171352976Y-114232438D02*
X171400595Y-114280057D01*
X171400595Y-114280057D02*
X171448214Y-114375295D01*
X171448214Y-114375295D02*
X171448214Y-114470533D01*
X171448214Y-114470533D02*
X171400595Y-114613390D01*
X171400595Y-114613390D02*
X170829167Y-115184819D01*
X170829167Y-115184819D02*
X171448214Y-115184819D01*
X100998809Y-105478628D02*
X100998809Y-105954819D01*
X100665476Y-104954819D02*
X100998809Y-105478628D01*
X100998809Y-105478628D02*
X101332142Y-104954819D01*
X102189285Y-105954819D02*
X101617857Y-105954819D01*
X101903571Y-105954819D02*
X101903571Y-104954819D01*
X101903571Y-104954819D02*
X101808333Y-105097676D01*
X101808333Y-105097676D02*
X101713095Y-105192914D01*
X101713095Y-105192914D02*
X101617857Y-105240533D01*
D11*
%TO.C,R9*%
X171760436Y-122265000D02*
X172214564Y-122265000D01*
X171760436Y-123735000D02*
X172214564Y-123735000D01*
%TO.C,C8*%
X178865000Y-126838748D02*
X178865000Y-127361252D01*
X180335000Y-126838748D02*
X180335000Y-127361252D01*
%TO.C,J2*%
X191720000Y-112250000D02*
X191720000Y-110350000D01*
X191720000Y-116150000D02*
X191720000Y-114150000D01*
X201120000Y-110350000D02*
X191720000Y-110350000D01*
X201120000Y-112250000D02*
X201120000Y-110350000D01*
X201120000Y-116150000D02*
X201120000Y-114150000D01*
%TO.C,R4*%
X198934564Y-122665000D02*
X198480436Y-122665000D01*
X198934564Y-124135000D02*
X198480436Y-124135000D01*
%TO.C,C2*%
X96348752Y-101965000D02*
X95826248Y-101965000D01*
X96348752Y-103435000D02*
X95826248Y-103435000D01*
%TO.C,J1*%
X117355000Y-121980000D02*
X117355000Y-120600000D01*
X118735000Y-121980000D02*
X117355000Y-121980000D01*
X120005000Y-119220000D02*
X122655000Y-119220000D01*
X120005000Y-121980000D02*
X120005000Y-119220000D01*
X120005000Y-121980000D02*
X122655000Y-121980000D01*
X122655000Y-121980000D02*
X122655000Y-119220000D01*
%TO.C,U5*%
X97765000Y-124700000D02*
X97765000Y-128460000D01*
X97765000Y-128460000D02*
X99025000Y-128460000D01*
X104585000Y-124700000D02*
X104585000Y-128460000D01*
X104585000Y-128460000D02*
X103325000Y-128460000D01*
X104815000Y-123660000D02*
X104485000Y-123420000D01*
X104815000Y-123180000D01*
X104815000Y-123660000D01*
G36*
X104815000Y-123660000D02*
G01*
X104485000Y-123420000D01*
X104815000Y-123180000D01*
X104815000Y-123660000D01*
G37*
%TO.C,C4*%
X109740000Y-108588748D02*
X109740000Y-109111252D01*
X111210000Y-108588748D02*
X111210000Y-109111252D01*
%TO.C,U3*%
X145050000Y-102200000D02*
X145050000Y-107400000D01*
X145050000Y-107400000D02*
X149950000Y-107400000D01*
X146500000Y-102200000D02*
X145050000Y-102200000D01*
X149950000Y-102200000D02*
X148500000Y-102200000D01*
X149950000Y-107400000D02*
X149950000Y-102200000D01*
X148500000Y-102200000D02*
G75*
G02*
X146500000Y-102200000I-1000000J0D01*
G01*
%TO.C,U1*%
X97102500Y-109490000D02*
X97377500Y-109490000D01*
X97102500Y-109765000D02*
X97102500Y-109490000D01*
X97102500Y-116710000D02*
X97102500Y-116435000D01*
X97377500Y-116710000D02*
X97102500Y-116710000D01*
X104047500Y-109490000D02*
X104322500Y-109490000D01*
X104322500Y-109490000D02*
X104322500Y-109765000D01*
X104322500Y-116435000D02*
X104322500Y-116710000D01*
X104322500Y-116710000D02*
X104047500Y-116710000D01*
X104522500Y-109190000D02*
X104052500Y-108850000D01*
X104522500Y-108510000D01*
X104522500Y-109190000D01*
G36*
X104522500Y-109190000D02*
G01*
X104052500Y-108850000D01*
X104522500Y-108510000D01*
X104522500Y-109190000D01*
G37*
%TO.C,C1*%
X108076248Y-101965000D02*
X108598752Y-101965000D01*
X108076248Y-103435000D02*
X108598752Y-103435000D01*
%TO.C,C9*%
X187865000Y-127088748D02*
X187865000Y-127611252D01*
X189335000Y-127088748D02*
X189335000Y-127611252D01*
%TO.C,R6*%
X175185436Y-109845000D02*
X175639564Y-109845000D01*
X175185436Y-111315000D02*
X175639564Y-111315000D01*
%TO.C,C11*%
X185965000Y-108091252D02*
X185965000Y-107568748D01*
X187435000Y-108091252D02*
X187435000Y-107568748D01*
%TO.C,R10*%
X129960436Y-120365000D02*
X130414564Y-120365000D01*
X129960436Y-121835000D02*
X130414564Y-121835000D01*
%TO.C,C7*%
X94440000Y-120438748D02*
X94440000Y-120961252D01*
X95910000Y-120438748D02*
X95910000Y-120961252D01*
%TO.C,C3*%
X109840000Y-113638748D02*
X109840000Y-114161252D01*
X111310000Y-113638748D02*
X111310000Y-114161252D01*
%TO.C,C6*%
X113940000Y-126511252D02*
X113940000Y-125988748D01*
X115410000Y-126511252D02*
X115410000Y-125988748D01*
%TO.C,U2*%
X117102500Y-106475000D02*
X121222500Y-106475000D01*
X117102500Y-106570000D02*
X117102500Y-106475000D01*
X117102500Y-111595000D02*
X117102500Y-111500000D01*
X121222500Y-106475000D02*
X121222500Y-106570000D01*
X121222500Y-111500000D02*
X121222500Y-111595000D01*
X121222500Y-111595000D02*
X117102500Y-111595000D01*
X116562500Y-106565000D02*
X116322500Y-106235000D01*
X116802500Y-106235000D01*
X116562500Y-106565000D01*
G36*
X116562500Y-106565000D02*
G01*
X116322500Y-106235000D01*
X116802500Y-106235000D01*
X116562500Y-106565000D01*
G37*
%TO.C,R8*%
X171172936Y-104265000D02*
X171627064Y-104265000D01*
X171172936Y-105735000D02*
X171627064Y-105735000D01*
%TO.C,R2*%
X119460436Y-113165000D02*
X119914564Y-113165000D01*
X119460436Y-114635000D02*
X119914564Y-114635000D01*
%TO.C,U6*%
X181965000Y-110475000D02*
X186085000Y-110475000D01*
X181965000Y-110530000D02*
X181965000Y-110475000D01*
X181965000Y-120595000D02*
X181965000Y-120540000D01*
X186085000Y-110475000D02*
X186085000Y-110530000D01*
X186085000Y-120540000D02*
X186085000Y-120595000D01*
X186085000Y-120595000D02*
X181965000Y-120595000D01*
X181425000Y-110525000D02*
X181185000Y-110195000D01*
X181665000Y-110195000D01*
X181425000Y-110525000D01*
G36*
X181425000Y-110525000D02*
G01*
X181185000Y-110195000D01*
X181665000Y-110195000D01*
X181425000Y-110525000D01*
G37*
%TO.C,TH1*%
X195396078Y-103470000D02*
X194878922Y-103470000D01*
X195396078Y-104890000D02*
X194878922Y-104890000D01*
%TO.C,C5*%
X124240000Y-107788748D02*
X124240000Y-108311252D01*
X125710000Y-107788748D02*
X125710000Y-108311252D01*
%TO.C,R1*%
X110702064Y-119265000D02*
X110247936Y-119265000D01*
X110702064Y-120735000D02*
X110247936Y-120735000D01*
%TO.C,R5*%
X174960436Y-115645000D02*
X175414564Y-115645000D01*
X174960436Y-117115000D02*
X175414564Y-117115000D01*
%TO.C,BT1*%
X109095000Y-125930000D02*
X109095000Y-123280000D01*
X111855000Y-123280000D02*
X109095000Y-123280000D01*
X111855000Y-125930000D02*
X109095000Y-125930000D01*
X111855000Y-125930000D02*
X111855000Y-123280000D01*
X111855000Y-127200000D02*
X111855000Y-128580000D01*
X111855000Y-128580000D02*
X110475000Y-128580000D01*
%TO.C,R3*%
X193592936Y-122665000D02*
X194047064Y-122665000D01*
X193592936Y-124135000D02*
X194047064Y-124135000D01*
%TO.C,C10*%
X176388748Y-121365000D02*
X176911252Y-121365000D01*
X176388748Y-122835000D02*
X176911252Y-122835000D01*
%TO.C,U4*%
X145360000Y-120030000D02*
X145360000Y-125230000D01*
X145360000Y-125230000D02*
X150260000Y-125230000D01*
X146810000Y-120030000D02*
X145360000Y-120030000D01*
X150260000Y-120030000D02*
X148810000Y-120030000D01*
X150260000Y-125230000D02*
X150260000Y-120030000D01*
X148810000Y-120030000D02*
G75*
G02*
X146810000Y-120030000I-1000000J0D01*
G01*
%TO.C,R7*%
X130047936Y-102765000D02*
X130502064Y-102765000D01*
X130047936Y-104235000D02*
X130502064Y-104235000D01*
%TO.C,Y2*%
X181090000Y-122240000D02*
X181090000Y-125960000D01*
X181090000Y-125960000D02*
X186960000Y-125960000D01*
X186960000Y-122240000D02*
X181090000Y-122240000D01*
%TO.C,D1*%
X169052500Y-109740000D02*
X169052500Y-111660000D01*
X169052500Y-111660000D02*
X171737500Y-111660000D01*
X171737500Y-109740000D02*
X169052500Y-109740000D01*
%TO.C,D2*%
X168977500Y-115420000D02*
X168977500Y-117340000D01*
X168977500Y-117340000D02*
X171662500Y-117340000D01*
X171662500Y-115420000D02*
X168977500Y-115420000D01*
%TO.C,Y1*%
X99377500Y-104560000D02*
X105247500Y-104560000D01*
X105247500Y-100840000D02*
X99377500Y-100840000D01*
X105247500Y-104560000D02*
X105247500Y-100840000D01*
%TD*%
M02*
