%TF.GenerationSoftware,KiCad,Pcbnew,9.0.7*%
%TF.CreationDate,2026-04-08T16:35:33+03:00*%
%TF.ProjectId,Bio-Data-Bridge,42696f2d-4461-4746-912d-427269646765,rev?*%
%TF.SameCoordinates,Original*%
%TF.FileFunction,Copper,L1,Top*%
%TF.FilePolarity,Positive*%
%FSLAX46Y46*%
G04 Gerber Fmt 4.6, Leading zero omitted, Abs format (unit mm)*
G04 Created by KiCad (PCBNEW 9.0.7) date 2026-04-08 16:35:33*
%MOMM*%
%LPD*%
G01*
G04 APERTURE LIST*
G04 Aperture macros list*
%AMRoundRect*
0 Rectangle with rounded corners*
0 $1 Rounding radius*
0 $2 $3 $4 $5 $6 $7 $8 $9 X,Y pos of 4 corners*
0 Add a 4 corners polygon primitive as box body*
4,1,4,$2,$3,$4,$5,$6,$7,$8,$9,$2,$3,0*
0 Add four circle primitives for the rounded corners*
1,1,$1+$1,$2,$3*
1,1,$1+$1,$4,$5*
1,1,$1+$1,$6,$7*
1,1,$1+$1,$8,$9*
0 Add four rect primitives between the rounded corners*
20,1,$1+$1,$2,$3,$4,$5,0*
20,1,$1+$1,$4,$5,$6,$7,0*
20,1,$1+$1,$6,$7,$8,$9,0*
20,1,$1+$1,$8,$9,$2,$3,0*%
G04 Aperture macros list end*
%TA.AperFunction,SMDPad,CuDef*%
%ADD10RoundRect,0.250000X-0.262500X-0.450000X0.262500X-0.450000X0.262500X0.450000X-0.262500X0.450000X0*%
%TD*%
%TA.AperFunction,SMDPad,CuDef*%
%ADD11RoundRect,0.250000X-0.475000X0.250000X-0.475000X-0.250000X0.475000X-0.250000X0.475000X0.250000X0*%
%TD*%
%TA.AperFunction,SMDPad,CuDef*%
%ADD12R,0.600000X1.450000*%
%TD*%
%TA.AperFunction,SMDPad,CuDef*%
%ADD13R,0.300000X1.450000*%
%TD*%
%TA.AperFunction,HeatsinkPad*%
%ADD14O,1.000000X2.100000*%
%TD*%
%TA.AperFunction,HeatsinkPad*%
%ADD15O,1.000000X1.600000*%
%TD*%
%TA.AperFunction,SMDPad,CuDef*%
%ADD16RoundRect,0.250000X0.262500X0.450000X-0.262500X0.450000X-0.262500X-0.450000X0.262500X-0.450000X0*%
%TD*%
%TA.AperFunction,SMDPad,CuDef*%
%ADD17RoundRect,0.250000X0.250000X0.475000X-0.250000X0.475000X-0.250000X-0.475000X0.250000X-0.475000X0*%
%TD*%
%TA.AperFunction,ComponentPad*%
%ADD18R,1.700000X1.700000*%
%TD*%
%TA.AperFunction,ComponentPad*%
%ADD19C,1.700000*%
%TD*%
%TA.AperFunction,SMDPad,CuDef*%
%ADD20RoundRect,0.375000X-0.375000X0.625000X-0.375000X-0.625000X0.375000X-0.625000X0.375000X0.625000X0*%
%TD*%
%TA.AperFunction,SMDPad,CuDef*%
%ADD21RoundRect,0.500000X-1.400000X0.500000X-1.400000X-0.500000X1.400000X-0.500000X1.400000X0.500000X0*%
%TD*%
%TA.AperFunction,SMDPad,CuDef*%
%ADD22RoundRect,0.249999X-0.750001X-0.640001X0.750001X-0.640001X0.750001X0.640001X-0.750001X0.640001X0*%
%TD*%
%TA.AperFunction,SMDPad,CuDef*%
%ADD23RoundRect,0.137500X-0.137500X0.600000X-0.137500X-0.600000X0.137500X-0.600000X0.137500X0.600000X0*%
%TD*%
%TA.AperFunction,SMDPad,CuDef*%
%ADD24RoundRect,0.137500X-0.600000X0.137500X-0.600000X-0.137500X0.600000X-0.137500X0.600000X0.137500X0*%
%TD*%
%TA.AperFunction,SMDPad,CuDef*%
%ADD25RoundRect,0.250000X-0.250000X-0.475000X0.250000X-0.475000X0.250000X0.475000X-0.250000X0.475000X0*%
%TD*%
%TA.AperFunction,SMDPad,CuDef*%
%ADD26RoundRect,0.250000X0.475000X-0.250000X0.475000X0.250000X-0.475000X0.250000X-0.475000X-0.250000X0*%
%TD*%
%TA.AperFunction,SMDPad,CuDef*%
%ADD27RoundRect,0.150000X-0.825000X-0.150000X0.825000X-0.150000X0.825000X0.150000X-0.825000X0.150000X0*%
%TD*%
%TA.AperFunction,SMDPad,CuDef*%
%ADD28RoundRect,0.243750X0.243750X0.456250X-0.243750X0.456250X-0.243750X-0.456250X0.243750X-0.456250X0*%
%TD*%
%TA.AperFunction,SMDPad,CuDef*%
%ADD29RoundRect,0.250000X-0.750000X-0.950000X0.750000X-0.950000X0.750000X0.950000X-0.750000X0.950000X0*%
%TD*%
%TA.AperFunction,SMDPad,CuDef*%
%ADD30RoundRect,0.243750X-0.243750X-0.456250X0.243750X-0.456250X0.243750X0.456250X-0.243750X0.456250X0*%
%TD*%
%TA.AperFunction,SMDPad,CuDef*%
%ADD31RoundRect,0.250000X0.750000X0.950000X-0.750000X0.950000X-0.750000X-0.950000X0.750000X-0.950000X0*%
%TD*%
%TA.AperFunction,ViaPad*%
%ADD32C,0.600000*%
%TD*%
%TA.AperFunction,Conductor*%
%ADD33C,0.200000*%
%TD*%
G04 APERTURE END LIST*
D10*
%TO.P,R9,1*%
%TO.N,Net-(R9-Pad1)*%
X171075000Y-123000000D03*
%TO.P,R9,2*%
%TO.N,Net-(U6-RXD)*%
X172900000Y-123000000D03*
%TD*%
D11*
%TO.P,C8,1*%
%TO.N,Net-(U6-XO)*%
X179600000Y-126150000D03*
%TO.P,C8,2*%
%TO.N,GND_USB*%
X179600000Y-128050000D03*
%TD*%
D12*
%TO.P,J2,A1,GND*%
%TO.N,GND_USB*%
X199670000Y-118295000D03*
%TO.P,J2,A4,VBUS*%
%TO.N,Net-(J2-VBUS-PadA4)*%
X198870000Y-118295000D03*
D13*
%TO.P,J2,A5,CC1*%
%TO.N,Net-(J2-CC1)*%
X197670000Y-118295000D03*
%TO.P,J2,A6,D+*%
%TO.N,Net-(U6-UD-)*%
X196670000Y-118295000D03*
%TO.P,J2,A7,D-*%
%TO.N,Net-(U6-UD+)*%
X196170000Y-118295000D03*
%TO.P,J2,A8,SBU1*%
%TO.N,unconnected-(J2-SBU1-PadA8)*%
X195170000Y-118295000D03*
D12*
%TO.P,J2,A9,VBUS*%
%TO.N,Net-(J2-VBUS-PadA4)*%
X193970000Y-118295000D03*
%TO.P,J2,A12,GND*%
%TO.N,GND_USB*%
X193170000Y-118295000D03*
%TO.P,J2,B1,GND*%
X193170000Y-118295000D03*
%TO.P,J2,B4,VBUS*%
%TO.N,Net-(J2-VBUS-PadA4)*%
X193970000Y-118295000D03*
D13*
%TO.P,J2,B5,CC2*%
%TO.N,Net-(J2-CC2)*%
X194670000Y-118295000D03*
%TO.P,J2,B6,D+*%
%TO.N,Net-(U6-UD-)*%
X195670000Y-118295000D03*
%TO.P,J2,B7,D-*%
%TO.N,Net-(U6-UD+)*%
X197170000Y-118295000D03*
%TO.P,J2,B8,SBU2*%
%TO.N,unconnected-(J2-SBU2-PadB8)*%
X198170000Y-118295000D03*
D12*
%TO.P,J2,B9,VBUS*%
%TO.N,Net-(J2-VBUS-PadA4)*%
X198870000Y-118295000D03*
%TO.P,J2,B12,GND*%
%TO.N,GND_USB*%
X199670000Y-118295000D03*
D14*
%TO.P,J2,S1,SHIELD*%
X200740000Y-117380000D03*
D15*
X200740000Y-113200000D03*
D14*
X192100000Y-117380000D03*
D15*
X192100000Y-113200000D03*
%TD*%
D16*
%TO.P,R4,1*%
%TO.N,GND_USB*%
X199620000Y-123400000D03*
%TO.P,R4,2*%
%TO.N,Net-(J2-CC1)*%
X197795000Y-123400000D03*
%TD*%
D17*
%TO.P,C2,1*%
%TO.N,Net-(U1-XTAL2{slash}PB7)*%
X97037500Y-102700000D03*
%TO.P,C2,2*%
%TO.N,GND*%
X95137500Y-102700000D03*
%TD*%
D18*
%TO.P,J1,1,Pin_1*%
%TO.N,/L7805*%
X118735000Y-120600000D03*
D19*
%TO.P,J1,2,Pin_2*%
%TO.N,GND*%
X121275000Y-120600000D03*
%TD*%
D20*
%TO.P,U5,1,IN*%
%TO.N,Net-(BT1-+)*%
X103475000Y-123400000D03*
%TO.P,U5,2,GND*%
%TO.N,GND*%
X101175000Y-123400000D03*
D21*
X101175000Y-129700000D03*
D20*
%TO.P,U5,3,OUT*%
%TO.N,+5V*%
X98875000Y-123400000D03*
%TD*%
D11*
%TO.P,C4,1*%
%TO.N,GND*%
X110475000Y-107900000D03*
%TO.P,C4,2*%
%TO.N,+5V*%
X110475000Y-109800000D03*
%TD*%
D22*
%TO.P,U3,1*%
%TO.N,Net-(R7-Pad2)*%
X143690000Y-103530000D03*
%TO.P,U3,2*%
%TO.N,GND*%
X143690000Y-106070000D03*
%TO.P,U3,3*%
%TO.N,GND_USB*%
X151310000Y-106070000D03*
%TO.P,U3,4*%
%TO.N,Net-(R9-Pad1)*%
X151310000Y-103530000D03*
%TD*%
D23*
%TO.P,U1,1,PD3*%
%TO.N,unconnected-(U1-PD3-Pad1)*%
X103512500Y-108937500D03*
%TO.P,U1,2,PD4*%
%TO.N,unconnected-(U1-PD4-Pad2)*%
X102712500Y-108937500D03*
%TO.P,U1,3,GND*%
%TO.N,GND*%
X101912500Y-108937500D03*
%TO.P,U1,4,VCC*%
%TO.N,+5V*%
X101112500Y-108937500D03*
%TO.P,U1,5,GND*%
%TO.N,GND*%
X100312500Y-108937500D03*
%TO.P,U1,6,VCC*%
%TO.N,+5V*%
X99512500Y-108937500D03*
%TO.P,U1,7,XTAL1/PB6*%
%TO.N,Net-(U1-XTAL1{slash}PB6)*%
X98712500Y-108937500D03*
%TO.P,U1,8,XTAL2/PB7*%
%TO.N,Net-(U1-XTAL2{slash}PB7)*%
X97912500Y-108937500D03*
D24*
%TO.P,U1,9,PD5*%
%TO.N,unconnected-(U1-PD5-Pad9)*%
X96550000Y-110300000D03*
%TO.P,U1,10,PD6*%
%TO.N,unconnected-(U1-PD6-Pad10)*%
X96550000Y-111100000D03*
%TO.P,U1,11,PD7*%
%TO.N,unconnected-(U1-PD7-Pad11)*%
X96550000Y-111900000D03*
%TO.P,U1,12,PB0*%
%TO.N,unconnected-(U1-PB0-Pad12)*%
X96550000Y-112700000D03*
%TO.P,U1,13,PB1*%
%TO.N,unconnected-(U1-PB1-Pad13)*%
X96550000Y-113500000D03*
%TO.P,U1,14,PB2*%
%TO.N,unconnected-(U1-PB2-Pad14)*%
X96550000Y-114300000D03*
%TO.P,U1,15,PB3*%
%TO.N,unconnected-(U1-PB3-Pad15)*%
X96550000Y-115100000D03*
%TO.P,U1,16,PB4*%
%TO.N,unconnected-(U1-PB4-Pad16)*%
X96550000Y-115900000D03*
D23*
%TO.P,U1,17,PB5*%
%TO.N,unconnected-(U1-PB5-Pad17)*%
X97912500Y-117262500D03*
%TO.P,U1,18,AVCC*%
%TO.N,+5V*%
X98712500Y-117262500D03*
%TO.P,U1,19,ADC6*%
%TO.N,unconnected-(U1-ADC6-Pad19)*%
X99512500Y-117262500D03*
%TO.P,U1,20,AREF*%
%TO.N,unconnected-(U1-AREF-Pad20)*%
X100312500Y-117262500D03*
%TO.P,U1,21,GND*%
%TO.N,GND*%
X101112500Y-117262500D03*
%TO.P,U1,22,ADC7*%
%TO.N,unconnected-(U1-ADC7-Pad22)*%
X101912500Y-117262500D03*
%TO.P,U1,23,PC0*%
%TO.N,Net-(U1-PC0)*%
X102712500Y-117262500D03*
%TO.P,U1,24,PC1*%
%TO.N,unconnected-(U1-PC1-Pad24)*%
X103512500Y-117262500D03*
D24*
%TO.P,U1,25,PC2*%
%TO.N,unconnected-(U1-PC2-Pad25)*%
X104875000Y-115900000D03*
%TO.P,U1,26,PC3*%
%TO.N,unconnected-(U1-PC3-Pad26)*%
X104875000Y-115100000D03*
%TO.P,U1,27,PC4*%
%TO.N,unconnected-(U1-PC4-Pad27)*%
X104875000Y-114300000D03*
%TO.P,U1,28,PC5*%
%TO.N,unconnected-(U1-PC5-Pad28)*%
X104875000Y-113500000D03*
%TO.P,U1,29,~{RESET}/PC6*%
%TO.N,Net-(U1-~{RESET}{slash}PC6)*%
X104875000Y-112700000D03*
%TO.P,U1,30,PD0*%
%TO.N,Net-(U1-PD0)*%
X104875000Y-111900000D03*
%TO.P,U1,31,PD1*%
%TO.N,Net-(U1-PD1)*%
X104875000Y-111100000D03*
%TO.P,U1,32,PD2*%
%TO.N,unconnected-(U1-PD2-Pad32)*%
X104875000Y-110300000D03*
%TD*%
D25*
%TO.P,C1,1*%
%TO.N,Net-(U1-XTAL1{slash}PB6)*%
X107387500Y-102700000D03*
%TO.P,C1,2*%
%TO.N,GND*%
X109287500Y-102700000D03*
%TD*%
D11*
%TO.P,C9,1*%
%TO.N,Net-(U6-XI)*%
X188600000Y-126400000D03*
%TO.P,C9,2*%
%TO.N,GND_USB*%
X188600000Y-128300000D03*
%TD*%
D10*
%TO.P,R6,1*%
%TO.N,Net-(D1-A)*%
X174500000Y-110580000D03*
%TO.P,R6,2*%
%TO.N,Net-(U6-TXD)*%
X176325000Y-110580000D03*
%TD*%
D26*
%TO.P,C11,1*%
%TO.N,+5V_USB*%
X186700000Y-108780000D03*
%TO.P,C11,2*%
%TO.N,GND_USB*%
X186700000Y-106880000D03*
%TD*%
D10*
%TO.P,R10,1*%
%TO.N,Net-(U1-PD0)*%
X129275000Y-121100000D03*
%TO.P,R10,2*%
%TO.N,Net-(R10-Pad2)*%
X131100000Y-121100000D03*
%TD*%
D11*
%TO.P,C7,1*%
%TO.N,+5V*%
X95175000Y-119750000D03*
%TO.P,C7,2*%
%TO.N,GND*%
X95175000Y-121650000D03*
%TD*%
%TO.P,C3,1*%
%TO.N,+5V*%
X110575000Y-112950000D03*
%TO.P,C3,2*%
%TO.N,GND*%
X110575000Y-114850000D03*
%TD*%
D26*
%TO.P,C6,1*%
%TO.N,Net-(BT1-+)*%
X114675000Y-127200000D03*
%TO.P,C6,2*%
%TO.N,GND*%
X114675000Y-125300000D03*
%TD*%
D27*
%TO.P,U2,1*%
%TO.N,Net-(U1-PC0)*%
X116687500Y-107130000D03*
%TO.P,U2,2,-*%
%TO.N,GND*%
X116687500Y-108400000D03*
%TO.P,U2,3,+*%
%TO.N,/L7805*%
X116687500Y-109670000D03*
%TO.P,U2,4,V-*%
%TO.N,GND*%
X116687500Y-110940000D03*
%TO.P,U2,5,+*%
X121637500Y-110940000D03*
%TO.P,U2,6,-*%
%TO.N,Net-(U2B--)*%
X121637500Y-109670000D03*
%TO.P,U2,7*%
X121637500Y-108400000D03*
%TO.P,U2,8,V+*%
%TO.N,+5V*%
X121637500Y-107130000D03*
%TD*%
D10*
%TO.P,R8,1*%
%TO.N,Net-(R8-Pad1)*%
X170487500Y-105000000D03*
%TO.P,R8,2*%
%TO.N,Net-(U6-TXD)*%
X172312500Y-105000000D03*
%TD*%
%TO.P,R2,1*%
%TO.N,/L7805*%
X118775000Y-113900000D03*
%TO.P,R2,2*%
%TO.N,+5V*%
X120600000Y-113900000D03*
%TD*%
D27*
%TO.P,U6,1,GND*%
%TO.N,GND_USB*%
X181550000Y-111090000D03*
%TO.P,U6,2,TXD*%
%TO.N,Net-(U6-TXD)*%
X181550000Y-112360000D03*
%TO.P,U6,3,RXD*%
%TO.N,Net-(U6-RXD)*%
X181550000Y-113630000D03*
%TO.P,U6,4,V3*%
%TO.N,Net-(U6-V3)*%
X181550000Y-114900000D03*
%TO.P,U6,5,UD+*%
%TO.N,Net-(U6-UD+)*%
X181550000Y-116170000D03*
%TO.P,U6,6,UD-*%
%TO.N,Net-(U6-UD-)*%
X181550000Y-117440000D03*
%TO.P,U6,7,XI*%
%TO.N,Net-(U6-XI)*%
X181550000Y-118710000D03*
%TO.P,U6,8,XO*%
%TO.N,Net-(U6-XO)*%
X181550000Y-119980000D03*
%TO.P,U6,9,~{CTS}*%
%TO.N,unconnected-(U6-~{CTS}-Pad9)*%
X186500000Y-119980000D03*
%TO.P,U6,10,~{DSR}*%
%TO.N,unconnected-(U6-~{DSR}-Pad10)*%
X186500000Y-118710000D03*
%TO.P,U6,11,~{RI}*%
%TO.N,unconnected-(U6-~{RI}-Pad11)*%
X186500000Y-117440000D03*
%TO.P,U6,12,~{DCD}*%
%TO.N,unconnected-(U6-~{DCD}-Pad12)*%
X186500000Y-116170000D03*
%TO.P,U6,13,~{DTR}*%
%TO.N,unconnected-(U6-~{DTR}-Pad13)*%
X186500000Y-114900000D03*
%TO.P,U6,14,~{RTS}*%
%TO.N,unconnected-(U6-~{RTS}-Pad14)*%
X186500000Y-113630000D03*
%TO.P,U6,15,R232*%
%TO.N,unconnected-(U6-R232-Pad15)*%
X186500000Y-112360000D03*
%TO.P,U6,16,VCC*%
%TO.N,+5V_USB*%
X186500000Y-111090000D03*
%TD*%
D28*
%TO.P,TH1,1*%
%TO.N,Net-(J2-VBUS-PadA4)*%
X196075000Y-104180000D03*
%TO.P,TH1,2*%
%TO.N,+5V_USB*%
X194200000Y-104180000D03*
%TD*%
D11*
%TO.P,C5,1*%
%TO.N,+5V*%
X124975000Y-107100000D03*
%TO.P,C5,2*%
%TO.N,GND*%
X124975000Y-109000000D03*
%TD*%
D16*
%TO.P,R1,1*%
%TO.N,+5V*%
X111387500Y-120000000D03*
%TO.P,R1,2*%
%TO.N,Net-(U1-~{RESET}{slash}PC6)*%
X109562500Y-120000000D03*
%TD*%
D10*
%TO.P,R5,1*%
%TO.N,Net-(D2-A)*%
X174275000Y-116380000D03*
%TO.P,R5,2*%
%TO.N,Net-(U6-RXD)*%
X176100000Y-116380000D03*
%TD*%
D18*
%TO.P,BT1,1,+*%
%TO.N,Net-(BT1-+)*%
X110475000Y-127200000D03*
D19*
%TO.P,BT1,2,-*%
%TO.N,GND*%
X110475000Y-124660000D03*
%TD*%
D10*
%TO.P,R3,1*%
%TO.N,GND_USB*%
X192907500Y-123400000D03*
%TO.P,R3,2*%
%TO.N,Net-(J2-CC2)*%
X194732500Y-123400000D03*
%TD*%
D25*
%TO.P,C10,1*%
%TO.N,GND_USB*%
X175700000Y-122100000D03*
%TO.P,C10,2*%
%TO.N,Net-(U6-V3)*%
X177600000Y-122100000D03*
%TD*%
D22*
%TO.P,U4,1*%
%TO.N,Net-(R8-Pad1)*%
X144000000Y-121360000D03*
%TO.P,U4,2*%
%TO.N,GND_USB*%
X144000000Y-123900000D03*
%TO.P,U4,3*%
%TO.N,GND*%
X151620000Y-123900000D03*
%TO.P,U4,4*%
%TO.N,Net-(R10-Pad2)*%
X151620000Y-121360000D03*
%TD*%
D10*
%TO.P,R7,1*%
%TO.N,Net-(U1-PD1)*%
X129362500Y-103500000D03*
%TO.P,R7,2*%
%TO.N,Net-(R7-Pad2)*%
X131187500Y-103500000D03*
%TD*%
D29*
%TO.P,Y2,1,1*%
%TO.N,Net-(U6-XO)*%
X182350000Y-124100000D03*
%TO.P,Y2,2,2*%
%TO.N,Net-(U6-XI)*%
X186050000Y-124100000D03*
%TD*%
D30*
%TO.P,D1,1,K*%
%TO.N,GND_USB*%
X169800000Y-110700000D03*
%TO.P,D1,2,A*%
%TO.N,Net-(D1-A)*%
X171675000Y-110700000D03*
%TD*%
%TO.P,D2,1,K*%
%TO.N,GND_USB*%
X169725000Y-116380000D03*
%TO.P,D2,2,A*%
%TO.N,Net-(D2-A)*%
X171600000Y-116380000D03*
%TD*%
D31*
%TO.P,Y1,1,1*%
%TO.N,Net-(U1-XTAL1{slash}PB6)*%
X103987500Y-102700000D03*
%TO.P,Y1,2,2*%
%TO.N,Net-(U1-XTAL2{slash}PB7)*%
X100287500Y-102700000D03*
%TD*%
D32*
%TO.N,GND*%
X116375000Y-112300000D03*
X100975000Y-115400000D03*
X100312500Y-107637500D03*
X151700000Y-114200000D03*
X110675000Y-102600000D03*
X111775000Y-115300000D03*
X144200000Y-110800000D03*
X123575000Y-110900000D03*
X108775000Y-114900000D03*
X109275000Y-108300000D03*
X118475000Y-108300000D03*
X100875000Y-118800000D03*
X111975000Y-107500000D03*
X125075000Y-110700000D03*
X94475000Y-104700000D03*
%TO.N,+5V*%
X113075000Y-120000000D03*
X101875000Y-111300000D03*
X113175000Y-109900000D03*
X107075000Y-109900000D03*
%TO.N,GND_USB*%
X166800000Y-116500000D03*
X161500000Y-116400000D03*
%TO.N,/L7805*%
X117275000Y-118100000D03*
X117275000Y-113500000D03*
%TO.N,Net-(J2-VBUS-PadA4)*%
X194100000Y-114100000D03*
X194500000Y-116300000D03*
%TO.N,Net-(U6-UD+)*%
X196100000Y-119900000D03*
X183100000Y-116700000D03*
%TO.N,Net-(R8-Pad1)*%
X151800000Y-117400000D03*
X160000000Y-110000000D03*
%TO.N,Net-(U1-PC0)*%
X114575000Y-117500000D03*
X104975000Y-118700000D03*
X114475000Y-107100000D03*
%TD*%
D33*
%TO.N,Net-(BT1-+)*%
X107675000Y-127000000D02*
X107875000Y-127200000D01*
X107875000Y-127200000D02*
X110475000Y-127200000D01*
X110475000Y-127200000D02*
X114675000Y-127200000D01*
X107675000Y-124450000D02*
X107675000Y-127000000D01*
X103475000Y-123400000D02*
X106625000Y-123400000D01*
X106625000Y-123400000D02*
X107675000Y-124450000D01*
%TO.N,GND*%
X118375000Y-108400000D02*
X118475000Y-108300000D01*
X153700000Y-123900000D02*
X154500000Y-123100000D01*
X116687500Y-108400000D02*
X118375000Y-108400000D01*
X125075000Y-109100000D02*
X125075000Y-110700000D01*
X123535000Y-110940000D02*
X123575000Y-110900000D01*
X95137500Y-104037500D02*
X94475000Y-104700000D01*
X116687500Y-110940000D02*
X116687500Y-111987500D01*
X100275000Y-107600000D02*
X100312500Y-107637500D01*
X151620000Y-123900000D02*
X153700000Y-123900000D01*
X110525000Y-114900000D02*
X108775000Y-114900000D01*
X116687500Y-111987500D02*
X116375000Y-112300000D01*
X110575000Y-114850000D02*
X111025000Y-115300000D01*
X101112500Y-117262500D02*
X101112500Y-115537500D01*
X111025000Y-115300000D02*
X111775000Y-115300000D01*
X101112500Y-115537500D02*
X100975000Y-115400000D01*
X109287500Y-102700000D02*
X110575000Y-102700000D01*
X110875000Y-107500000D02*
X111975000Y-107500000D01*
X140660000Y-109100000D02*
X143690000Y-106070000D01*
X101875000Y-107600000D02*
X100350000Y-107600000D01*
X110475000Y-107900000D02*
X110875000Y-107500000D01*
X121637500Y-110940000D02*
X123535000Y-110940000D01*
X101912500Y-107637500D02*
X101875000Y-107600000D01*
X144200000Y-110800000D02*
X144200000Y-106580000D01*
X101112500Y-118562500D02*
X100875000Y-118800000D01*
X110575000Y-102700000D02*
X110675000Y-102600000D01*
X154500000Y-117000000D02*
X151700000Y-114200000D01*
X154500000Y-123100000D02*
X154500000Y-117000000D01*
X100312500Y-108937500D02*
X100312500Y-107637500D01*
X100350000Y-107600000D02*
X100312500Y-107637500D01*
X110475000Y-107900000D02*
X109675000Y-107900000D01*
X110575000Y-114850000D02*
X110525000Y-114900000D01*
X101175000Y-129700000D02*
X101175000Y-128550000D01*
X123500000Y-109100000D02*
X140660000Y-109100000D01*
X101912500Y-108937500D02*
X101912500Y-107637500D01*
X101112500Y-117262500D02*
X101112500Y-118562500D01*
X144200000Y-106580000D02*
X143690000Y-106070000D01*
X109675000Y-107900000D02*
X109275000Y-108300000D01*
X124975000Y-109000000D02*
X125075000Y-109100000D01*
X95137500Y-102700000D02*
X95137500Y-104037500D01*
%TO.N,Net-(U1-XTAL1{slash}PB6)*%
X103375000Y-106700000D02*
X98775000Y-106700000D01*
X103975000Y-102712500D02*
X103975000Y-106100000D01*
X107387500Y-102700000D02*
X103987500Y-102700000D01*
X103975000Y-106100000D02*
X103375000Y-106700000D01*
X98775000Y-108875000D02*
X98712500Y-108937500D01*
X98775000Y-106700000D02*
X98775000Y-108875000D01*
X103987500Y-102700000D02*
X103975000Y-102712500D01*
%TO.N,Net-(U1-XTAL2{slash}PB7)*%
X97037500Y-102700000D02*
X97037500Y-108062500D01*
X100787500Y-103200000D02*
X100287500Y-102700000D01*
X97037500Y-108062500D02*
X97912500Y-108937500D01*
X97037500Y-102700000D02*
X100287500Y-102700000D01*
%TO.N,+5V*%
X119575000Y-110500000D02*
X119575000Y-108100000D01*
X101112500Y-108937500D02*
X101112500Y-110062500D01*
X110475000Y-109800000D02*
X107175000Y-109800000D01*
X99550000Y-110100000D02*
X99512500Y-110062500D01*
X101875000Y-111300000D02*
X101875000Y-110900000D01*
X113575000Y-112950000D02*
X114725000Y-112950000D01*
X111387500Y-120000000D02*
X113075000Y-120000000D01*
X99512500Y-110062500D02*
X98875000Y-110700000D01*
X120600000Y-111525000D02*
X119575000Y-110500000D01*
X98675000Y-117300000D02*
X98712500Y-117262500D01*
X121637500Y-107130000D02*
X124945000Y-107130000D01*
X114725000Y-112950000D02*
X116875000Y-115100000D01*
X98875000Y-118800000D02*
X98675000Y-118600000D01*
X110575000Y-112950000D02*
X113575000Y-112950000D01*
X98675000Y-118600000D02*
X98675000Y-117300000D01*
X107175000Y-109800000D02*
X107075000Y-109900000D01*
X113175000Y-109900000D02*
X110575000Y-109900000D01*
X98875000Y-117100000D02*
X98712500Y-117262500D01*
X98875000Y-110700000D02*
X98875000Y-117100000D01*
X116875000Y-115100000D02*
X119400000Y-115100000D01*
X101875000Y-110900000D02*
X101075000Y-110100000D01*
X98725000Y-117275000D02*
X98712500Y-117262500D01*
X99512500Y-108937500D02*
X99512500Y-110062500D01*
X95175000Y-119750000D02*
X96325000Y-118600000D01*
X119575000Y-108100000D02*
X120545000Y-107130000D01*
X124945000Y-107130000D02*
X124975000Y-107100000D01*
X119400000Y-115100000D02*
X120600000Y-113900000D01*
X101112500Y-110062500D02*
X101075000Y-110100000D01*
X98875000Y-123400000D02*
X98875000Y-118800000D01*
X120600000Y-113900000D02*
X120600000Y-111525000D01*
X120545000Y-107130000D02*
X121637500Y-107130000D01*
X96325000Y-118600000D02*
X98675000Y-118600000D01*
X101075000Y-110100000D02*
X99550000Y-110100000D01*
X110575000Y-112950000D02*
X110575000Y-109900000D01*
X110575000Y-109900000D02*
X110475000Y-109800000D01*
%TO.N,GND_USB*%
X140900000Y-123300000D02*
X141300000Y-123700000D01*
X151310000Y-106070000D02*
X151310000Y-112100000D01*
X166800000Y-116500000D02*
X169605000Y-116500000D01*
X149300000Y-114300000D02*
X145700000Y-114300000D01*
X140900000Y-119100000D02*
X140900000Y-123300000D01*
X155610000Y-116400000D02*
X161500000Y-116400000D01*
X143800000Y-123700000D02*
X144000000Y-123900000D01*
X141300000Y-123700000D02*
X143800000Y-123700000D01*
X151310000Y-112100000D02*
X155610000Y-116400000D01*
X151310000Y-112290000D02*
X149300000Y-114300000D01*
X145700000Y-114300000D02*
X140900000Y-119100000D01*
X169605000Y-116500000D02*
X169725000Y-116380000D01*
X151310000Y-112100000D02*
X151310000Y-112290000D01*
%TO.N,Net-(U6-XO)*%
X182350000Y-120780000D02*
X181550000Y-119980000D01*
X180000000Y-124900000D02*
X180000000Y-125750000D01*
X182350000Y-124100000D02*
X180800000Y-124100000D01*
X180800000Y-124100000D02*
X180000000Y-124900000D01*
X180000000Y-125750000D02*
X179600000Y-126150000D01*
X182350000Y-124100000D02*
X182350000Y-120780000D01*
%TO.N,Net-(U6-XI)*%
X184100000Y-121380000D02*
X184100000Y-119380000D01*
X184100000Y-119380000D02*
X183300000Y-118580000D01*
X186050000Y-124100000D02*
X186050000Y-123330000D01*
X186050000Y-123330000D02*
X184100000Y-121380000D01*
X183300000Y-118580000D02*
X181680000Y-118580000D01*
X187400000Y-124100000D02*
X188200000Y-124900000D01*
X188200000Y-126000000D02*
X188600000Y-126400000D01*
X186050000Y-124100000D02*
X187400000Y-124100000D01*
X181680000Y-118580000D02*
X181550000Y-118710000D01*
X188200000Y-124900000D02*
X188200000Y-126000000D01*
%TO.N,Net-(U6-V3)*%
X179000000Y-114980000D02*
X181470000Y-114980000D01*
X177600000Y-116380000D02*
X179000000Y-114980000D01*
X177600000Y-122100000D02*
X177600000Y-116380000D01*
X181470000Y-114980000D02*
X181550000Y-114900000D01*
%TO.N,+5V_USB*%
X194200000Y-104180000D02*
X189600000Y-108780000D01*
X186500000Y-111090000D02*
X186500000Y-108980000D01*
X186500000Y-108980000D02*
X186700000Y-108780000D01*
X189600000Y-108780000D02*
X186700000Y-108780000D01*
%TO.N,Net-(D1-A)*%
X171675000Y-110700000D02*
X174380000Y-110700000D01*
X174380000Y-110700000D02*
X174500000Y-110580000D01*
X171875000Y-110580000D02*
X171675000Y-110380000D01*
%TO.N,Net-(D2-A)*%
X171600000Y-116380000D02*
X174275000Y-116380000D01*
%TO.N,/L7805*%
X118375000Y-113500000D02*
X117275000Y-113500000D01*
X118735000Y-119560000D02*
X118735000Y-120600000D01*
X118775000Y-113900000D02*
X118375000Y-113500000D01*
X118475000Y-113600000D02*
X118775000Y-113900000D01*
X118445000Y-109670000D02*
X118475000Y-109700000D01*
X118475000Y-109700000D02*
X118475000Y-113600000D01*
X116687500Y-109670000D02*
X118445000Y-109670000D01*
X117275000Y-118100000D02*
X118735000Y-119560000D01*
%TO.N,Net-(U6-UD-)*%
X183800000Y-117180000D02*
X183540000Y-117440000D01*
X188190000Y-115570000D02*
X184210000Y-115570000D01*
X196700000Y-118265000D02*
X196700000Y-116600000D01*
X183540000Y-117440000D02*
X181550000Y-117440000D01*
X196620000Y-118345000D02*
X196670000Y-118295000D01*
X183800000Y-115980000D02*
X183800000Y-117180000D01*
X196620000Y-118245000D02*
X196670000Y-118295000D01*
X184210000Y-115570000D02*
X183800000Y-115980000D01*
X195670000Y-118295000D02*
X195670000Y-115870000D01*
X196700000Y-116600000D02*
X195970000Y-115870000D01*
X195670000Y-115870000D02*
X195380000Y-115580000D01*
X195970000Y-115870000D02*
X195670000Y-115870000D01*
X188200000Y-115580000D02*
X188190000Y-115570000D01*
X195380000Y-115580000D02*
X188200000Y-115580000D01*
X196670000Y-118295000D02*
X196700000Y-118265000D01*
%TO.N,Net-(J2-VBUS-PadA4)*%
X197600000Y-116400000D02*
X197600000Y-113650000D01*
X193970000Y-118295000D02*
X193970000Y-117430000D01*
X196075000Y-104180000D02*
X196075000Y-112125000D01*
X194500000Y-116300000D02*
X194500000Y-116900000D01*
X196075000Y-112125000D02*
X194100000Y-114100000D01*
X194220000Y-118045000D02*
X193970000Y-118295000D01*
X197600000Y-113650000D02*
X196075000Y-112125000D01*
X194500000Y-116900000D02*
X193970000Y-117430000D01*
X198870000Y-117670000D02*
X197600000Y-116400000D01*
X198870000Y-118295000D02*
X198870000Y-117670000D01*
%TO.N,Net-(U6-UD+)*%
X196170000Y-119070000D02*
X196170000Y-118295000D01*
X181340000Y-116380000D02*
X181550000Y-116170000D01*
X196200000Y-119100000D02*
X196170000Y-119070000D01*
X196100000Y-119200000D02*
X196200000Y-119100000D01*
X197170000Y-119170000D02*
X197170000Y-118295000D01*
X197100000Y-119800000D02*
X197100000Y-119300000D01*
X181550000Y-116170000D02*
X182410000Y-116170000D01*
X196100000Y-119900000D02*
X197000000Y-119900000D01*
X197200000Y-119200000D02*
X197170000Y-119170000D01*
X197000000Y-119900000D02*
X197100000Y-119800000D01*
X197100000Y-119300000D02*
X197200000Y-119200000D01*
X196100000Y-119900000D02*
X196100000Y-119200000D01*
X183100000Y-116700000D02*
X182080000Y-116700000D01*
X182080000Y-116700000D02*
X181550000Y-116170000D01*
X196220000Y-118345000D02*
X196170000Y-118295000D01*
%TO.N,Net-(J2-CC1)*%
X198220000Y-119600000D02*
X197620000Y-119600000D01*
X198620000Y-122575000D02*
X198620000Y-120000000D01*
X197620000Y-119600000D02*
X197620000Y-119250000D01*
X197620000Y-119250000D02*
X197670000Y-119200000D01*
X198620000Y-120000000D02*
X198220000Y-119600000D01*
X197795000Y-123400000D02*
X198620000Y-122575000D01*
X197670000Y-119200000D02*
X197670000Y-118295000D01*
%TO.N,Net-(J2-CC2)*%
X194620000Y-119200000D02*
X194670000Y-119150000D01*
X194732500Y-119312500D02*
X194620000Y-119200000D01*
X194732500Y-123400000D02*
X194732500Y-119312500D01*
X194670000Y-119150000D02*
X194670000Y-118295000D01*
%TO.N,Net-(U1-~{RESET}{slash}PC6)*%
X108675000Y-120000000D02*
X107475000Y-118800000D01*
X107475000Y-118800000D02*
X107475000Y-113700000D01*
X109562500Y-120000000D02*
X108675000Y-120000000D01*
X107175000Y-113400000D02*
X106475000Y-113400000D01*
X107475000Y-113700000D02*
X107175000Y-113400000D01*
X105775000Y-112700000D02*
X104875000Y-112700000D01*
X106475000Y-113400000D02*
X105775000Y-112700000D01*
%TO.N,Net-(U6-RXD)*%
X172900000Y-121000000D02*
X172900000Y-123000000D01*
X176100000Y-116380000D02*
X176100000Y-117800000D01*
X178750000Y-113630000D02*
X181550000Y-113630000D01*
X176100000Y-116280000D02*
X178750000Y-113630000D01*
X176100000Y-116380000D02*
X176100000Y-116280000D01*
X176100000Y-117800000D02*
X172900000Y-121000000D01*
%TO.N,Net-(U6-TXD)*%
X178105000Y-112360000D02*
X181550000Y-112360000D01*
X178022500Y-112277500D02*
X178105000Y-112360000D01*
X176325000Y-110580000D02*
X176325000Y-109625000D01*
X176325000Y-110580000D02*
X178022500Y-112277500D01*
X176325000Y-109625000D02*
X172312500Y-105612500D01*
X172312500Y-105612500D02*
X172312500Y-105000000D01*
%TO.N,Net-(U1-PD1)*%
X106175000Y-111000000D02*
X104975000Y-111000000D01*
X106375000Y-110800000D02*
X106175000Y-111000000D01*
X104975000Y-111000000D02*
X104875000Y-111100000D01*
X129362500Y-103500000D02*
X113075000Y-103500000D01*
X113075000Y-103500000D02*
X108275000Y-108300000D01*
X105675000Y-108300000D02*
X105675000Y-108800000D01*
X105675000Y-108800000D02*
X106375000Y-109500000D01*
X106375000Y-109500000D02*
X106375000Y-110800000D01*
X108275000Y-108300000D02*
X105675000Y-108300000D01*
%TO.N,Net-(R7-Pad2)*%
X131187500Y-103500000D02*
X143660000Y-103500000D01*
X143620000Y-103600000D02*
X143690000Y-103530000D01*
X143660000Y-103500000D02*
X143690000Y-103530000D01*
%TO.N,Net-(R8-Pad1)*%
X170487500Y-105000000D02*
X165000000Y-105000000D01*
X144300000Y-117400000D02*
X144000000Y-117700000D01*
X151800000Y-117400000D02*
X144300000Y-117400000D01*
X165000000Y-105000000D02*
X160000000Y-110000000D01*
X144000000Y-117700000D02*
X144000000Y-121360000D01*
%TO.N,Net-(R9-Pad1)*%
X171075000Y-123000000D02*
X170780000Y-123000000D01*
X170780000Y-123000000D02*
X151310000Y-103530000D01*
%TO.N,Net-(R10-Pad2)*%
X141800000Y-129000000D02*
X133900000Y-121100000D01*
X133900000Y-121100000D02*
X131100000Y-121100000D01*
X150740000Y-121360000D02*
X143100000Y-129000000D01*
X143100000Y-129000000D02*
X141800000Y-129000000D01*
X151620000Y-121360000D02*
X150740000Y-121360000D01*
%TO.N,Net-(U1-PD0)*%
X108075000Y-112400000D02*
X108075000Y-116400000D01*
X126275000Y-116600000D02*
X126275000Y-119900000D01*
X126275000Y-119900000D02*
X127675000Y-121300000D01*
X104875000Y-111900000D02*
X107575000Y-111900000D01*
X129025000Y-121300000D02*
X129225000Y-121100000D01*
X108275000Y-116600000D02*
X126275000Y-116600000D01*
X107575000Y-111900000D02*
X108075000Y-112400000D01*
X127675000Y-121300000D02*
X129025000Y-121300000D01*
X108075000Y-116400000D02*
X108275000Y-116600000D01*
%TO.N,Net-(U1-PC0)*%
X102712500Y-118337500D02*
X103075000Y-118700000D01*
X102712500Y-117262500D02*
X102712500Y-118337500D01*
X103075000Y-118700000D02*
X104975000Y-118700000D01*
X114475000Y-107100000D02*
X116657500Y-107100000D01*
X114675000Y-117600000D02*
X114575000Y-117500000D01*
X116657500Y-107100000D02*
X116687500Y-107130000D01*
%TO.N,Net-(U2B--)*%
X121637500Y-108400000D02*
X121637500Y-109670000D01*
%TD*%
%TA.AperFunction,Conductor*%
%TO.N,GND_USB*%
G36*
X180079028Y-115600185D02*
G01*
X180124783Y-115652989D01*
X180134727Y-115722147D01*
X180125788Y-115753753D01*
X180123253Y-115759610D01*
X180077402Y-115917426D01*
X180077401Y-115917432D01*
X180074500Y-115954298D01*
X180074500Y-116385701D01*
X180077401Y-116422567D01*
X180077402Y-116422573D01*
X180123254Y-116580393D01*
X180123255Y-116580396D01*
X180123256Y-116580398D01*
X180142571Y-116613058D01*
X180206917Y-116721862D01*
X180211702Y-116728031D01*
X180209256Y-116729927D01*
X180235857Y-116778642D01*
X180230873Y-116848334D01*
X180210069Y-116880703D01*
X180211702Y-116881969D01*
X180206917Y-116888137D01*
X180123255Y-117029603D01*
X180123254Y-117029606D01*
X180077402Y-117187426D01*
X180077401Y-117187432D01*
X180074500Y-117224298D01*
X180074500Y-117655701D01*
X180077401Y-117692567D01*
X180077402Y-117692573D01*
X180123254Y-117850393D01*
X180123255Y-117850396D01*
X180206917Y-117991862D01*
X180211702Y-117998031D01*
X180209256Y-117999927D01*
X180235857Y-118048642D01*
X180230873Y-118118334D01*
X180210069Y-118150703D01*
X180211702Y-118151969D01*
X180206917Y-118158137D01*
X180123255Y-118299603D01*
X180123254Y-118299606D01*
X180077402Y-118457426D01*
X180077401Y-118457432D01*
X180074500Y-118494298D01*
X180074500Y-118925701D01*
X180077401Y-118962567D01*
X180077402Y-118962573D01*
X180123254Y-119120393D01*
X180123255Y-119120396D01*
X180123256Y-119120398D01*
X180127446Y-119127483D01*
X180206917Y-119261862D01*
X180211702Y-119268031D01*
X180209256Y-119269927D01*
X180235857Y-119318642D01*
X180230873Y-119388334D01*
X180210069Y-119420703D01*
X180211702Y-119421969D01*
X180206917Y-119428137D01*
X180123255Y-119569603D01*
X180123254Y-119569606D01*
X180077402Y-119727426D01*
X180077401Y-119727432D01*
X180074500Y-119764298D01*
X180074500Y-120195701D01*
X180077401Y-120232567D01*
X180077402Y-120232573D01*
X180123254Y-120390393D01*
X180123255Y-120390396D01*
X180123256Y-120390398D01*
X180147054Y-120430639D01*
X180206917Y-120531862D01*
X180206923Y-120531870D01*
X180323129Y-120648076D01*
X180323133Y-120648079D01*
X180323135Y-120648081D01*
X180464602Y-120731744D01*
X180506224Y-120743836D01*
X180622426Y-120777597D01*
X180622429Y-120777597D01*
X180622431Y-120777598D01*
X180659306Y-120780500D01*
X181449903Y-120780500D01*
X181479343Y-120789144D01*
X181509330Y-120795668D01*
X181514345Y-120799422D01*
X181516942Y-120800185D01*
X181537584Y-120816819D01*
X181713181Y-120992416D01*
X181746666Y-121053739D01*
X181749500Y-121080097D01*
X181749500Y-122275500D01*
X181729815Y-122342539D01*
X181677011Y-122388294D01*
X181625502Y-122399500D01*
X181549999Y-122399500D01*
X181549980Y-122399501D01*
X181447203Y-122410000D01*
X181447200Y-122410001D01*
X181280668Y-122465185D01*
X181280663Y-122465187D01*
X181131342Y-122557289D01*
X181007289Y-122681342D01*
X180915187Y-122830663D01*
X180915185Y-122830668D01*
X180894160Y-122894119D01*
X180860001Y-122997203D01*
X180860001Y-122997204D01*
X180860000Y-122997204D01*
X180849500Y-123099983D01*
X180849500Y-123375499D01*
X180829815Y-123442538D01*
X180777011Y-123488293D01*
X180725500Y-123499499D01*
X180720943Y-123499499D01*
X180641010Y-123520917D01*
X180568216Y-123540422D01*
X180535038Y-123559578D01*
X180535037Y-123559577D01*
X180431287Y-123619477D01*
X180431282Y-123619481D01*
X179519481Y-124531282D01*
X179519480Y-124531284D01*
X179479519Y-124600500D01*
X179469361Y-124618094D01*
X179469359Y-124618096D01*
X179440425Y-124668209D01*
X179440424Y-124668210D01*
X179440423Y-124668215D01*
X179399499Y-124820943D01*
X179399499Y-124820945D01*
X179399499Y-124989046D01*
X179399500Y-124989059D01*
X179399500Y-125025500D01*
X179379815Y-125092539D01*
X179327011Y-125138294D01*
X179275501Y-125149500D01*
X179074999Y-125149500D01*
X179074980Y-125149501D01*
X178972203Y-125160000D01*
X178972200Y-125160001D01*
X178805668Y-125215185D01*
X178805663Y-125215187D01*
X178656342Y-125307289D01*
X178532289Y-125431342D01*
X178440187Y-125580663D01*
X178440185Y-125580668D01*
X178419630Y-125642701D01*
X178385001Y-125747203D01*
X178385001Y-125747204D01*
X178385000Y-125747204D01*
X178374500Y-125849983D01*
X178374500Y-126450001D01*
X178374501Y-126450019D01*
X178385000Y-126552796D01*
X178385001Y-126552799D01*
X178433780Y-126700001D01*
X178440186Y-126719334D01*
X178532288Y-126868656D01*
X178656344Y-126992712D01*
X178659628Y-126994737D01*
X178659653Y-126994753D01*
X178661445Y-126996746D01*
X178662011Y-126997193D01*
X178661934Y-126997289D01*
X178706379Y-127046699D01*
X178717603Y-127115661D01*
X178689761Y-127179744D01*
X178659665Y-127205826D01*
X178656660Y-127207679D01*
X178656655Y-127207683D01*
X178532684Y-127331654D01*
X178440643Y-127480875D01*
X178440641Y-127480880D01*
X178385494Y-127647302D01*
X178385493Y-127647309D01*
X178375000Y-127750013D01*
X178375000Y-127800000D01*
X180824999Y-127800000D01*
X180824999Y-127750028D01*
X180824998Y-127750013D01*
X180814505Y-127647302D01*
X180759358Y-127480880D01*
X180759356Y-127480875D01*
X180667315Y-127331654D01*
X180543344Y-127207683D01*
X180543341Y-127207681D01*
X180540339Y-127205829D01*
X180538713Y-127204021D01*
X180537677Y-127203202D01*
X180537817Y-127203024D01*
X180493617Y-127153880D01*
X180482397Y-127084917D01*
X180510243Y-127020836D01*
X180540344Y-126994754D01*
X180543656Y-126992712D01*
X180667712Y-126868656D01*
X180759814Y-126719334D01*
X180814999Y-126552797D01*
X180825500Y-126450009D01*
X180825499Y-125849992D01*
X180823524Y-125830661D01*
X180814999Y-125747203D01*
X180814998Y-125747200D01*
X180770922Y-125614188D01*
X180761823Y-125586731D01*
X180759422Y-125516905D01*
X180795154Y-125456863D01*
X180857674Y-125425670D01*
X180927133Y-125433230D01*
X180981479Y-125477143D01*
X180985068Y-125482632D01*
X181007288Y-125518656D01*
X181131344Y-125642712D01*
X181280666Y-125734814D01*
X181447203Y-125789999D01*
X181549991Y-125800500D01*
X183150008Y-125800499D01*
X183252797Y-125789999D01*
X183419334Y-125734814D01*
X183568656Y-125642712D01*
X183692712Y-125518656D01*
X183784814Y-125369334D01*
X183839999Y-125202797D01*
X183850500Y-125100009D01*
X183850499Y-123099992D01*
X183849980Y-123094916D01*
X183839999Y-122997203D01*
X183839998Y-122997200D01*
X183822275Y-122943716D01*
X183784814Y-122830666D01*
X183692712Y-122681344D01*
X183568656Y-122557288D01*
X183450427Y-122484364D01*
X183419336Y-122465187D01*
X183419331Y-122465185D01*
X183417862Y-122464698D01*
X183252797Y-122410001D01*
X183252795Y-122410000D01*
X183150016Y-122399500D01*
X183150009Y-122399500D01*
X183074500Y-122399500D01*
X183007461Y-122379815D01*
X182961706Y-122327011D01*
X182950500Y-122275500D01*
X182950500Y-120869059D01*
X182950501Y-120869046D01*
X182950501Y-120700945D01*
X182950501Y-120700943D01*
X182914908Y-120568110D01*
X182916571Y-120498266D01*
X182927949Y-120472904D01*
X182976744Y-120390398D01*
X183022598Y-120232569D01*
X183025500Y-120195694D01*
X183025500Y-119764306D01*
X183022598Y-119727431D01*
X182994664Y-119631284D01*
X182976745Y-119569606D01*
X182976744Y-119569603D01*
X182976744Y-119569602D01*
X182893081Y-119428135D01*
X182893078Y-119428132D01*
X182888298Y-119421969D01*
X182890750Y-119420066D01*
X182864155Y-119371421D01*
X182869104Y-119301726D01*
X182882406Y-119275810D01*
X182889117Y-119265828D01*
X182893081Y-119261865D01*
X182902563Y-119245830D01*
X182904557Y-119242866D01*
X182928785Y-119222737D01*
X182951792Y-119201254D01*
X182955443Y-119200589D01*
X182958299Y-119198217D01*
X182989553Y-119194383D01*
X183020533Y-119188747D01*
X183023965Y-119190162D01*
X183027649Y-119189711D01*
X183056011Y-119203381D01*
X183085123Y-119215390D01*
X183089998Y-119219763D01*
X183090589Y-119220048D01*
X183090923Y-119220592D01*
X183095140Y-119224375D01*
X183463181Y-119592416D01*
X183496666Y-119653739D01*
X183499500Y-119680097D01*
X183499500Y-121293330D01*
X183499499Y-121293348D01*
X183499499Y-121459054D01*
X183499498Y-121459054D01*
X183540423Y-121611785D01*
X183569358Y-121661900D01*
X183569359Y-121661904D01*
X183569360Y-121661904D01*
X183619479Y-121748714D01*
X183619481Y-121748717D01*
X183738349Y-121867585D01*
X183738355Y-121867590D01*
X184582569Y-122711804D01*
X184616054Y-122773127D01*
X184612594Y-122838487D01*
X184577725Y-122943716D01*
X184560001Y-122997203D01*
X184560000Y-122997204D01*
X184549500Y-123099983D01*
X184549500Y-125100001D01*
X184549501Y-125100018D01*
X184560000Y-125202796D01*
X184560001Y-125202799D01*
X184613462Y-125364132D01*
X184615186Y-125369334D01*
X184707288Y-125518656D01*
X184831344Y-125642712D01*
X184980666Y-125734814D01*
X185147203Y-125789999D01*
X185249991Y-125800500D01*
X186850008Y-125800499D01*
X186952797Y-125789999D01*
X187119334Y-125734814D01*
X187268656Y-125642712D01*
X187268670Y-125642698D01*
X187268680Y-125642692D01*
X187274319Y-125638234D01*
X187275080Y-125639197D01*
X187329985Y-125609210D01*
X187399677Y-125614188D01*
X187455615Y-125656054D01*
X187480038Y-125721516D01*
X187465193Y-125789790D01*
X187461895Y-125795469D01*
X187458793Y-125800499D01*
X187440186Y-125830666D01*
X187385001Y-125997203D01*
X187385001Y-125997204D01*
X187385000Y-125997204D01*
X187374500Y-126099983D01*
X187374500Y-126700001D01*
X187374501Y-126700019D01*
X187385000Y-126802796D01*
X187385001Y-126802799D01*
X187440185Y-126969331D01*
X187440187Y-126969336D01*
X187455862Y-126994749D01*
X187532288Y-127118656D01*
X187656344Y-127242712D01*
X187659628Y-127244737D01*
X187659653Y-127244753D01*
X187661445Y-127246746D01*
X187662011Y-127247193D01*
X187661934Y-127247289D01*
X187706379Y-127296699D01*
X187717603Y-127365661D01*
X187689761Y-127429744D01*
X187659665Y-127455826D01*
X187656660Y-127457679D01*
X187656655Y-127457683D01*
X187532684Y-127581654D01*
X187440643Y-127730875D01*
X187440641Y-127730880D01*
X187385494Y-127897302D01*
X187385493Y-127897309D01*
X187375000Y-128000013D01*
X187375000Y-128050000D01*
X189824999Y-128050000D01*
X189824999Y-128000028D01*
X189824998Y-128000013D01*
X189814505Y-127897302D01*
X189759358Y-127730880D01*
X189759356Y-127730875D01*
X189667315Y-127581654D01*
X189543344Y-127457683D01*
X189543341Y-127457681D01*
X189540339Y-127455829D01*
X189538713Y-127454021D01*
X189537677Y-127453202D01*
X189537817Y-127453024D01*
X189493617Y-127403880D01*
X189482397Y-127334917D01*
X189510243Y-127270836D01*
X189540344Y-127244754D01*
X189543656Y-127242712D01*
X189667712Y-127118656D01*
X189759814Y-126969334D01*
X189814999Y-126802797D01*
X189825500Y-126700009D01*
X189825499Y-126099992D01*
X189814999Y-125997203D01*
X189759814Y-125830666D01*
X189667712Y-125681344D01*
X189543656Y-125557288D01*
X189422620Y-125482633D01*
X189394336Y-125465187D01*
X189394331Y-125465185D01*
X189369217Y-125456863D01*
X189227797Y-125410001D01*
X189227795Y-125410000D01*
X189125016Y-125399500D01*
X189125009Y-125399500D01*
X188924500Y-125399500D01*
X188857461Y-125379815D01*
X188811706Y-125327011D01*
X188800500Y-125275500D01*
X188800500Y-124989059D01*
X188800501Y-124989046D01*
X188800501Y-124820945D01*
X188800501Y-124820943D01*
X188759577Y-124668215D01*
X188730639Y-124618095D01*
X188680520Y-124531284D01*
X188568716Y-124419480D01*
X188568715Y-124419479D01*
X188564385Y-124415149D01*
X188564374Y-124415139D01*
X188049221Y-123899986D01*
X191895001Y-123899986D01*
X191905494Y-124002697D01*
X191960641Y-124169119D01*
X191960643Y-124169124D01*
X192052684Y-124318345D01*
X192176654Y-124442315D01*
X192325875Y-124534356D01*
X192325880Y-124534358D01*
X192492302Y-124589505D01*
X192492309Y-124589506D01*
X192595019Y-124599999D01*
X192657499Y-124599998D01*
X192657500Y-124599998D01*
X192657500Y-123650000D01*
X191895001Y-123650000D01*
X191895001Y-123899986D01*
X188049221Y-123899986D01*
X187887589Y-123738354D01*
X187880520Y-123731285D01*
X187880520Y-123731284D01*
X187768716Y-123619480D01*
X187664960Y-123559577D01*
X187631785Y-123540423D01*
X187626910Y-123539116D01*
X187615642Y-123533040D01*
X187595122Y-123512733D01*
X187572639Y-123494614D01*
X187570590Y-123488457D01*
X187565979Y-123483894D01*
X187559694Y-123455713D01*
X187550578Y-123428319D01*
X187550499Y-123423899D01*
X187550499Y-123099998D01*
X187550498Y-123099981D01*
X187539999Y-122997203D01*
X187539998Y-122997200D01*
X187519675Y-122935868D01*
X187507793Y-122900013D01*
X191895000Y-122900013D01*
X191895000Y-123150000D01*
X192657500Y-123150000D01*
X192657500Y-122200000D01*
X192657499Y-122199999D01*
X192595028Y-122200000D01*
X192595011Y-122200001D01*
X192492302Y-122210494D01*
X192325880Y-122265641D01*
X192325875Y-122265643D01*
X192176654Y-122357684D01*
X192052684Y-122481654D01*
X191960643Y-122630875D01*
X191960641Y-122630880D01*
X191905494Y-122797302D01*
X191905493Y-122797309D01*
X191895000Y-122900013D01*
X187507793Y-122900013D01*
X187505912Y-122894336D01*
X187484814Y-122830666D01*
X187392712Y-122681344D01*
X187268656Y-122557288D01*
X187150427Y-122484364D01*
X187119336Y-122465187D01*
X187119331Y-122465185D01*
X187117862Y-122464698D01*
X186952797Y-122410001D01*
X186952795Y-122410000D01*
X186850016Y-122399500D01*
X186850009Y-122399500D01*
X186020097Y-122399500D01*
X185953058Y-122379815D01*
X185932416Y-122363181D01*
X184736819Y-121167584D01*
X184703334Y-121106261D01*
X184700500Y-121079903D01*
X184700500Y-119469059D01*
X184700501Y-119469046D01*
X184700501Y-119300945D01*
X184700501Y-119300943D01*
X184659577Y-119148215D01*
X184620606Y-119080716D01*
X184620606Y-119080715D01*
X184580522Y-119011287D01*
X184580521Y-119011286D01*
X184580520Y-119011284D01*
X184468716Y-118899480D01*
X184468715Y-118899479D01*
X184464385Y-118895149D01*
X184464374Y-118895139D01*
X183787590Y-118218355D01*
X183780521Y-118211286D01*
X183780520Y-118211284D01*
X183757370Y-118188134D01*
X183723888Y-118126813D01*
X183727143Y-118081319D01*
X183728873Y-118057123D01*
X183770745Y-118001190D01*
X183770745Y-118001189D01*
X183770746Y-118001189D01*
X183770747Y-118001188D01*
X183783048Y-117993073D01*
X183830040Y-117965943D01*
X183908716Y-117920520D01*
X184020520Y-117808716D01*
X184020520Y-117808715D01*
X184037948Y-117791287D01*
X184037953Y-117791280D01*
X184280520Y-117548716D01*
X184359577Y-117411784D01*
X184400501Y-117259057D01*
X184400501Y-117100942D01*
X184400501Y-117093347D01*
X184400500Y-117093329D01*
X184400500Y-116294500D01*
X184420185Y-116227461D01*
X184472989Y-116181706D01*
X184524500Y-116170500D01*
X184900500Y-116170500D01*
X184967539Y-116190185D01*
X185013294Y-116242989D01*
X185024500Y-116294500D01*
X185024500Y-116385701D01*
X185027401Y-116422567D01*
X185027402Y-116422573D01*
X185073254Y-116580393D01*
X185073255Y-116580396D01*
X185073256Y-116580398D01*
X185092571Y-116613058D01*
X185156917Y-116721862D01*
X185161702Y-116728031D01*
X185159256Y-116729927D01*
X185185857Y-116778642D01*
X185180873Y-116848334D01*
X185160069Y-116880703D01*
X185161702Y-116881969D01*
X185156917Y-116888137D01*
X185073255Y-117029603D01*
X185073254Y-117029606D01*
X185027402Y-117187426D01*
X185027401Y-117187432D01*
X185024500Y-117224298D01*
X185024500Y-117655701D01*
X185027401Y-117692567D01*
X185027402Y-117692573D01*
X185073254Y-117850393D01*
X185073255Y-117850396D01*
X185156917Y-117991862D01*
X185161702Y-117998031D01*
X185159256Y-117999927D01*
X185185857Y-118048642D01*
X185180873Y-118118334D01*
X185160069Y-118150703D01*
X185161702Y-118151969D01*
X185156917Y-118158137D01*
X185073255Y-118299603D01*
X185073254Y-118299606D01*
X185027402Y-118457426D01*
X185027401Y-118457432D01*
X185024500Y-118494298D01*
X185024500Y-118925701D01*
X185027401Y-118962567D01*
X185027402Y-118962573D01*
X185073254Y-119120393D01*
X185073255Y-119120396D01*
X185073256Y-119120398D01*
X185077446Y-119127483D01*
X185156917Y-119261862D01*
X185161702Y-119268031D01*
X185159256Y-119269927D01*
X185185857Y-119318642D01*
X185180873Y-119388334D01*
X185160069Y-119420703D01*
X185161702Y-119421969D01*
X185156917Y-119428137D01*
X185073255Y-119569603D01*
X185073254Y-119569606D01*
X185027402Y-119727426D01*
X185027401Y-119727432D01*
X185024500Y-119764298D01*
X185024500Y-120195701D01*
X185027401Y-120232567D01*
X185027402Y-120232573D01*
X185073254Y-120390393D01*
X185073255Y-120390396D01*
X185073256Y-120390398D01*
X185097054Y-120430639D01*
X185156917Y-120531862D01*
X185156923Y-120531870D01*
X185273129Y-120648076D01*
X185273133Y-120648079D01*
X185273135Y-120648081D01*
X185414602Y-120731744D01*
X185456224Y-120743836D01*
X185572426Y-120777597D01*
X185572429Y-120777597D01*
X185572431Y-120777598D01*
X185609306Y-120780500D01*
X185609314Y-120780500D01*
X187390686Y-120780500D01*
X187390694Y-120780500D01*
X187427569Y-120777598D01*
X187427571Y-120777597D01*
X187427573Y-120777597D01*
X187469191Y-120765505D01*
X187585398Y-120731744D01*
X187726865Y-120648081D01*
X187843081Y-120531865D01*
X187926744Y-120390398D01*
X187972598Y-120232569D01*
X187975500Y-120195694D01*
X187975500Y-119764306D01*
X187972598Y-119727431D01*
X187944664Y-119631284D01*
X187926745Y-119569606D01*
X187926744Y-119569603D01*
X187926744Y-119569602D01*
X187843081Y-119428135D01*
X187843078Y-119428132D01*
X187838298Y-119421969D01*
X187840750Y-119420066D01*
X187814155Y-119371421D01*
X187819104Y-119301726D01*
X187839940Y-119269304D01*
X187838298Y-119268031D01*
X187843075Y-119261870D01*
X187843081Y-119261865D01*
X187926744Y-119120398D01*
X187972598Y-118962569D01*
X187975500Y-118925694D01*
X187975500Y-118916262D01*
X192350000Y-118916262D01*
X192363999Y-118936813D01*
X192370000Y-118974923D01*
X192370000Y-119067844D01*
X192376401Y-119127372D01*
X192376403Y-119127379D01*
X192426645Y-119262086D01*
X192426649Y-119262093D01*
X192512809Y-119377187D01*
X192512812Y-119377190D01*
X192627906Y-119463350D01*
X192627913Y-119463354D01*
X192762620Y-119513596D01*
X192762627Y-119513598D01*
X192822155Y-119519999D01*
X192822172Y-119520000D01*
X192920000Y-119520000D01*
X192920000Y-118545000D01*
X192350000Y-118545000D01*
X192350000Y-118916262D01*
X187975500Y-118916262D01*
X187975500Y-118494306D01*
X187972598Y-118457431D01*
X187963266Y-118425312D01*
X187926745Y-118299606D01*
X187926744Y-118299603D01*
X187926744Y-118299602D01*
X187843081Y-118158135D01*
X187843078Y-118158132D01*
X187838298Y-118151969D01*
X187840750Y-118150066D01*
X187814155Y-118101421D01*
X187819104Y-118031726D01*
X187839940Y-117999304D01*
X187838298Y-117998031D01*
X187843075Y-117991870D01*
X187843081Y-117991865D01*
X187926744Y-117850398D01*
X187972598Y-117692569D01*
X187975500Y-117655694D01*
X187975500Y-117224306D01*
X187972598Y-117187431D01*
X187962575Y-117152933D01*
X187926745Y-117029606D01*
X187926744Y-117029603D01*
X187926744Y-117029602D01*
X187843081Y-116888135D01*
X187843078Y-116888132D01*
X187838298Y-116881969D01*
X187840750Y-116880066D01*
X187814155Y-116831421D01*
X187819104Y-116761726D01*
X187839940Y-116729304D01*
X187838298Y-116728031D01*
X187843075Y-116721870D01*
X187843081Y-116721865D01*
X187926744Y-116580398D01*
X187972598Y-116422569D01*
X187975500Y-116385694D01*
X187975500Y-116302746D01*
X187995185Y-116235707D01*
X188047989Y-116189952D01*
X188115694Y-116179808D01*
X188120938Y-116180498D01*
X188120943Y-116180500D01*
X191101060Y-116180500D01*
X191168099Y-116200185D01*
X191213854Y-116252989D01*
X191223798Y-116322147D01*
X191215621Y-116351953D01*
X191138429Y-116538310D01*
X191138427Y-116538318D01*
X191100000Y-116731504D01*
X191100000Y-117130000D01*
X191800000Y-117130000D01*
X191800000Y-117630000D01*
X191100000Y-117630000D01*
X191100000Y-118028495D01*
X191138427Y-118221681D01*
X191138430Y-118221693D01*
X191213807Y-118403671D01*
X191213814Y-118403684D01*
X191323248Y-118567462D01*
X191323251Y-118567466D01*
X191462533Y-118706748D01*
X191462537Y-118706751D01*
X191626315Y-118816185D01*
X191626328Y-118816192D01*
X191808308Y-118891569D01*
X191850000Y-118899862D01*
X191850000Y-118096988D01*
X191859940Y-118114205D01*
X191915795Y-118170060D01*
X191984204Y-118209556D01*
X192060504Y-118230000D01*
X192139496Y-118230000D01*
X192215796Y-118209556D01*
X192284205Y-118170060D01*
X192340060Y-118114205D01*
X192379556Y-118045796D01*
X192379769Y-118045000D01*
X193045500Y-118045000D01*
X193112539Y-118064685D01*
X193158294Y-118117489D01*
X193169500Y-118169000D01*
X193169500Y-119067870D01*
X193169501Y-119067876D01*
X193175908Y-119127483D01*
X193226202Y-119262328D01*
X193226203Y-119262329D01*
X193226204Y-119262331D01*
X193312454Y-119377546D01*
X193370311Y-119420858D01*
X193412182Y-119476789D01*
X193419972Y-119519972D01*
X193420000Y-119520000D01*
X193517819Y-119520000D01*
X193517833Y-119519999D01*
X193554395Y-119516068D01*
X193580905Y-119516068D01*
X193622127Y-119520500D01*
X194008000Y-119520499D01*
X194075039Y-119540183D01*
X194120794Y-119592987D01*
X194132000Y-119644499D01*
X194132000Y-122207491D01*
X194131603Y-122208842D01*
X194131970Y-122210202D01*
X194121788Y-122242266D01*
X194112315Y-122274530D01*
X194111113Y-122275886D01*
X194110825Y-122276795D01*
X194107365Y-122280117D01*
X194087134Y-122302957D01*
X194080461Y-122308488D01*
X194001344Y-122357288D01*
X193903240Y-122455391D01*
X193898780Y-122459089D01*
X193871793Y-122470707D01*
X193846003Y-122484789D01*
X193840069Y-122484364D01*
X193834605Y-122486717D01*
X193805623Y-122481901D01*
X193776312Y-122479805D01*
X193770489Y-122476063D01*
X193765681Y-122475264D01*
X193756963Y-122467370D01*
X193731965Y-122451304D01*
X193638345Y-122357684D01*
X193489124Y-122265643D01*
X193489119Y-122265641D01*
X193322697Y-122210494D01*
X193322690Y-122210493D01*
X193219986Y-122200000D01*
X193157500Y-122200000D01*
X193157500Y-124599999D01*
X193219972Y-124599999D01*
X193219986Y-124599998D01*
X193322697Y-124589505D01*
X193489119Y-124534358D01*
X193489124Y-124534356D01*
X193638342Y-124442317D01*
X193731964Y-124348695D01*
X193793287Y-124315210D01*
X193862979Y-124320194D01*
X193907327Y-124348695D01*
X194001344Y-124442712D01*
X194150666Y-124534814D01*
X194317203Y-124589999D01*
X194419991Y-124600500D01*
X195045008Y-124600499D01*
X195045016Y-124600498D01*
X195045019Y-124600498D01*
X195101302Y-124594748D01*
X195147797Y-124589999D01*
X195314334Y-124534814D01*
X195463656Y-124442712D01*
X195587712Y-124318656D01*
X195679814Y-124169334D01*
X195734999Y-124002797D01*
X195745500Y-123900009D01*
X195745499Y-122899992D01*
X195738417Y-122830668D01*
X195734999Y-122797203D01*
X195734998Y-122797200D01*
X195711967Y-122727697D01*
X195679814Y-122630666D01*
X195587712Y-122481344D01*
X195463656Y-122357288D01*
X195463655Y-122357287D01*
X195391902Y-122313029D01*
X195345178Y-122261081D01*
X195333000Y-122207491D01*
X195333000Y-120564441D01*
X195352685Y-120497402D01*
X195405489Y-120451647D01*
X195474647Y-120441703D01*
X195538203Y-120470728D01*
X195544681Y-120476760D01*
X195589707Y-120521786D01*
X195589711Y-120521789D01*
X195720814Y-120609390D01*
X195720827Y-120609397D01*
X195866498Y-120669735D01*
X195866503Y-120669737D01*
X196021153Y-120700499D01*
X196021156Y-120700500D01*
X196021158Y-120700500D01*
X196178844Y-120700500D01*
X196178845Y-120700499D01*
X196333497Y-120669737D01*
X196479179Y-120609394D01*
X196479185Y-120609390D01*
X196610875Y-120521398D01*
X196628921Y-120515747D01*
X196644831Y-120505523D01*
X196675792Y-120501071D01*
X196677553Y-120500520D01*
X196679766Y-120500500D01*
X196913331Y-120500500D01*
X196913347Y-120500501D01*
X196920943Y-120500501D01*
X197079054Y-120500501D01*
X197079057Y-120500501D01*
X197231785Y-120459577D01*
X197281904Y-120430639D01*
X197368716Y-120380520D01*
X197480520Y-120268716D01*
X197512417Y-120236819D01*
X197573740Y-120203334D01*
X197600098Y-120200500D01*
X197699057Y-120200500D01*
X197895500Y-120200500D01*
X197962539Y-120220185D01*
X198008294Y-120272989D01*
X198019500Y-120324500D01*
X198019500Y-122075500D01*
X197999815Y-122142539D01*
X197947011Y-122188294D01*
X197895500Y-122199500D01*
X197482498Y-122199500D01*
X197482480Y-122199501D01*
X197379703Y-122210000D01*
X197379700Y-122210001D01*
X197213168Y-122265185D01*
X197213163Y-122265187D01*
X197063842Y-122357289D01*
X196939789Y-122481342D01*
X196847687Y-122630663D01*
X196847685Y-122630668D01*
X196830893Y-122681344D01*
X196792501Y-122797203D01*
X196792501Y-122797204D01*
X196792500Y-122797204D01*
X196782000Y-122899983D01*
X196782000Y-123900001D01*
X196782001Y-123900019D01*
X196792500Y-124002796D01*
X196792501Y-124002799D01*
X196847685Y-124169331D01*
X196847687Y-124169336D01*
X196860432Y-124189999D01*
X196939788Y-124318656D01*
X197063844Y-124442712D01*
X197213166Y-124534814D01*
X197379703Y-124589999D01*
X197482491Y-124600500D01*
X198107508Y-124600499D01*
X198107516Y-124600498D01*
X198107519Y-124600498D01*
X198163802Y-124594748D01*
X198210297Y-124589999D01*
X198376834Y-124534814D01*
X198526156Y-124442712D01*
X198620175Y-124348692D01*
X198681494Y-124315210D01*
X198751186Y-124320194D01*
X198795534Y-124348695D01*
X198889154Y-124442315D01*
X199038375Y-124534356D01*
X199038380Y-124534358D01*
X199204802Y-124589505D01*
X199204809Y-124589506D01*
X199307519Y-124599999D01*
X199870000Y-124599999D01*
X199932472Y-124599999D01*
X199932486Y-124599998D01*
X200035197Y-124589505D01*
X200201619Y-124534358D01*
X200201624Y-124534356D01*
X200350845Y-124442315D01*
X200474815Y-124318345D01*
X200566856Y-124169124D01*
X200566858Y-124169119D01*
X200622005Y-124002697D01*
X200622006Y-124002690D01*
X200632499Y-123899986D01*
X200632500Y-123899973D01*
X200632500Y-123650000D01*
X199870000Y-123650000D01*
X199870000Y-124599999D01*
X199307519Y-124599999D01*
X199369999Y-124599998D01*
X199370000Y-124599998D01*
X199370000Y-123150000D01*
X199870000Y-123150000D01*
X200632499Y-123150000D01*
X200632499Y-122900028D01*
X200632498Y-122900013D01*
X200622005Y-122797302D01*
X200566858Y-122630880D01*
X200566856Y-122630875D01*
X200474815Y-122481654D01*
X200350845Y-122357684D01*
X200201624Y-122265643D01*
X200201619Y-122265641D01*
X200035197Y-122210494D01*
X200035190Y-122210493D01*
X199932486Y-122200000D01*
X199870000Y-122200000D01*
X199870000Y-123150000D01*
X199370000Y-123150000D01*
X199370000Y-122226251D01*
X199290310Y-122187532D01*
X199284715Y-122182445D01*
X199277462Y-122180316D01*
X199259221Y-122159266D01*
X199238613Y-122140529D01*
X199236656Y-122133226D01*
X199231706Y-122127513D01*
X199220500Y-122076000D01*
X199220500Y-119920945D01*
X199220500Y-119920943D01*
X199179577Y-119768216D01*
X199142377Y-119703784D01*
X199125905Y-119635885D01*
X199148758Y-119569858D01*
X199203679Y-119526667D01*
X199236511Y-119518495D01*
X199277483Y-119514091D01*
X199412331Y-119463796D01*
X199527546Y-119377546D01*
X199613796Y-119262331D01*
X199664091Y-119127483D01*
X199670500Y-119067873D01*
X199670499Y-118538103D01*
X199690183Y-118471067D01*
X199742987Y-118425312D01*
X199812146Y-118415368D01*
X199875702Y-118444393D01*
X199897601Y-118469215D01*
X199963248Y-118567462D01*
X199963251Y-118567466D01*
X200102533Y-118706748D01*
X200102537Y-118706751D01*
X200266315Y-118816185D01*
X200266328Y-118816192D01*
X200448308Y-118891569D01*
X200490000Y-118899862D01*
X200490000Y-118096988D01*
X200499940Y-118114205D01*
X200555795Y-118170060D01*
X200624204Y-118209556D01*
X200700504Y-118230000D01*
X200779496Y-118230000D01*
X200855796Y-118209556D01*
X200924205Y-118170060D01*
X200980060Y-118114205D01*
X200990000Y-118096988D01*
X200990000Y-118899862D01*
X201031690Y-118891569D01*
X201031692Y-118891569D01*
X201213671Y-118816192D01*
X201213678Y-118816188D01*
X201306608Y-118754094D01*
X201373286Y-118733216D01*
X201440666Y-118751700D01*
X201487357Y-118803679D01*
X201499500Y-118857196D01*
X201499500Y-128934646D01*
X201479815Y-129001685D01*
X201461573Y-129023907D01*
X199033516Y-131365247D01*
X198971594Y-131397611D01*
X198947683Y-131399986D01*
X168818990Y-131458288D01*
X168751913Y-131438733D01*
X168706056Y-131386018D01*
X168694756Y-131335446D01*
X168667027Y-128349986D01*
X178375001Y-128349986D01*
X178385494Y-128452697D01*
X178440641Y-128619119D01*
X178440643Y-128619124D01*
X178532684Y-128768345D01*
X178656654Y-128892315D01*
X178805875Y-128984356D01*
X178805880Y-128984358D01*
X178972302Y-129039505D01*
X178972309Y-129039506D01*
X179075019Y-129049999D01*
X179349999Y-129049999D01*
X179850000Y-129049999D01*
X180124972Y-129049999D01*
X180124986Y-129049998D01*
X180227697Y-129039505D01*
X180394119Y-128984358D01*
X180394124Y-128984356D01*
X180543345Y-128892315D01*
X180667315Y-128768345D01*
X180759356Y-128619124D01*
X180759358Y-128619119D01*
X180765698Y-128599986D01*
X187375001Y-128599986D01*
X187385494Y-128702697D01*
X187440641Y-128869119D01*
X187440643Y-128869124D01*
X187532684Y-129018345D01*
X187656654Y-129142315D01*
X187805875Y-129234356D01*
X187805880Y-129234358D01*
X187972302Y-129289505D01*
X187972309Y-129289506D01*
X188075019Y-129299999D01*
X188349999Y-129299999D01*
X188850000Y-129299999D01*
X189124972Y-129299999D01*
X189124986Y-129299998D01*
X189227697Y-129289505D01*
X189394119Y-129234358D01*
X189394124Y-129234356D01*
X189543345Y-129142315D01*
X189667315Y-129018345D01*
X189759356Y-128869124D01*
X189759358Y-128869119D01*
X189814505Y-128702697D01*
X189814506Y-128702690D01*
X189824999Y-128599986D01*
X189825000Y-128599973D01*
X189825000Y-128550000D01*
X188850000Y-128550000D01*
X188850000Y-129299999D01*
X188349999Y-129299999D01*
X188350000Y-129299998D01*
X188350000Y-128550000D01*
X187375001Y-128550000D01*
X187375001Y-128599986D01*
X180765698Y-128599986D01*
X180812207Y-128459634D01*
X180814504Y-128452699D01*
X180814506Y-128452690D01*
X180824999Y-128349986D01*
X180825000Y-128349973D01*
X180825000Y-128300000D01*
X179850000Y-128300000D01*
X179850000Y-129049999D01*
X179349999Y-129049999D01*
X179350000Y-129049998D01*
X179350000Y-128300000D01*
X178375001Y-128300000D01*
X178375001Y-128349986D01*
X168667027Y-128349986D01*
X168607841Y-121977583D01*
X168626902Y-121910365D01*
X168679279Y-121864122D01*
X168748342Y-121853537D01*
X168812165Y-121881970D01*
X168819517Y-121888752D01*
X170025681Y-123094916D01*
X170059166Y-123156239D01*
X170062000Y-123182597D01*
X170062000Y-123500000D01*
X170062001Y-123500019D01*
X170072500Y-123602796D01*
X170072501Y-123602799D01*
X170100177Y-123686318D01*
X170127686Y-123769334D01*
X170219788Y-123918656D01*
X170343844Y-124042712D01*
X170493166Y-124134814D01*
X170659703Y-124189999D01*
X170762491Y-124200500D01*
X171387508Y-124200499D01*
X171387516Y-124200498D01*
X171387519Y-124200498D01*
X171443802Y-124194748D01*
X171490297Y-124189999D01*
X171656834Y-124134814D01*
X171806156Y-124042712D01*
X171899819Y-123949049D01*
X171961142Y-123915564D01*
X172030834Y-123920548D01*
X172075181Y-123949049D01*
X172168844Y-124042712D01*
X172318166Y-124134814D01*
X172484703Y-124189999D01*
X172587491Y-124200500D01*
X173212508Y-124200499D01*
X173212516Y-124200498D01*
X173212519Y-124200498D01*
X173268802Y-124194748D01*
X173315297Y-124189999D01*
X173481834Y-124134814D01*
X173631156Y-124042712D01*
X173755212Y-123918656D01*
X173847314Y-123769334D01*
X173902499Y-123602797D01*
X173913000Y-123500009D01*
X173912999Y-122624986D01*
X174700001Y-122624986D01*
X174710494Y-122727697D01*
X174765641Y-122894119D01*
X174765643Y-122894124D01*
X174857684Y-123043345D01*
X174981654Y-123167315D01*
X175130875Y-123259356D01*
X175130880Y-123259358D01*
X175297302Y-123314505D01*
X175297309Y-123314506D01*
X175400019Y-123324999D01*
X175449999Y-123324998D01*
X175450000Y-123324998D01*
X175450000Y-122350000D01*
X174700001Y-122350000D01*
X174700001Y-122624986D01*
X173912999Y-122624986D01*
X173912999Y-122499992D01*
X173912585Y-122495943D01*
X173902499Y-122397203D01*
X173891225Y-122363181D01*
X173847314Y-122230666D01*
X173755212Y-122081344D01*
X173631156Y-121957288D01*
X173631155Y-121957287D01*
X173559402Y-121913029D01*
X173552578Y-121905442D01*
X173543297Y-121901204D01*
X173529609Y-121879905D01*
X173512678Y-121861081D01*
X173510033Y-121849444D01*
X173505523Y-121842426D01*
X173500500Y-121807491D01*
X173500500Y-121575013D01*
X174700000Y-121575013D01*
X174700000Y-121850000D01*
X175450000Y-121850000D01*
X175450000Y-120875000D01*
X175449999Y-120874999D01*
X175400029Y-120875000D01*
X175400011Y-120875001D01*
X175297302Y-120885494D01*
X175130880Y-120940641D01*
X175130875Y-120940643D01*
X174981654Y-121032684D01*
X174857684Y-121156654D01*
X174765643Y-121305875D01*
X174765641Y-121305880D01*
X174710494Y-121472302D01*
X174710493Y-121472309D01*
X174700000Y-121575013D01*
X173500500Y-121575013D01*
X173500500Y-121300096D01*
X173520185Y-121233057D01*
X173536814Y-121212420D01*
X176458506Y-118290727D01*
X176458511Y-118290724D01*
X176468714Y-118280520D01*
X176468716Y-118280520D01*
X176580520Y-118168716D01*
X176659577Y-118031784D01*
X176700500Y-117879057D01*
X176700500Y-117572507D01*
X176703375Y-117562715D01*
X176702110Y-117552589D01*
X176713052Y-117529757D01*
X176720185Y-117505468D01*
X176728700Y-117497108D01*
X176732308Y-117489582D01*
X176759401Y-117466969D01*
X176810405Y-117435510D01*
X176877797Y-117417072D01*
X176944461Y-117437996D01*
X176989229Y-117491638D01*
X176999500Y-117541051D01*
X176999500Y-120890201D01*
X176979815Y-120957240D01*
X176940598Y-120995739D01*
X176881344Y-121032287D01*
X176757288Y-121156343D01*
X176757283Y-121156349D01*
X176755241Y-121159661D01*
X176753247Y-121161453D01*
X176752807Y-121162011D01*
X176752711Y-121161935D01*
X176703291Y-121206383D01*
X176634328Y-121217602D01*
X176570247Y-121189755D01*
X176544168Y-121159656D01*
X176542319Y-121156659D01*
X176542316Y-121156655D01*
X176418345Y-121032684D01*
X176269124Y-120940643D01*
X176269119Y-120940641D01*
X176102697Y-120885494D01*
X176102690Y-120885493D01*
X175999986Y-120875000D01*
X175950000Y-120875000D01*
X175950000Y-123324999D01*
X175999972Y-123324999D01*
X175999986Y-123324998D01*
X176102697Y-123314505D01*
X176269119Y-123259358D01*
X176269124Y-123259356D01*
X176418345Y-123167315D01*
X176542318Y-123043342D01*
X176544165Y-123040348D01*
X176545969Y-123038724D01*
X176546798Y-123037677D01*
X176546976Y-123037818D01*
X176596110Y-122993621D01*
X176665073Y-122982396D01*
X176729156Y-123010236D01*
X176755243Y-123040341D01*
X176757288Y-123043656D01*
X176881344Y-123167712D01*
X177030666Y-123259814D01*
X177197203Y-123314999D01*
X177299991Y-123325500D01*
X177900008Y-123325499D01*
X177900016Y-123325498D01*
X177900019Y-123325498D01*
X177956302Y-123319748D01*
X178002797Y-123314999D01*
X178169334Y-123259814D01*
X178318656Y-123167712D01*
X178442712Y-123043656D01*
X178534814Y-122894334D01*
X178589999Y-122727797D01*
X178600500Y-122625009D01*
X178600499Y-121574992D01*
X178589999Y-121472203D01*
X178534814Y-121305666D01*
X178442712Y-121156344D01*
X178318656Y-121032288D01*
X178318655Y-121032287D01*
X178259402Y-120995739D01*
X178212678Y-120943791D01*
X178200500Y-120890201D01*
X178200500Y-116680097D01*
X178220185Y-116613058D01*
X178236819Y-116592416D01*
X179212416Y-115616819D01*
X179273739Y-115583334D01*
X179300097Y-115580500D01*
X180011989Y-115580500D01*
X180079028Y-115600185D01*
G37*
%TD.AperFunction*%
%TA.AperFunction,Conductor*%
G36*
X169461738Y-105620185D02*
G01*
X169507493Y-105672989D01*
X169512403Y-105685492D01*
X169540186Y-105769334D01*
X169632288Y-105918656D01*
X169756344Y-106042712D01*
X169905666Y-106134814D01*
X170072203Y-106189999D01*
X170174991Y-106200500D01*
X170800008Y-106200499D01*
X170800016Y-106200498D01*
X170800019Y-106200498D01*
X170856302Y-106194748D01*
X170902797Y-106189999D01*
X171069334Y-106134814D01*
X171218656Y-106042712D01*
X171312319Y-105949049D01*
X171373642Y-105915564D01*
X171443334Y-105920548D01*
X171487681Y-105949049D01*
X171581344Y-106042712D01*
X171730666Y-106134814D01*
X171897203Y-106189999D01*
X171999991Y-106200500D01*
X172000004Y-106200499D01*
X172003140Y-106200660D01*
X172003131Y-106200820D01*
X172003133Y-106200821D01*
X172003130Y-106200844D01*
X172003099Y-106201448D01*
X172066907Y-106220162D01*
X172087583Y-106236818D01*
X175032621Y-109181856D01*
X175066106Y-109243179D01*
X175061122Y-109312871D01*
X175019250Y-109368804D01*
X174953786Y-109393221D01*
X174918986Y-109390790D01*
X174915302Y-109390001D01*
X174812510Y-109379500D01*
X174187498Y-109379500D01*
X174187480Y-109379501D01*
X174084703Y-109390000D01*
X174084700Y-109390001D01*
X173918168Y-109445185D01*
X173918163Y-109445187D01*
X173768842Y-109537289D01*
X173644789Y-109661342D01*
X173552687Y-109810663D01*
X173552685Y-109810668D01*
X173497501Y-109977203D01*
X173496387Y-109988106D01*
X173469989Y-110052797D01*
X173412807Y-110092947D01*
X173373029Y-110099500D01*
X172744539Y-110099500D01*
X172677500Y-110079815D01*
X172631745Y-110027011D01*
X172626833Y-110014504D01*
X172624716Y-110008117D01*
X172597862Y-109927075D01*
X172597858Y-109927069D01*
X172597857Y-109927066D01*
X172506528Y-109779000D01*
X172506525Y-109778996D01*
X172383503Y-109655974D01*
X172383499Y-109655971D01*
X172235433Y-109564642D01*
X172235427Y-109564639D01*
X172235425Y-109564638D01*
X172152888Y-109537288D01*
X172070276Y-109509913D01*
X171968355Y-109499500D01*
X171968348Y-109499500D01*
X171381652Y-109499500D01*
X171381644Y-109499500D01*
X171279723Y-109509913D01*
X171114577Y-109564637D01*
X171114566Y-109564642D01*
X170966500Y-109655971D01*
X170966496Y-109655974D01*
X170843474Y-109778996D01*
X170843467Y-109779005D01*
X170842734Y-109780194D01*
X170842019Y-109780836D01*
X170838993Y-109784664D01*
X170838338Y-109784146D01*
X170790780Y-109826911D01*
X170721816Y-109838123D01*
X170657738Y-109810271D01*
X170635738Y-109784877D01*
X170635612Y-109784977D01*
X170633385Y-109782161D01*
X170631663Y-109780173D01*
X170631130Y-109779309D01*
X170508191Y-109656370D01*
X170360214Y-109565096D01*
X170360209Y-109565094D01*
X170195173Y-109510407D01*
X170093315Y-109500000D01*
X170050000Y-109500000D01*
X170050000Y-111900000D01*
X170093303Y-111900000D01*
X170093315Y-111899999D01*
X170195173Y-111889592D01*
X170360209Y-111834905D01*
X170360214Y-111834903D01*
X170508191Y-111743629D01*
X170631128Y-111620692D01*
X170631659Y-111619832D01*
X170632180Y-111619363D01*
X170635612Y-111615023D01*
X170636353Y-111615608D01*
X170683601Y-111573102D01*
X170752563Y-111561872D01*
X170816648Y-111589708D01*
X170838913Y-111615398D01*
X170838993Y-111615336D01*
X170840390Y-111617103D01*
X170842738Y-111619812D01*
X170843468Y-111620995D01*
X170843474Y-111621003D01*
X170966496Y-111744025D01*
X170966500Y-111744028D01*
X171114566Y-111835357D01*
X171114569Y-111835358D01*
X171114575Y-111835362D01*
X171279725Y-111890087D01*
X171381652Y-111900500D01*
X171381657Y-111900500D01*
X171968343Y-111900500D01*
X171968348Y-111900500D01*
X172070275Y-111890087D01*
X172235425Y-111835362D01*
X172383503Y-111744026D01*
X172506526Y-111621003D01*
X172597862Y-111472925D01*
X172626833Y-111385496D01*
X172666606Y-111328051D01*
X172731122Y-111301228D01*
X172744539Y-111300500D01*
X173453358Y-111300500D01*
X173520397Y-111320185D01*
X173558895Y-111359401D01*
X173644788Y-111498656D01*
X173768844Y-111622712D01*
X173918166Y-111714814D01*
X174084703Y-111769999D01*
X174187491Y-111780500D01*
X174812508Y-111780499D01*
X174812516Y-111780498D01*
X174812519Y-111780498D01*
X174868802Y-111774748D01*
X174915297Y-111769999D01*
X175081834Y-111714814D01*
X175231156Y-111622712D01*
X175324819Y-111529049D01*
X175386142Y-111495564D01*
X175455834Y-111500548D01*
X175500181Y-111529049D01*
X175593844Y-111622712D01*
X175743166Y-111714814D01*
X175909703Y-111769999D01*
X176012491Y-111780500D01*
X176624901Y-111780499D01*
X176691940Y-111800183D01*
X176712582Y-111816818D01*
X177624479Y-112728715D01*
X177624480Y-112728716D01*
X177653784Y-112758020D01*
X177736284Y-112840520D01*
X177736286Y-112840521D01*
X177736290Y-112840524D01*
X177859853Y-112911862D01*
X177873216Y-112919577D01*
X178025943Y-112960501D01*
X178025945Y-112960501D01*
X178191654Y-112960501D01*
X178191670Y-112960500D01*
X178270902Y-112960500D01*
X178337941Y-112980185D01*
X178383696Y-113032989D01*
X178393640Y-113102147D01*
X178364615Y-113165703D01*
X178358583Y-113172181D01*
X178269478Y-113261286D01*
X176387582Y-115143181D01*
X176326259Y-115176666D01*
X176299901Y-115179500D01*
X175787498Y-115179500D01*
X175787480Y-115179501D01*
X175684703Y-115190000D01*
X175684700Y-115190001D01*
X175518168Y-115245185D01*
X175518163Y-115245187D01*
X175368842Y-115337289D01*
X175275181Y-115430951D01*
X175213858Y-115464436D01*
X175144166Y-115459452D01*
X175099819Y-115430951D01*
X175006157Y-115337289D01*
X175006156Y-115337288D01*
X174882236Y-115260854D01*
X174856836Y-115245187D01*
X174856831Y-115245185D01*
X174820602Y-115233180D01*
X174690297Y-115190001D01*
X174690295Y-115190000D01*
X174587510Y-115179500D01*
X173962498Y-115179500D01*
X173962480Y-115179501D01*
X173859703Y-115190000D01*
X173859700Y-115190001D01*
X173693168Y-115245185D01*
X173693163Y-115245187D01*
X173543842Y-115337289D01*
X173419789Y-115461342D01*
X173327687Y-115610663D01*
X173327685Y-115610668D01*
X173310688Y-115661962D01*
X173308389Y-115668902D01*
X173299905Y-115694504D01*
X173260132Y-115751949D01*
X173195616Y-115778772D01*
X173182199Y-115779500D01*
X172669539Y-115779500D01*
X172602500Y-115759815D01*
X172556745Y-115707011D01*
X172551833Y-115694504D01*
X172535162Y-115644194D01*
X172522862Y-115607075D01*
X172522858Y-115607069D01*
X172522857Y-115607066D01*
X172431528Y-115459000D01*
X172431525Y-115458996D01*
X172308503Y-115335974D01*
X172308499Y-115335971D01*
X172160433Y-115244642D01*
X172160427Y-115244639D01*
X172160425Y-115244638D01*
X172059769Y-115211284D01*
X171995276Y-115189913D01*
X171893355Y-115179500D01*
X171893348Y-115179500D01*
X171306652Y-115179500D01*
X171306644Y-115179500D01*
X171204723Y-115189913D01*
X171039577Y-115244637D01*
X171039566Y-115244642D01*
X170891500Y-115335971D01*
X170891496Y-115335974D01*
X170768474Y-115458996D01*
X170768467Y-115459005D01*
X170767734Y-115460194D01*
X170767019Y-115460836D01*
X170763993Y-115464664D01*
X170763338Y-115464146D01*
X170715780Y-115506911D01*
X170646816Y-115518123D01*
X170582738Y-115490271D01*
X170560738Y-115464877D01*
X170560612Y-115464977D01*
X170558385Y-115462161D01*
X170556663Y-115460173D01*
X170556130Y-115459309D01*
X170433191Y-115336370D01*
X170285214Y-115245096D01*
X170285209Y-115245094D01*
X170120173Y-115190407D01*
X170018315Y-115180000D01*
X169975000Y-115180000D01*
X169975000Y-117580000D01*
X170018303Y-117580000D01*
X170018315Y-117579999D01*
X170120173Y-117569592D01*
X170285209Y-117514905D01*
X170285214Y-117514903D01*
X170433191Y-117423629D01*
X170556128Y-117300692D01*
X170556659Y-117299832D01*
X170557180Y-117299363D01*
X170560612Y-117295023D01*
X170561353Y-117295608D01*
X170608601Y-117253102D01*
X170677563Y-117241872D01*
X170741648Y-117269708D01*
X170763913Y-117295398D01*
X170763993Y-117295336D01*
X170765390Y-117297103D01*
X170767738Y-117299812D01*
X170768468Y-117300995D01*
X170768474Y-117301003D01*
X170891496Y-117424025D01*
X170891500Y-117424028D01*
X171039566Y-117515357D01*
X171039569Y-117515358D01*
X171039575Y-117515362D01*
X171204725Y-117570087D01*
X171306652Y-117580500D01*
X171306657Y-117580500D01*
X171893343Y-117580500D01*
X171893348Y-117580500D01*
X171995275Y-117570087D01*
X172160425Y-117515362D01*
X172308503Y-117424026D01*
X172431526Y-117301003D01*
X172522862Y-117152925D01*
X172551833Y-117065496D01*
X172591606Y-117008051D01*
X172656122Y-116981228D01*
X172669539Y-116980500D01*
X173182199Y-116980500D01*
X173249238Y-117000185D01*
X173294993Y-117052989D01*
X173299903Y-117065492D01*
X173327686Y-117149334D01*
X173419788Y-117298656D01*
X173543844Y-117422712D01*
X173693166Y-117514814D01*
X173859703Y-117569999D01*
X173962491Y-117580500D01*
X174587508Y-117580499D01*
X174587516Y-117580498D01*
X174587519Y-117580498D01*
X174665745Y-117572507D01*
X174690297Y-117569999D01*
X174856834Y-117514814D01*
X175006156Y-117422712D01*
X175099819Y-117329049D01*
X175104719Y-117326372D01*
X175107815Y-117321723D01*
X175135054Y-117309809D01*
X175161142Y-117295564D01*
X175166712Y-117295962D01*
X175171830Y-117293724D01*
X175201181Y-117298427D01*
X175230834Y-117300548D01*
X175236759Y-117304128D01*
X175240819Y-117304779D01*
X175258488Y-117317258D01*
X175270200Y-117324336D01*
X175272754Y-117326622D01*
X175368844Y-117422712D01*
X175405074Y-117445058D01*
X175413293Y-117452415D01*
X175426127Y-117473110D01*
X175442414Y-117491217D01*
X175444213Y-117502273D01*
X175450117Y-117511793D01*
X175449725Y-117536142D01*
X175453637Y-117560179D01*
X175449173Y-117570452D01*
X175448993Y-117581653D01*
X175435498Y-117601926D01*
X175425794Y-117624262D01*
X175418274Y-117632490D01*
X172419481Y-120631282D01*
X172419477Y-120631287D01*
X172379263Y-120700942D01*
X172379263Y-120700943D01*
X172340423Y-120768214D01*
X172327399Y-120816819D01*
X172299499Y-120920943D01*
X172299499Y-120920945D01*
X172299499Y-121089046D01*
X172299500Y-121089059D01*
X172299500Y-121807491D01*
X172299099Y-121808853D01*
X172299470Y-121810225D01*
X172289283Y-121842284D01*
X172279815Y-121874530D01*
X172278603Y-121875897D01*
X172278312Y-121876814D01*
X172274823Y-121880163D01*
X172254616Y-121902972D01*
X172247951Y-121908494D01*
X172168844Y-121957288D01*
X172071079Y-122055052D01*
X172066616Y-122058751D01*
X172039634Y-122070360D01*
X172013858Y-122084436D01*
X172007911Y-122084010D01*
X172002436Y-122086367D01*
X171973464Y-122081547D01*
X171944166Y-122079452D01*
X171938331Y-122075702D01*
X171933514Y-122074901D01*
X171924794Y-122067002D01*
X171899819Y-122050951D01*
X171806157Y-121957289D01*
X171806156Y-121957288D01*
X171695041Y-121888752D01*
X171656836Y-121865187D01*
X171656831Y-121865185D01*
X171642753Y-121860520D01*
X171490297Y-121810001D01*
X171490295Y-121810000D01*
X171387510Y-121799500D01*
X170762498Y-121799500D01*
X170762480Y-121799501D01*
X170659703Y-121810000D01*
X170659696Y-121810002D01*
X170566709Y-121840815D01*
X170496881Y-121843217D01*
X170440025Y-121810790D01*
X168624943Y-119995708D01*
X168591458Y-119934385D01*
X168588630Y-119909190D01*
X168563470Y-117200371D01*
X168582531Y-117133155D01*
X168634908Y-117086912D01*
X168703971Y-117076327D01*
X168767794Y-117104760D01*
X168799849Y-117146821D01*
X168802596Y-117152714D01*
X168893870Y-117300691D01*
X169016808Y-117423629D01*
X169164785Y-117514903D01*
X169164790Y-117514905D01*
X169329826Y-117569592D01*
X169431684Y-117579999D01*
X169431697Y-117580000D01*
X169475000Y-117580000D01*
X169475000Y-115180000D01*
X169431684Y-115180000D01*
X169329826Y-115190407D01*
X169164790Y-115245094D01*
X169164785Y-115245096D01*
X169016808Y-115336370D01*
X168893870Y-115459308D01*
X168802596Y-115607285D01*
X168802595Y-115607288D01*
X168790366Y-115644194D01*
X168750593Y-115701638D01*
X168686077Y-115728461D01*
X168617301Y-115716146D01*
X168566101Y-115668602D01*
X168548665Y-115606343D01*
X168507793Y-111205815D01*
X168812500Y-111205815D01*
X168822907Y-111307673D01*
X168877594Y-111472709D01*
X168877596Y-111472714D01*
X168968870Y-111620691D01*
X169091808Y-111743629D01*
X169239785Y-111834903D01*
X169239790Y-111834905D01*
X169404826Y-111889592D01*
X169506684Y-111899999D01*
X169506697Y-111900000D01*
X169550000Y-111900000D01*
X169550000Y-110950000D01*
X168812500Y-110950000D01*
X168812500Y-111205815D01*
X168507793Y-111205815D01*
X168498397Y-110194184D01*
X168812500Y-110194184D01*
X168812500Y-110450000D01*
X169550000Y-110450000D01*
X169550000Y-109500000D01*
X169506684Y-109500000D01*
X169404826Y-109510407D01*
X169239790Y-109565094D01*
X169239785Y-109565096D01*
X169091808Y-109656370D01*
X168968870Y-109779308D01*
X168877596Y-109927285D01*
X168877594Y-109927290D01*
X168822907Y-110092326D01*
X168812500Y-110194184D01*
X168498397Y-110194184D01*
X168456894Y-105725649D01*
X168475955Y-105658432D01*
X168528332Y-105612189D01*
X168580889Y-105600500D01*
X169394699Y-105600500D01*
X169461738Y-105620185D01*
G37*
%TD.AperFunction*%
%TA.AperFunction,Conductor*%
G36*
X199404576Y-100099931D02*
G01*
X199471576Y-100119745D01*
X199500154Y-100145223D01*
X200403527Y-101244980D01*
X201397511Y-102455047D01*
X201471318Y-102544898D01*
X201498660Y-102609196D01*
X201499500Y-102623606D01*
X201499500Y-111972803D01*
X201479815Y-112039842D01*
X201427011Y-112085597D01*
X201357853Y-112095541D01*
X201306609Y-112075905D01*
X201213684Y-112013814D01*
X201213671Y-112013807D01*
X201031691Y-111938429D01*
X201031683Y-111938427D01*
X200990000Y-111930135D01*
X200990000Y-112733011D01*
X200980060Y-112715795D01*
X200924205Y-112659940D01*
X200855796Y-112620444D01*
X200779496Y-112600000D01*
X200700504Y-112600000D01*
X200624204Y-112620444D01*
X200555795Y-112659940D01*
X200499940Y-112715795D01*
X200490000Y-112733011D01*
X200490000Y-111930136D01*
X200489999Y-111930135D01*
X200448316Y-111938427D01*
X200448308Y-111938429D01*
X200266328Y-112013807D01*
X200266315Y-112013814D01*
X200102537Y-112123248D01*
X200102533Y-112123251D01*
X199963251Y-112262533D01*
X199963248Y-112262537D01*
X199853814Y-112426315D01*
X199853807Y-112426328D01*
X199778430Y-112608306D01*
X199778427Y-112608318D01*
X199740000Y-112801504D01*
X199740000Y-112950000D01*
X200440000Y-112950000D01*
X200440000Y-113450000D01*
X199740000Y-113450000D01*
X199740000Y-113598495D01*
X199778427Y-113791681D01*
X199778430Y-113791693D01*
X199853807Y-113973671D01*
X199853814Y-113973684D01*
X199963248Y-114137462D01*
X199963251Y-114137466D01*
X200102533Y-114276748D01*
X200102537Y-114276751D01*
X200266315Y-114386185D01*
X200266328Y-114386192D01*
X200448308Y-114461569D01*
X200490000Y-114469862D01*
X200490000Y-113666988D01*
X200499940Y-113684205D01*
X200555795Y-113740060D01*
X200624204Y-113779556D01*
X200700504Y-113800000D01*
X200779496Y-113800000D01*
X200855796Y-113779556D01*
X200924205Y-113740060D01*
X200980060Y-113684205D01*
X200990000Y-113666988D01*
X200990000Y-114469862D01*
X201031690Y-114461569D01*
X201031692Y-114461569D01*
X201213671Y-114386192D01*
X201213678Y-114386188D01*
X201306608Y-114324094D01*
X201373286Y-114303216D01*
X201440666Y-114321700D01*
X201487357Y-114373679D01*
X201499500Y-114427196D01*
X201499500Y-115902803D01*
X201479815Y-115969842D01*
X201427011Y-116015597D01*
X201357853Y-116025541D01*
X201306609Y-116005905D01*
X201213684Y-115943814D01*
X201213671Y-115943807D01*
X201031691Y-115868429D01*
X201031683Y-115868427D01*
X200990000Y-115860135D01*
X200990000Y-116663011D01*
X200980060Y-116645795D01*
X200924205Y-116589940D01*
X200855796Y-116550444D01*
X200779496Y-116530000D01*
X200700504Y-116530000D01*
X200624204Y-116550444D01*
X200555795Y-116589940D01*
X200499940Y-116645795D01*
X200490000Y-116663011D01*
X200490000Y-115860136D01*
X200489999Y-115860135D01*
X200448316Y-115868427D01*
X200448308Y-115868429D01*
X200266328Y-115943807D01*
X200266315Y-115943814D01*
X200102537Y-116053248D01*
X200102533Y-116053251D01*
X199963248Y-116192536D01*
X199850427Y-116361387D01*
X199849003Y-116360435D01*
X199805742Y-116404451D01*
X199737600Y-116419892D01*
X199671927Y-116396041D01*
X199669907Y-116394306D01*
X199669811Y-116394432D01*
X199663367Y-116389487D01*
X199663365Y-116389485D01*
X199546733Y-116322147D01*
X199532136Y-116313719D01*
X199458950Y-116294109D01*
X199385766Y-116274500D01*
X199234234Y-116274500D01*
X199087863Y-116313719D01*
X198956635Y-116389485D01*
X198956632Y-116389487D01*
X198849487Y-116496632D01*
X198849483Y-116496638D01*
X198819152Y-116549171D01*
X198768584Y-116597386D01*
X198699977Y-116610607D01*
X198635112Y-116584638D01*
X198624085Y-116574850D01*
X198236819Y-116187584D01*
X198203334Y-116126261D01*
X198200500Y-116099903D01*
X198200500Y-113739060D01*
X198200501Y-113739047D01*
X198200501Y-113570944D01*
X198200501Y-113570943D01*
X198159577Y-113418216D01*
X198136027Y-113377426D01*
X198080524Y-113281290D01*
X198080518Y-113281282D01*
X196711819Y-111912583D01*
X196678334Y-111851260D01*
X196675500Y-111824902D01*
X196675500Y-105359849D01*
X196695185Y-105292810D01*
X196734402Y-105254311D01*
X196783503Y-105224026D01*
X196906526Y-105101003D01*
X196997862Y-104952925D01*
X197052587Y-104787775D01*
X197063000Y-104685848D01*
X197063000Y-103674152D01*
X197052587Y-103572225D01*
X196997862Y-103407075D01*
X196997858Y-103407069D01*
X196997857Y-103407066D01*
X196906528Y-103259000D01*
X196906525Y-103258996D01*
X196783503Y-103135974D01*
X196783499Y-103135971D01*
X196635433Y-103044642D01*
X196635427Y-103044639D01*
X196635425Y-103044638D01*
X196635422Y-103044637D01*
X196470276Y-102989913D01*
X196368355Y-102979500D01*
X196368348Y-102979500D01*
X195781652Y-102979500D01*
X195781644Y-102979500D01*
X195679723Y-102989913D01*
X195514577Y-103044637D01*
X195514566Y-103044642D01*
X195366500Y-103135971D01*
X195366496Y-103135974D01*
X195243474Y-103258996D01*
X195243471Y-103259000D01*
X195243038Y-103259703D01*
X195242614Y-103260083D01*
X195238993Y-103264664D01*
X195238210Y-103264045D01*
X195191090Y-103306428D01*
X195122128Y-103317649D01*
X195058046Y-103289806D01*
X195036157Y-103264544D01*
X195036007Y-103264664D01*
X195033359Y-103261315D01*
X195031962Y-103259703D01*
X195031528Y-103259000D01*
X195031525Y-103258996D01*
X194908503Y-103135974D01*
X194908499Y-103135971D01*
X194760433Y-103044642D01*
X194760427Y-103044639D01*
X194760425Y-103044638D01*
X194760422Y-103044637D01*
X194595276Y-102989913D01*
X194493355Y-102979500D01*
X194493348Y-102979500D01*
X193906652Y-102979500D01*
X193906644Y-102979500D01*
X193804723Y-102989913D01*
X193639577Y-103044637D01*
X193639566Y-103044642D01*
X193491500Y-103135971D01*
X193491496Y-103135974D01*
X193368474Y-103258996D01*
X193368471Y-103259000D01*
X193277142Y-103407066D01*
X193277137Y-103407077D01*
X193222413Y-103572223D01*
X193212000Y-103674144D01*
X193212000Y-104267403D01*
X193192315Y-104334442D01*
X193175681Y-104355084D01*
X189387584Y-108143181D01*
X189326261Y-108176666D01*
X189299903Y-108179500D01*
X187909798Y-108179500D01*
X187842759Y-108159815D01*
X187804259Y-108120597D01*
X187767712Y-108061344D01*
X187643656Y-107937288D01*
X187640342Y-107935243D01*
X187638546Y-107933248D01*
X187637989Y-107932807D01*
X187638064Y-107932711D01*
X187593618Y-107883297D01*
X187582397Y-107814334D01*
X187610240Y-107750252D01*
X187640348Y-107724165D01*
X187643342Y-107722318D01*
X187767315Y-107598345D01*
X187859356Y-107449124D01*
X187859358Y-107449119D01*
X187914505Y-107282697D01*
X187914506Y-107282690D01*
X187924999Y-107179986D01*
X187925000Y-107179973D01*
X187925000Y-107130000D01*
X185475001Y-107130000D01*
X185475001Y-107179986D01*
X185485494Y-107282697D01*
X185540641Y-107449119D01*
X185540643Y-107449124D01*
X185632684Y-107598345D01*
X185756655Y-107722316D01*
X185756659Y-107722319D01*
X185759656Y-107724168D01*
X185761279Y-107725972D01*
X185762323Y-107726798D01*
X185762181Y-107726976D01*
X185806381Y-107776116D01*
X185817602Y-107845079D01*
X185789759Y-107909161D01*
X185759661Y-107935241D01*
X185756349Y-107937283D01*
X185756343Y-107937288D01*
X185632289Y-108061342D01*
X185540187Y-108210663D01*
X185540186Y-108210666D01*
X185485001Y-108377203D01*
X185485001Y-108377204D01*
X185485000Y-108377204D01*
X185474500Y-108479983D01*
X185474500Y-109080001D01*
X185474501Y-109080019D01*
X185485000Y-109182796D01*
X185485001Y-109182799D01*
X185540185Y-109349331D01*
X185540187Y-109349336D01*
X185632289Y-109498657D01*
X185756345Y-109622713D01*
X185756348Y-109622715D01*
X185840595Y-109674678D01*
X185887321Y-109726625D01*
X185899500Y-109780217D01*
X185899500Y-110165500D01*
X185879815Y-110232539D01*
X185827011Y-110278294D01*
X185775500Y-110289500D01*
X185609298Y-110289500D01*
X185572432Y-110292401D01*
X185572426Y-110292402D01*
X185414606Y-110338254D01*
X185414603Y-110338255D01*
X185273137Y-110421917D01*
X185273129Y-110421923D01*
X185156923Y-110538129D01*
X185156917Y-110538137D01*
X185073255Y-110679603D01*
X185073254Y-110679606D01*
X185027402Y-110837426D01*
X185027401Y-110837432D01*
X185024500Y-110874298D01*
X185024500Y-111305701D01*
X185027401Y-111342567D01*
X185027402Y-111342573D01*
X185073254Y-111500393D01*
X185073255Y-111500396D01*
X185156917Y-111641862D01*
X185161702Y-111648031D01*
X185159256Y-111649927D01*
X185185857Y-111698642D01*
X185180873Y-111768334D01*
X185160069Y-111800703D01*
X185161702Y-111801969D01*
X185156917Y-111808137D01*
X185073255Y-111949603D01*
X185073254Y-111949606D01*
X185027402Y-112107426D01*
X185027401Y-112107432D01*
X185024500Y-112144298D01*
X185024500Y-112575701D01*
X185027401Y-112612567D01*
X185027402Y-112612573D01*
X185073254Y-112770393D01*
X185073255Y-112770396D01*
X185156917Y-112911862D01*
X185161702Y-112918031D01*
X185159256Y-112919927D01*
X185185857Y-112968642D01*
X185180873Y-113038334D01*
X185160069Y-113070703D01*
X185161702Y-113071969D01*
X185156917Y-113078137D01*
X185073255Y-113219603D01*
X185073254Y-113219606D01*
X185027402Y-113377426D01*
X185027401Y-113377432D01*
X185024500Y-113414298D01*
X185024500Y-113845701D01*
X185027401Y-113882567D01*
X185027402Y-113882573D01*
X185073254Y-114040393D01*
X185073255Y-114040396D01*
X185156917Y-114181862D01*
X185161702Y-114188031D01*
X185159256Y-114189927D01*
X185185857Y-114238642D01*
X185180873Y-114308334D01*
X185160069Y-114340703D01*
X185161702Y-114341969D01*
X185156917Y-114348137D01*
X185073255Y-114489603D01*
X185073254Y-114489606D01*
X185027402Y-114647426D01*
X185027401Y-114647432D01*
X185024500Y-114684298D01*
X185024500Y-114845500D01*
X185004815Y-114912539D01*
X184952011Y-114958294D01*
X184900500Y-114969500D01*
X184296670Y-114969500D01*
X184296654Y-114969499D01*
X184289058Y-114969499D01*
X184130943Y-114969499D01*
X184054579Y-114989961D01*
X183978214Y-115010423D01*
X183978209Y-115010426D01*
X183841290Y-115089475D01*
X183841282Y-115089481D01*
X183424217Y-115506546D01*
X183424214Y-115506548D01*
X183424215Y-115506549D01*
X183319478Y-115611286D01*
X183286214Y-115668902D01*
X183282983Y-115674499D01*
X183240423Y-115748215D01*
X183224736Y-115806756D01*
X183220746Y-115815705D01*
X183204195Y-115835152D01*
X183190906Y-115856955D01*
X183181930Y-115861315D01*
X183175463Y-115868914D01*
X183151026Y-115876326D01*
X183128058Y-115887483D01*
X183118150Y-115886298D01*
X183108601Y-115889195D01*
X183084038Y-115882219D01*
X183058683Y-115879188D01*
X183050987Y-115872833D01*
X183041389Y-115870108D01*
X183024496Y-115850960D01*
X183004805Y-115834701D01*
X182998725Y-115821748D01*
X182995166Y-115817714D01*
X182994361Y-115812451D01*
X182988421Y-115799796D01*
X182976744Y-115759602D01*
X182893081Y-115618135D01*
X182893078Y-115618132D01*
X182888298Y-115611969D01*
X182890750Y-115610066D01*
X182864155Y-115561421D01*
X182869104Y-115491726D01*
X182889940Y-115459304D01*
X182888298Y-115458031D01*
X182893075Y-115451870D01*
X182893081Y-115451865D01*
X182976744Y-115310398D01*
X183011748Y-115189913D01*
X183022597Y-115152573D01*
X183022598Y-115152567D01*
X183025499Y-115115701D01*
X183025500Y-115115694D01*
X183025500Y-114684306D01*
X183022598Y-114647431D01*
X182976744Y-114489602D01*
X182893081Y-114348135D01*
X182893078Y-114348132D01*
X182888298Y-114341969D01*
X182890750Y-114340066D01*
X182864155Y-114291421D01*
X182869104Y-114221726D01*
X182889940Y-114189304D01*
X182888298Y-114188031D01*
X182893075Y-114181870D01*
X182893081Y-114181865D01*
X182976744Y-114040398D01*
X183022598Y-113882569D01*
X183025500Y-113845694D01*
X183025500Y-113414306D01*
X183022598Y-113377431D01*
X183008894Y-113330263D01*
X182976745Y-113219606D01*
X182976744Y-113219603D01*
X182976744Y-113219602D01*
X182893081Y-113078135D01*
X182893078Y-113078132D01*
X182888298Y-113071969D01*
X182890750Y-113070066D01*
X182864155Y-113021421D01*
X182869104Y-112951726D01*
X182889940Y-112919304D01*
X182888298Y-112918031D01*
X182893075Y-112911870D01*
X182893081Y-112911865D01*
X182976744Y-112770398D01*
X183022598Y-112612569D01*
X183025500Y-112575694D01*
X183025500Y-112144306D01*
X183022598Y-112107431D01*
X183002961Y-112039842D01*
X182976745Y-111949606D01*
X182976744Y-111949603D01*
X182976744Y-111949602D01*
X182893081Y-111808135D01*
X182893078Y-111808132D01*
X182888298Y-111801969D01*
X182890635Y-111800155D01*
X182863798Y-111751050D01*
X182868756Y-111681356D01*
X182889554Y-111648998D01*
X182887903Y-111647717D01*
X182892686Y-111641550D01*
X182976281Y-111500198D01*
X183022100Y-111342486D01*
X183022295Y-111340001D01*
X183022295Y-111340000D01*
X180077705Y-111340000D01*
X180077704Y-111340001D01*
X180077899Y-111342486D01*
X180123718Y-111500198D01*
X180166406Y-111572379D01*
X180183589Y-111640103D01*
X180161429Y-111706365D01*
X180106963Y-111750129D01*
X180059674Y-111759500D01*
X178405098Y-111759500D01*
X178338059Y-111739815D01*
X178317417Y-111723181D01*
X177434234Y-110839998D01*
X180077704Y-110839998D01*
X180077705Y-110840000D01*
X181300000Y-110840000D01*
X181800000Y-110840000D01*
X183022295Y-110840000D01*
X183022295Y-110839998D01*
X183022100Y-110837513D01*
X182976281Y-110679801D01*
X182892685Y-110538447D01*
X182892678Y-110538438D01*
X182776561Y-110422321D01*
X182776552Y-110422314D01*
X182635196Y-110338717D01*
X182635193Y-110338716D01*
X182477495Y-110292900D01*
X182477489Y-110292899D01*
X182440649Y-110290000D01*
X181800000Y-110290000D01*
X181800000Y-110840000D01*
X181300000Y-110840000D01*
X181300000Y-110290000D01*
X180659350Y-110290000D01*
X180622510Y-110292899D01*
X180622504Y-110292900D01*
X180464806Y-110338716D01*
X180464803Y-110338717D01*
X180323447Y-110422314D01*
X180323438Y-110422321D01*
X180207321Y-110538438D01*
X180207314Y-110538447D01*
X180123718Y-110679801D01*
X180077899Y-110837513D01*
X180077704Y-110839998D01*
X177434234Y-110839998D01*
X177374318Y-110780082D01*
X177340833Y-110718759D01*
X177337999Y-110692401D01*
X177337999Y-110079998D01*
X177337998Y-110079981D01*
X177327499Y-109977203D01*
X177327498Y-109977200D01*
X177281412Y-109838123D01*
X177272314Y-109810666D01*
X177180212Y-109661344D01*
X177056156Y-109537288D01*
X176938780Y-109464890D01*
X176894061Y-109416939D01*
X176887665Y-109404743D01*
X176884577Y-109393215D01*
X176853609Y-109339577D01*
X176852345Y-109337389D01*
X176852340Y-109337378D01*
X176805524Y-109256290D01*
X176805521Y-109256286D01*
X176805520Y-109256284D01*
X176693716Y-109144480D01*
X176693715Y-109144479D01*
X176689385Y-109140149D01*
X176689374Y-109140139D01*
X174129248Y-106580013D01*
X185475000Y-106580013D01*
X185475000Y-106630000D01*
X186450000Y-106630000D01*
X186950000Y-106630000D01*
X187924999Y-106630000D01*
X187924999Y-106580028D01*
X187924998Y-106580013D01*
X187914505Y-106477302D01*
X187859358Y-106310880D01*
X187859356Y-106310875D01*
X187767315Y-106161654D01*
X187643345Y-106037684D01*
X187494124Y-105945643D01*
X187494119Y-105945641D01*
X187327697Y-105890494D01*
X187327690Y-105890493D01*
X187224986Y-105880000D01*
X186950000Y-105880000D01*
X186950000Y-106630000D01*
X186450000Y-106630000D01*
X186450000Y-105880000D01*
X186175029Y-105880000D01*
X186175012Y-105880001D01*
X186072302Y-105890494D01*
X185905880Y-105945641D01*
X185905875Y-105945643D01*
X185756654Y-106037684D01*
X185632684Y-106161654D01*
X185540643Y-106310875D01*
X185540641Y-106310880D01*
X185485494Y-106477302D01*
X185485493Y-106477309D01*
X185475000Y-106580013D01*
X174129248Y-106580013D01*
X173328520Y-105779285D01*
X173295035Y-105717962D01*
X173298494Y-105652602D01*
X173314999Y-105602797D01*
X173325500Y-105500009D01*
X173325499Y-104499992D01*
X173314999Y-104397203D01*
X173259814Y-104230666D01*
X173167712Y-104081344D01*
X173043656Y-103957288D01*
X172894334Y-103865186D01*
X172727797Y-103810001D01*
X172727795Y-103810000D01*
X172625010Y-103799500D01*
X171999998Y-103799500D01*
X171999980Y-103799501D01*
X171897203Y-103810000D01*
X171897200Y-103810001D01*
X171730668Y-103865185D01*
X171730663Y-103865187D01*
X171581342Y-103957289D01*
X171487681Y-104050951D01*
X171426358Y-104084436D01*
X171356666Y-104079452D01*
X171312319Y-104050951D01*
X171218657Y-103957289D01*
X171218656Y-103957288D01*
X171069334Y-103865186D01*
X170902797Y-103810001D01*
X170902795Y-103810000D01*
X170800010Y-103799500D01*
X170174998Y-103799500D01*
X170174980Y-103799501D01*
X170072203Y-103810000D01*
X170072200Y-103810001D01*
X169905668Y-103865185D01*
X169905663Y-103865187D01*
X169756342Y-103957289D01*
X169632289Y-104081342D01*
X169540187Y-104230663D01*
X169540185Y-104230668D01*
X169512405Y-104314504D01*
X169472632Y-104371949D01*
X169408116Y-104398772D01*
X169394699Y-104399500D01*
X168567431Y-104399500D01*
X168500392Y-104379815D01*
X168454637Y-104327011D01*
X168443436Y-104276652D01*
X168441622Y-104081342D01*
X168405253Y-100165617D01*
X168424313Y-100098403D01*
X168476690Y-100052160D01*
X168529482Y-100040471D01*
X199404576Y-100099931D01*
G37*
%TD.AperFunction*%
%TA.AperFunction,Conductor*%
G36*
X195155053Y-105043300D02*
G01*
X195157424Y-105043004D01*
X195186935Y-105057150D01*
X195216948Y-105070188D01*
X195218946Y-105072494D01*
X195220429Y-105073205D01*
X195238935Y-105095381D01*
X195238993Y-105095336D01*
X195240709Y-105097507D01*
X195243040Y-105100299D01*
X195243474Y-105101003D01*
X195366497Y-105224026D01*
X195415597Y-105254311D01*
X195462321Y-105306257D01*
X195474500Y-105359849D01*
X195474500Y-111824902D01*
X195454815Y-111891941D01*
X195438181Y-111912583D01*
X194085339Y-113265425D01*
X194024016Y-113298910D01*
X194021850Y-113299361D01*
X193866508Y-113330261D01*
X193866498Y-113330264D01*
X193720827Y-113390602D01*
X193720814Y-113390609D01*
X193589711Y-113478210D01*
X193589707Y-113478213D01*
X193478213Y-113589707D01*
X193478210Y-113589711D01*
X193390609Y-113720814D01*
X193390602Y-113720827D01*
X193330264Y-113866498D01*
X193330261Y-113866510D01*
X193299500Y-114021153D01*
X193299500Y-114178846D01*
X193330261Y-114333489D01*
X193330264Y-114333501D01*
X193390602Y-114479172D01*
X193390609Y-114479185D01*
X193478210Y-114610288D01*
X193478213Y-114610292D01*
X193589707Y-114721786D01*
X193589711Y-114721789D01*
X193635520Y-114752398D01*
X193680325Y-114806010D01*
X193689032Y-114875335D01*
X193658878Y-114938363D01*
X193599435Y-114975082D01*
X193566629Y-114979500D01*
X188322706Y-114979500D01*
X188317059Y-114979371D01*
X188303611Y-114978758D01*
X188269057Y-114969499D01*
X188110943Y-114969499D01*
X188110939Y-114969500D01*
X188099500Y-114969500D01*
X188099313Y-114969445D01*
X188097684Y-114969371D01*
X188089628Y-114966601D01*
X188032461Y-114949815D01*
X187986706Y-114897011D01*
X187975500Y-114845500D01*
X187975500Y-114684313D01*
X187975499Y-114684298D01*
X187972598Y-114647432D01*
X187972597Y-114647426D01*
X187926745Y-114489606D01*
X187926744Y-114489603D01*
X187926744Y-114489602D01*
X187843081Y-114348135D01*
X187843078Y-114348132D01*
X187838298Y-114341969D01*
X187840750Y-114340066D01*
X187814155Y-114291421D01*
X187819104Y-114221726D01*
X187839940Y-114189304D01*
X187838298Y-114188031D01*
X187843075Y-114181870D01*
X187843081Y-114181865D01*
X187926744Y-114040398D01*
X187972598Y-113882569D01*
X187975500Y-113845694D01*
X187975500Y-113414306D01*
X187972598Y-113377431D01*
X187958894Y-113330263D01*
X187926745Y-113219606D01*
X187926744Y-113219603D01*
X187926744Y-113219602D01*
X187843081Y-113078135D01*
X187843078Y-113078132D01*
X187838298Y-113071969D01*
X187840750Y-113070066D01*
X187814155Y-113021421D01*
X187819104Y-112951726D01*
X187827471Y-112933785D01*
X187835755Y-112919190D01*
X187843081Y-112911865D01*
X187908348Y-112801504D01*
X191100000Y-112801504D01*
X191100000Y-112950000D01*
X191800000Y-112950000D01*
X191800000Y-113450000D01*
X191100000Y-113450000D01*
X191100000Y-113598495D01*
X191138427Y-113791681D01*
X191138430Y-113791693D01*
X191213807Y-113973671D01*
X191213814Y-113973684D01*
X191323248Y-114137462D01*
X191323251Y-114137466D01*
X191462533Y-114276748D01*
X191462537Y-114276751D01*
X191626315Y-114386185D01*
X191626328Y-114386192D01*
X191808308Y-114461569D01*
X191850000Y-114469862D01*
X191850000Y-113666988D01*
X191859940Y-113684205D01*
X191915795Y-113740060D01*
X191984204Y-113779556D01*
X192060504Y-113800000D01*
X192139496Y-113800000D01*
X192215796Y-113779556D01*
X192284205Y-113740060D01*
X192340060Y-113684205D01*
X192350000Y-113666988D01*
X192350000Y-114469862D01*
X192391690Y-114461569D01*
X192391692Y-114461569D01*
X192573671Y-114386192D01*
X192573684Y-114386185D01*
X192737462Y-114276751D01*
X192737466Y-114276748D01*
X192876748Y-114137466D01*
X192876751Y-114137462D01*
X192986185Y-113973684D01*
X192986192Y-113973671D01*
X193061569Y-113791693D01*
X193061572Y-113791681D01*
X193099999Y-113598495D01*
X193100000Y-113598492D01*
X193100000Y-113450000D01*
X192400000Y-113450000D01*
X192400000Y-112950000D01*
X193100000Y-112950000D01*
X193100000Y-112801508D01*
X193099999Y-112801504D01*
X193061572Y-112608318D01*
X193061569Y-112608306D01*
X192986192Y-112426328D01*
X192986185Y-112426315D01*
X192876751Y-112262537D01*
X192876748Y-112262533D01*
X192737466Y-112123251D01*
X192737462Y-112123248D01*
X192573684Y-112013814D01*
X192573671Y-112013807D01*
X192391691Y-111938429D01*
X192391683Y-111938427D01*
X192350000Y-111930135D01*
X192350000Y-112733011D01*
X192340060Y-112715795D01*
X192284205Y-112659940D01*
X192215796Y-112620444D01*
X192139496Y-112600000D01*
X192060504Y-112600000D01*
X191984204Y-112620444D01*
X191915795Y-112659940D01*
X191859940Y-112715795D01*
X191850000Y-112733011D01*
X191850000Y-111930136D01*
X191849999Y-111930135D01*
X191808316Y-111938427D01*
X191808308Y-111938429D01*
X191626328Y-112013807D01*
X191626315Y-112013814D01*
X191462537Y-112123248D01*
X191462533Y-112123251D01*
X191323251Y-112262533D01*
X191323248Y-112262537D01*
X191213814Y-112426315D01*
X191213807Y-112426328D01*
X191138430Y-112608306D01*
X191138427Y-112608318D01*
X191100000Y-112801504D01*
X187908348Y-112801504D01*
X187926744Y-112770398D01*
X187933584Y-112746852D01*
X187933586Y-112746850D01*
X187972597Y-112612573D01*
X187972598Y-112612567D01*
X187975500Y-112575694D01*
X187975500Y-112144306D01*
X187972598Y-112107431D01*
X187952961Y-112039842D01*
X187926745Y-111949606D01*
X187926744Y-111949603D01*
X187926744Y-111949602D01*
X187843081Y-111808135D01*
X187843078Y-111808132D01*
X187838298Y-111801969D01*
X187840750Y-111800066D01*
X187814155Y-111751421D01*
X187819104Y-111681726D01*
X187839940Y-111649304D01*
X187838298Y-111648031D01*
X187843075Y-111641870D01*
X187843081Y-111641865D01*
X187926744Y-111500398D01*
X187972598Y-111342569D01*
X187975500Y-111305694D01*
X187975500Y-110874306D01*
X187972598Y-110837431D01*
X187955936Y-110780082D01*
X187926745Y-110679606D01*
X187926744Y-110679603D01*
X187926744Y-110679602D01*
X187843081Y-110538135D01*
X187843079Y-110538133D01*
X187843076Y-110538129D01*
X187726870Y-110421923D01*
X187726862Y-110421917D01*
X187648681Y-110375681D01*
X187585398Y-110338256D01*
X187585397Y-110338255D01*
X187585396Y-110338255D01*
X187585393Y-110338254D01*
X187427573Y-110292402D01*
X187427567Y-110292401D01*
X187390701Y-110289500D01*
X187390694Y-110289500D01*
X187224500Y-110289500D01*
X187157461Y-110269815D01*
X187111706Y-110217011D01*
X187100500Y-110165500D01*
X187100500Y-109904499D01*
X187120185Y-109837460D01*
X187172989Y-109791705D01*
X187221879Y-109781068D01*
X187221859Y-109780659D01*
X187224346Y-109780532D01*
X187224500Y-109780499D01*
X187225002Y-109780499D01*
X187225008Y-109780499D01*
X187228200Y-109780173D01*
X187242895Y-109778671D01*
X187327797Y-109769999D01*
X187494334Y-109714814D01*
X187643656Y-109622712D01*
X187767712Y-109498656D01*
X187804259Y-109439402D01*
X187856207Y-109392679D01*
X187909798Y-109380500D01*
X189513331Y-109380500D01*
X189513347Y-109380501D01*
X189520943Y-109380501D01*
X189679054Y-109380501D01*
X189679057Y-109380501D01*
X189831785Y-109339577D01*
X189881904Y-109310639D01*
X189968716Y-109260520D01*
X190080520Y-109148716D01*
X190080520Y-109148714D01*
X190090728Y-109138507D01*
X190090730Y-109138504D01*
X193812581Y-105416652D01*
X193873902Y-105383169D01*
X193903495Y-105380748D01*
X193903495Y-105380500D01*
X193906527Y-105380500D01*
X193906576Y-105380496D01*
X193906649Y-105380499D01*
X193906652Y-105380500D01*
X193906654Y-105380500D01*
X194493343Y-105380500D01*
X194493348Y-105380500D01*
X194595275Y-105370087D01*
X194760425Y-105315362D01*
X194908503Y-105224026D01*
X195031526Y-105101003D01*
X195031958Y-105100301D01*
X195032381Y-105099921D01*
X195033989Y-105097887D01*
X195034448Y-105096427D01*
X195059573Y-105075460D01*
X195083902Y-105053575D01*
X195086259Y-105053191D01*
X195088093Y-105051661D01*
X195120575Y-105047605D01*
X195152864Y-105042349D01*
X195155053Y-105043300D01*
G37*
%TD.AperFunction*%
%TD*%
%TA.AperFunction,Conductor*%
%TO.N,GND*%
G36*
X132476242Y-99971040D02*
G01*
X132543240Y-99990853D01*
X132588893Y-100043745D01*
X132600000Y-100095039D01*
X132600000Y-102775500D01*
X132597449Y-102784185D01*
X132598738Y-102793147D01*
X132587759Y-102817187D01*
X132580315Y-102842539D01*
X132573474Y-102848466D01*
X132569713Y-102856703D01*
X132547478Y-102870992D01*
X132527511Y-102888294D01*
X132516996Y-102890581D01*
X132510935Y-102894477D01*
X132476000Y-102899500D01*
X132280301Y-102899500D01*
X132213262Y-102879815D01*
X132167507Y-102827011D01*
X132162595Y-102814504D01*
X132152548Y-102784185D01*
X132134814Y-102730666D01*
X132042712Y-102581344D01*
X131918656Y-102457288D01*
X131798630Y-102383256D01*
X131769336Y-102365187D01*
X131769331Y-102365185D01*
X131750204Y-102358847D01*
X131602797Y-102310001D01*
X131602795Y-102310000D01*
X131500010Y-102299500D01*
X130874998Y-102299500D01*
X130874980Y-102299501D01*
X130772203Y-102310000D01*
X130772200Y-102310001D01*
X130605668Y-102365185D01*
X130605663Y-102365187D01*
X130456342Y-102457289D01*
X130362681Y-102550951D01*
X130301358Y-102584436D01*
X130231666Y-102579452D01*
X130187319Y-102550951D01*
X130093657Y-102457289D01*
X130093656Y-102457288D01*
X129973630Y-102383256D01*
X129944336Y-102365187D01*
X129944331Y-102365185D01*
X129925204Y-102358847D01*
X129777797Y-102310001D01*
X129777795Y-102310000D01*
X129675010Y-102299500D01*
X129049998Y-102299500D01*
X129049980Y-102299501D01*
X128947203Y-102310000D01*
X128947200Y-102310001D01*
X128780668Y-102365185D01*
X128780663Y-102365187D01*
X128631342Y-102457289D01*
X128507289Y-102581342D01*
X128415187Y-102730663D01*
X128415185Y-102730668D01*
X128387405Y-102814504D01*
X128347632Y-102871949D01*
X128283116Y-102898772D01*
X128269699Y-102899500D01*
X112995943Y-102899500D01*
X112843213Y-102940423D01*
X112795077Y-102968216D01*
X112795076Y-102968216D01*
X112706287Y-103019477D01*
X112706282Y-103019481D01*
X112594478Y-103131286D01*
X108062584Y-107663181D01*
X108001261Y-107696666D01*
X107974903Y-107699500D01*
X105595943Y-107699500D01*
X105443216Y-107740423D01*
X105443209Y-107740426D01*
X105306290Y-107819475D01*
X105306282Y-107819481D01*
X105194481Y-107931282D01*
X105194475Y-107931290D01*
X105115426Y-108068209D01*
X105115423Y-108068216D01*
X105074500Y-108220943D01*
X105074500Y-108713330D01*
X105074499Y-108713348D01*
X105074499Y-108879054D01*
X105074498Y-108879054D01*
X105115423Y-109031787D01*
X105115424Y-109031788D01*
X105137197Y-109069500D01*
X105137198Y-109069501D01*
X105194475Y-109168709D01*
X105194481Y-109168717D01*
X105313349Y-109287585D01*
X105313355Y-109287590D01*
X105338584Y-109312819D01*
X105372069Y-109374142D01*
X105367085Y-109443834D01*
X105325213Y-109499767D01*
X105259749Y-109524184D01*
X105250903Y-109524500D01*
X104411999Y-109524500D01*
X104344960Y-109504815D01*
X104299205Y-109452011D01*
X104287999Y-109400500D01*
X104287999Y-108273077D01*
X104287998Y-108273052D01*
X104287716Y-108269468D01*
X104285154Y-108236902D01*
X104240181Y-108082106D01*
X104177341Y-107975848D01*
X104158130Y-107943363D01*
X104158121Y-107943351D01*
X104044148Y-107829378D01*
X104044136Y-107829369D01*
X103905396Y-107747320D01*
X103905389Y-107747317D01*
X103750602Y-107702346D01*
X103750596Y-107702345D01*
X103714435Y-107699500D01*
X103310577Y-107699500D01*
X103310552Y-107699501D01*
X103274401Y-107702346D01*
X103147095Y-107739332D01*
X103077905Y-107739332D01*
X102950602Y-107702346D01*
X102950596Y-107702345D01*
X102914435Y-107699500D01*
X102510577Y-107699500D01*
X102510552Y-107699501D01*
X102474401Y-107702346D01*
X102346200Y-107739592D01*
X102277010Y-107739592D01*
X102162501Y-107706323D01*
X102162500Y-107706324D01*
X102162500Y-107796368D01*
X102156070Y-107818262D01*
X102154187Y-107841006D01*
X102145449Y-107854434D01*
X102142815Y-107863407D01*
X102136925Y-107871791D01*
X102131957Y-107878273D01*
X102066874Y-107943357D01*
X102015445Y-108030318D01*
X102010925Y-108036218D01*
X101988479Y-108052629D01*
X101968163Y-108071599D01*
X101960672Y-108072961D01*
X101954524Y-108077457D01*
X101926770Y-108079128D01*
X101899422Y-108084103D01*
X101892382Y-108081199D01*
X101884780Y-108081657D01*
X101860531Y-108068059D01*
X101834832Y-108057458D01*
X101828412Y-108050048D01*
X101823838Y-108047484D01*
X101820106Y-108040463D01*
X101805768Y-108023916D01*
X101785473Y-107989599D01*
X101758126Y-107943357D01*
X101758124Y-107943355D01*
X101758121Y-107943351D01*
X101698819Y-107884049D01*
X101665334Y-107822726D01*
X101662500Y-107796368D01*
X101662500Y-107706324D01*
X101662498Y-107706323D01*
X101547989Y-107739592D01*
X101478799Y-107739592D01*
X101350602Y-107702346D01*
X101350596Y-107702345D01*
X101314435Y-107699500D01*
X100910577Y-107699500D01*
X100910552Y-107699501D01*
X100874401Y-107702346D01*
X100746200Y-107739592D01*
X100677010Y-107739592D01*
X100562501Y-107706323D01*
X100562500Y-107706324D01*
X100562500Y-107796368D01*
X100556070Y-107818262D01*
X100554187Y-107841006D01*
X100545449Y-107854434D01*
X100542815Y-107863407D01*
X100536925Y-107871791D01*
X100531957Y-107878273D01*
X100466874Y-107943357D01*
X100415445Y-108030318D01*
X100410925Y-108036218D01*
X100388479Y-108052629D01*
X100368163Y-108071599D01*
X100360672Y-108072961D01*
X100354524Y-108077457D01*
X100326770Y-108079128D01*
X100299422Y-108084103D01*
X100292382Y-108081199D01*
X100284780Y-108081657D01*
X100260531Y-108068059D01*
X100234832Y-108057458D01*
X100228412Y-108050048D01*
X100223838Y-108047484D01*
X100220106Y-108040463D01*
X100205768Y-108023916D01*
X100185473Y-107989599D01*
X100158126Y-107943357D01*
X100158124Y-107943355D01*
X100158121Y-107943351D01*
X100098819Y-107884049D01*
X100065334Y-107822726D01*
X100062500Y-107796368D01*
X100062500Y-107706324D01*
X100062498Y-107706323D01*
X99947989Y-107739592D01*
X99878799Y-107739592D01*
X99750602Y-107702346D01*
X99750596Y-107702345D01*
X99714442Y-107699500D01*
X99714435Y-107699500D01*
X99499500Y-107699500D01*
X99490814Y-107696949D01*
X99481853Y-107698238D01*
X99457812Y-107687259D01*
X99432461Y-107679815D01*
X99426533Y-107672974D01*
X99418297Y-107669213D01*
X99404007Y-107646978D01*
X99386706Y-107627011D01*
X99384418Y-107616496D01*
X99380523Y-107610435D01*
X99375500Y-107575500D01*
X99375500Y-107424500D01*
X99395185Y-107357461D01*
X99447989Y-107311706D01*
X99499500Y-107300500D01*
X103288331Y-107300500D01*
X103288347Y-107300501D01*
X103295943Y-107300501D01*
X103454054Y-107300501D01*
X103454057Y-107300501D01*
X103606785Y-107259577D01*
X103656904Y-107230639D01*
X103743716Y-107180520D01*
X103855520Y-107068716D01*
X103855520Y-107068714D01*
X103865728Y-107058507D01*
X103865730Y-107058504D01*
X104333506Y-106590728D01*
X104333511Y-106590724D01*
X104343714Y-106580520D01*
X104343716Y-106580520D01*
X104455520Y-106468716D01*
X104507747Y-106378256D01*
X104534577Y-106331785D01*
X104575500Y-106179057D01*
X104575500Y-106020943D01*
X104575500Y-104524499D01*
X104595185Y-104457460D01*
X104647989Y-104411705D01*
X104699500Y-104400499D01*
X104787502Y-104400499D01*
X104787508Y-104400499D01*
X104890297Y-104389999D01*
X105056834Y-104334814D01*
X105206156Y-104242712D01*
X105330212Y-104118656D01*
X105422314Y-103969334D01*
X105477499Y-103802797D01*
X105488000Y-103700009D01*
X105488000Y-103424500D01*
X105507685Y-103357461D01*
X105560489Y-103311706D01*
X105612000Y-103300500D01*
X106298915Y-103300500D01*
X106365954Y-103320185D01*
X106411709Y-103372989D01*
X106416618Y-103385489D01*
X106452686Y-103494334D01*
X106544788Y-103643656D01*
X106668844Y-103767712D01*
X106818166Y-103859814D01*
X106984703Y-103914999D01*
X107087491Y-103925500D01*
X107687508Y-103925499D01*
X107687516Y-103925498D01*
X107687519Y-103925498D01*
X107743802Y-103919748D01*
X107790297Y-103914999D01*
X107956834Y-103859814D01*
X108106156Y-103767712D01*
X108230212Y-103643656D01*
X108232252Y-103640347D01*
X108234245Y-103638555D01*
X108234693Y-103637989D01*
X108234789Y-103638065D01*
X108284194Y-103593623D01*
X108353156Y-103582395D01*
X108417240Y-103610234D01*
X108443329Y-103640339D01*
X108445181Y-103643341D01*
X108445183Y-103643344D01*
X108569154Y-103767315D01*
X108718375Y-103859356D01*
X108718380Y-103859358D01*
X108884802Y-103914505D01*
X108884809Y-103914506D01*
X108987519Y-103924999D01*
X109537500Y-103924999D01*
X109587472Y-103924999D01*
X109587486Y-103924998D01*
X109690197Y-103914505D01*
X109856619Y-103859358D01*
X109856624Y-103859356D01*
X110005845Y-103767315D01*
X110129815Y-103643345D01*
X110221856Y-103494124D01*
X110221858Y-103494119D01*
X110277005Y-103327697D01*
X110277006Y-103327690D01*
X110287499Y-103224986D01*
X110287500Y-103224973D01*
X110287500Y-102950000D01*
X109537500Y-102950000D01*
X109537500Y-103924999D01*
X108987519Y-103924999D01*
X109037499Y-103924998D01*
X109037500Y-103924998D01*
X109037500Y-102450000D01*
X109537500Y-102450000D01*
X110287499Y-102450000D01*
X110287499Y-102175028D01*
X110287498Y-102175013D01*
X110277005Y-102072302D01*
X110221858Y-101905880D01*
X110221856Y-101905875D01*
X110129815Y-101756654D01*
X110005845Y-101632684D01*
X109856624Y-101540643D01*
X109856619Y-101540641D01*
X109690197Y-101485494D01*
X109690190Y-101485493D01*
X109587486Y-101475000D01*
X109537500Y-101475000D01*
X109537500Y-102450000D01*
X109037500Y-102450000D01*
X109037500Y-101475000D01*
X109037499Y-101474999D01*
X108987529Y-101475000D01*
X108987511Y-101475001D01*
X108884802Y-101485494D01*
X108718380Y-101540641D01*
X108718375Y-101540643D01*
X108569154Y-101632684D01*
X108445183Y-101756655D01*
X108445179Y-101756660D01*
X108443326Y-101759665D01*
X108441518Y-101761290D01*
X108440702Y-101762323D01*
X108440525Y-101762183D01*
X108391374Y-101806385D01*
X108322411Y-101817601D01*
X108258331Y-101789752D01*
X108232253Y-101759653D01*
X108232237Y-101759628D01*
X108230212Y-101756344D01*
X108106156Y-101632288D01*
X107956834Y-101540186D01*
X107790297Y-101485001D01*
X107790295Y-101485000D01*
X107687510Y-101474500D01*
X107087498Y-101474500D01*
X107087480Y-101474501D01*
X106984703Y-101485000D01*
X106984700Y-101485001D01*
X106818168Y-101540185D01*
X106818163Y-101540187D01*
X106668842Y-101632289D01*
X106544789Y-101756342D01*
X106452687Y-101905663D01*
X106452685Y-101905668D01*
X106416621Y-102014504D01*
X106376848Y-102071949D01*
X106312333Y-102098772D01*
X106298915Y-102099500D01*
X105611999Y-102099500D01*
X105544960Y-102079815D01*
X105499205Y-102027011D01*
X105487999Y-101975500D01*
X105487999Y-101699998D01*
X105487998Y-101699981D01*
X105477499Y-101597203D01*
X105477498Y-101597200D01*
X105440482Y-101485494D01*
X105422314Y-101430666D01*
X105330212Y-101281344D01*
X105206156Y-101157288D01*
X105056834Y-101065186D01*
X104890297Y-101010001D01*
X104890295Y-101010000D01*
X104787510Y-100999500D01*
X103187498Y-100999500D01*
X103187481Y-100999501D01*
X103084703Y-101010000D01*
X103084700Y-101010001D01*
X102918168Y-101065185D01*
X102918163Y-101065187D01*
X102768842Y-101157289D01*
X102644789Y-101281342D01*
X102552687Y-101430663D01*
X102552686Y-101430666D01*
X102497501Y-101597203D01*
X102497501Y-101597204D01*
X102497500Y-101597204D01*
X102487000Y-101699983D01*
X102487000Y-103700001D01*
X102487001Y-103700018D01*
X102497500Y-103802796D01*
X102497501Y-103802799D01*
X102552685Y-103969331D01*
X102552687Y-103969336D01*
X102587569Y-104025888D01*
X102644788Y-104118656D01*
X102768844Y-104242712D01*
X102918166Y-104334814D01*
X103084703Y-104389999D01*
X103187491Y-104400500D01*
X103250500Y-104400499D01*
X103317538Y-104420183D01*
X103363294Y-104472986D01*
X103374500Y-104524499D01*
X103374500Y-105799903D01*
X103365855Y-105829343D01*
X103359332Y-105859330D01*
X103355577Y-105864345D01*
X103354815Y-105866942D01*
X103338181Y-105887584D01*
X103162584Y-106063181D01*
X103101261Y-106096666D01*
X103074903Y-106099500D01*
X98695943Y-106099500D01*
X98543216Y-106140423D01*
X98543209Y-106140426D01*
X98406290Y-106219475D01*
X98406282Y-106219481D01*
X98294481Y-106331282D01*
X98294475Y-106331290D01*
X98215426Y-106468209D01*
X98215423Y-106468216D01*
X98174500Y-106620943D01*
X98174500Y-107575500D01*
X98154815Y-107642539D01*
X98102011Y-107688294D01*
X98050500Y-107699500D01*
X97762000Y-107699500D01*
X97694961Y-107679815D01*
X97649206Y-107627011D01*
X97638000Y-107575500D01*
X97638000Y-103909797D01*
X97657685Y-103842758D01*
X97696903Y-103804258D01*
X97756156Y-103767712D01*
X97880212Y-103643656D01*
X97972314Y-103494334D01*
X98008379Y-103385494D01*
X98048152Y-103328051D01*
X98112667Y-103301228D01*
X98126085Y-103300500D01*
X98663001Y-103300500D01*
X98730040Y-103320185D01*
X98775795Y-103372989D01*
X98787001Y-103424500D01*
X98787001Y-103700018D01*
X98797500Y-103802796D01*
X98797501Y-103802799D01*
X98852685Y-103969331D01*
X98852687Y-103969336D01*
X98887569Y-104025888D01*
X98944788Y-104118656D01*
X99068844Y-104242712D01*
X99218166Y-104334814D01*
X99384703Y-104389999D01*
X99487491Y-104400500D01*
X101087508Y-104400499D01*
X101190297Y-104389999D01*
X101356834Y-104334814D01*
X101506156Y-104242712D01*
X101630212Y-104118656D01*
X101722314Y-103969334D01*
X101777499Y-103802797D01*
X101788000Y-103700009D01*
X101787999Y-101699992D01*
X101777499Y-101597203D01*
X101722314Y-101430666D01*
X101630212Y-101281344D01*
X101506156Y-101157288D01*
X101356834Y-101065186D01*
X101190297Y-101010001D01*
X101190295Y-101010000D01*
X101087510Y-100999500D01*
X99487498Y-100999500D01*
X99487481Y-100999501D01*
X99384703Y-101010000D01*
X99384700Y-101010001D01*
X99218168Y-101065185D01*
X99218163Y-101065187D01*
X99068842Y-101157289D01*
X98944789Y-101281342D01*
X98852687Y-101430663D01*
X98852686Y-101430666D01*
X98797501Y-101597203D01*
X98797501Y-101597204D01*
X98797500Y-101597204D01*
X98787000Y-101699983D01*
X98787000Y-101975500D01*
X98767315Y-102042539D01*
X98714511Y-102088294D01*
X98663000Y-102099500D01*
X98126085Y-102099500D01*
X98059046Y-102079815D01*
X98013291Y-102027011D01*
X98008379Y-102014504D01*
X97972314Y-101905666D01*
X97880212Y-101756344D01*
X97756156Y-101632288D01*
X97606834Y-101540186D01*
X97440297Y-101485001D01*
X97440295Y-101485000D01*
X97337510Y-101474500D01*
X96737498Y-101474500D01*
X96737480Y-101474501D01*
X96634703Y-101485000D01*
X96634700Y-101485001D01*
X96468168Y-101540185D01*
X96468163Y-101540187D01*
X96318842Y-101632289D01*
X96194788Y-101756343D01*
X96194783Y-101756349D01*
X96192741Y-101759661D01*
X96190747Y-101761453D01*
X96190307Y-101762011D01*
X96190211Y-101761935D01*
X96140791Y-101806383D01*
X96071828Y-101817602D01*
X96007747Y-101789755D01*
X95981668Y-101759656D01*
X95979819Y-101756659D01*
X95979816Y-101756655D01*
X95855845Y-101632684D01*
X95706624Y-101540643D01*
X95706619Y-101540641D01*
X95540197Y-101485494D01*
X95540190Y-101485493D01*
X95437486Y-101475000D01*
X95387500Y-101475000D01*
X95387500Y-103924999D01*
X95437472Y-103924999D01*
X95437486Y-103924998D01*
X95540197Y-103914505D01*
X95706619Y-103859358D01*
X95706624Y-103859356D01*
X95855845Y-103767315D01*
X95979818Y-103643342D01*
X95981665Y-103640348D01*
X95983469Y-103638724D01*
X95984298Y-103637677D01*
X95984476Y-103637818D01*
X96033610Y-103593621D01*
X96102573Y-103582396D01*
X96166656Y-103610236D01*
X96192742Y-103640339D01*
X96194788Y-103643656D01*
X96318844Y-103767712D01*
X96378096Y-103804258D01*
X96424821Y-103856204D01*
X96437000Y-103909797D01*
X96437000Y-107975830D01*
X96436999Y-107975848D01*
X96436999Y-108141554D01*
X96436998Y-108141554D01*
X96477923Y-108294286D01*
X96490126Y-108315420D01*
X96490127Y-108315425D01*
X96490129Y-108315425D01*
X96556979Y-108431214D01*
X96556981Y-108431217D01*
X96675849Y-108550085D01*
X96675855Y-108550090D01*
X97100681Y-108974916D01*
X97134166Y-109036239D01*
X97137000Y-109062597D01*
X97137000Y-109400500D01*
X97117315Y-109467539D01*
X97064511Y-109513294D01*
X97013000Y-109524500D01*
X95885577Y-109524500D01*
X95885552Y-109524501D01*
X95849401Y-109527346D01*
X95694610Y-109572317D01*
X95694603Y-109572320D01*
X95555863Y-109654369D01*
X95555851Y-109654378D01*
X95441878Y-109768351D01*
X95441869Y-109768363D01*
X95359820Y-109907103D01*
X95359817Y-109907110D01*
X95314846Y-110061897D01*
X95314845Y-110061903D01*
X95312000Y-110098057D01*
X95312000Y-110501922D01*
X95312001Y-110501947D01*
X95314846Y-110538098D01*
X95351832Y-110665404D01*
X95351832Y-110734594D01*
X95314846Y-110861897D01*
X95314845Y-110861903D01*
X95312000Y-110898057D01*
X95312000Y-111301922D01*
X95312001Y-111301947D01*
X95314846Y-111338098D01*
X95351832Y-111465404D01*
X95351832Y-111534594D01*
X95314846Y-111661897D01*
X95314845Y-111661903D01*
X95312000Y-111698057D01*
X95312000Y-112101922D01*
X95312001Y-112101947D01*
X95314846Y-112138098D01*
X95351832Y-112265404D01*
X95351832Y-112334594D01*
X95314846Y-112461897D01*
X95314845Y-112461903D01*
X95312000Y-112498057D01*
X95312000Y-112901922D01*
X95312001Y-112901947D01*
X95314846Y-112938098D01*
X95351832Y-113065404D01*
X95351832Y-113134594D01*
X95314846Y-113261897D01*
X95314845Y-113261903D01*
X95312000Y-113298057D01*
X95312000Y-113701922D01*
X95312001Y-113701947D01*
X95314846Y-113738098D01*
X95351832Y-113865404D01*
X95351832Y-113934594D01*
X95314846Y-114061897D01*
X95314845Y-114061903D01*
X95312000Y-114098057D01*
X95312000Y-114501922D01*
X95312001Y-114501947D01*
X95314846Y-114538098D01*
X95351832Y-114665404D01*
X95351832Y-114734594D01*
X95314846Y-114861897D01*
X95314845Y-114861903D01*
X95312000Y-114898057D01*
X95312000Y-115301922D01*
X95312001Y-115301947D01*
X95314846Y-115338098D01*
X95351832Y-115465404D01*
X95351832Y-115534594D01*
X95314846Y-115661897D01*
X95314845Y-115661903D01*
X95312000Y-115698057D01*
X95312000Y-116101922D01*
X95312001Y-116101947D01*
X95314846Y-116138098D01*
X95359817Y-116292889D01*
X95359820Y-116292896D01*
X95441869Y-116431636D01*
X95441878Y-116431648D01*
X95555851Y-116545621D01*
X95555855Y-116545624D01*
X95555857Y-116545626D01*
X95555860Y-116545627D01*
X95555863Y-116545630D01*
X95644529Y-116598066D01*
X95694606Y-116627681D01*
X95735428Y-116639541D01*
X95849397Y-116672653D01*
X95849400Y-116672653D01*
X95849402Y-116672654D01*
X95885565Y-116675500D01*
X97013000Y-116675499D01*
X97080039Y-116695184D01*
X97125794Y-116747987D01*
X97137000Y-116799499D01*
X97137001Y-117875500D01*
X97117317Y-117942539D01*
X97064513Y-117988294D01*
X97013001Y-117999500D01*
X96411670Y-117999500D01*
X96411654Y-117999499D01*
X96404058Y-117999499D01*
X96245943Y-117999499D01*
X96170867Y-118019616D01*
X96093214Y-118040423D01*
X96093209Y-118040426D01*
X95956290Y-118119475D01*
X95956282Y-118119481D01*
X95362582Y-118713181D01*
X95301259Y-118746666D01*
X95274901Y-118749500D01*
X94649998Y-118749500D01*
X94649980Y-118749501D01*
X94547203Y-118760000D01*
X94547200Y-118760001D01*
X94380668Y-118815185D01*
X94380663Y-118815187D01*
X94231342Y-118907289D01*
X94107289Y-119031342D01*
X94015187Y-119180663D01*
X94015185Y-119180668D01*
X93998617Y-119230668D01*
X93960001Y-119347203D01*
X93960001Y-119347204D01*
X93960000Y-119347204D01*
X93949500Y-119449983D01*
X93949500Y-120050001D01*
X93949501Y-120050019D01*
X93960000Y-120152796D01*
X93960001Y-120152799D01*
X94015185Y-120319331D01*
X94015187Y-120319336D01*
X94045643Y-120368713D01*
X94107288Y-120468656D01*
X94231344Y-120592712D01*
X94234628Y-120594737D01*
X94234653Y-120594753D01*
X94236445Y-120596746D01*
X94237011Y-120597193D01*
X94236934Y-120597289D01*
X94281379Y-120646699D01*
X94292603Y-120715661D01*
X94264761Y-120779744D01*
X94234665Y-120805826D01*
X94231660Y-120807679D01*
X94231655Y-120807683D01*
X94107684Y-120931654D01*
X94015643Y-121080875D01*
X94015641Y-121080880D01*
X93960494Y-121247302D01*
X93960493Y-121247309D01*
X93950000Y-121350013D01*
X93950000Y-121400000D01*
X96399999Y-121400000D01*
X96399999Y-121350028D01*
X96399998Y-121350013D01*
X96389505Y-121247302D01*
X96334358Y-121080880D01*
X96334356Y-121080875D01*
X96242315Y-120931654D01*
X96118344Y-120807683D01*
X96118341Y-120807681D01*
X96115339Y-120805829D01*
X96113713Y-120804021D01*
X96112677Y-120803202D01*
X96112817Y-120803024D01*
X96068617Y-120753880D01*
X96057397Y-120684917D01*
X96085243Y-120620836D01*
X96115344Y-120594754D01*
X96118656Y-120592712D01*
X96242712Y-120468656D01*
X96334814Y-120319334D01*
X96389999Y-120152797D01*
X96400500Y-120050009D01*
X96400499Y-119449992D01*
X96399419Y-119439422D01*
X96399776Y-119437497D01*
X96399093Y-119435664D01*
X96406133Y-119403300D01*
X96412187Y-119370731D01*
X96413660Y-119368699D01*
X96413945Y-119367391D01*
X96435093Y-119339141D01*
X96537418Y-119236818D01*
X96598741Y-119203334D01*
X96625098Y-119200500D01*
X98150500Y-119200500D01*
X98217539Y-119220185D01*
X98263294Y-119272989D01*
X98274500Y-119324500D01*
X98274500Y-121833084D01*
X98254815Y-121900123D01*
X98202011Y-121945878D01*
X98197887Y-121947574D01*
X98025707Y-122032967D01*
X98025704Y-122032969D01*
X97877278Y-122152277D01*
X97877277Y-122152278D01*
X97757969Y-122300704D01*
X97757967Y-122300707D01*
X97673360Y-122471302D01*
X97627400Y-122656107D01*
X97624500Y-122698879D01*
X97624500Y-124101122D01*
X97624501Y-124101125D01*
X97627399Y-124143886D01*
X97627399Y-124143887D01*
X97645884Y-124218214D01*
X97667826Y-124306446D01*
X97673360Y-124328696D01*
X97757967Y-124499292D01*
X97757969Y-124499295D01*
X97877277Y-124647721D01*
X97877278Y-124647722D01*
X98025704Y-124767030D01*
X98025707Y-124767032D01*
X98196302Y-124851639D01*
X98196303Y-124851639D01*
X98196307Y-124851641D01*
X98381111Y-124897600D01*
X98423877Y-124900500D01*
X99326122Y-124900499D01*
X99368889Y-124897600D01*
X99553693Y-124851641D01*
X99724296Y-124767030D01*
X99872722Y-124647722D01*
X99928675Y-124578112D01*
X99986015Y-124538196D01*
X100055837Y-124535616D01*
X100115970Y-124571194D01*
X100121967Y-124578115D01*
X100177632Y-124647366D01*
X100177633Y-124647367D01*
X100325974Y-124766607D01*
X100325977Y-124766609D01*
X100496476Y-124851168D01*
X100681175Y-124897102D01*
X100723903Y-124900000D01*
X100925000Y-124900000D01*
X100925000Y-121900000D01*
X101425000Y-121900000D01*
X101425000Y-124900000D01*
X101626097Y-124900000D01*
X101668824Y-124897102D01*
X101853523Y-124851168D01*
X102024022Y-124766609D01*
X102024025Y-124766607D01*
X102172366Y-124647367D01*
X102172367Y-124647366D01*
X102228033Y-124578115D01*
X102285376Y-124538196D01*
X102355198Y-124535616D01*
X102415331Y-124571194D01*
X102421305Y-124578089D01*
X102477278Y-124647722D01*
X102477280Y-124647724D01*
X102625704Y-124767030D01*
X102625707Y-124767032D01*
X102796302Y-124851639D01*
X102796303Y-124851639D01*
X102796307Y-124851641D01*
X102981111Y-124897600D01*
X103023877Y-124900500D01*
X103926122Y-124900499D01*
X103968889Y-124897600D01*
X104153693Y-124851641D01*
X104324296Y-124767030D01*
X104472722Y-124647722D01*
X104592030Y-124499296D01*
X104676641Y-124328693D01*
X104722600Y-124143889D01*
X104724483Y-124116108D01*
X104748658Y-124050557D01*
X104804436Y-124008479D01*
X104848199Y-124000500D01*
X106324903Y-124000500D01*
X106391942Y-124020185D01*
X106412584Y-124036819D01*
X107038181Y-124662416D01*
X107071666Y-124723739D01*
X107074500Y-124750097D01*
X107074500Y-126913330D01*
X107074499Y-126913348D01*
X107074499Y-127079054D01*
X107074498Y-127079054D01*
X107115422Y-127231783D01*
X107142715Y-127279055D01*
X107142717Y-127279058D01*
X107194479Y-127368714D01*
X107194481Y-127368717D01*
X107323720Y-127497956D01*
X107323725Y-127497960D01*
X107506284Y-127680520D01*
X107506286Y-127680521D01*
X107506290Y-127680524D01*
X107643209Y-127759573D01*
X107643216Y-127759577D01*
X107795943Y-127800501D01*
X107795945Y-127800501D01*
X107961654Y-127800501D01*
X107961670Y-127800500D01*
X109000501Y-127800500D01*
X109067540Y-127820185D01*
X109113295Y-127872989D01*
X109124501Y-127924500D01*
X109124501Y-128097876D01*
X109130908Y-128157483D01*
X109181202Y-128292328D01*
X109181206Y-128292335D01*
X109267452Y-128407544D01*
X109267455Y-128407547D01*
X109382664Y-128493793D01*
X109382671Y-128493797D01*
X109517517Y-128544091D01*
X109517516Y-128544091D01*
X109524444Y-128544835D01*
X109577127Y-128550500D01*
X111372872Y-128550499D01*
X111432483Y-128544091D01*
X111567331Y-128493796D01*
X111682546Y-128407546D01*
X111768796Y-128292331D01*
X111819091Y-128157483D01*
X111825500Y-128097873D01*
X111825500Y-127924500D01*
X111845185Y-127857461D01*
X111897989Y-127811706D01*
X111949500Y-127800500D01*
X113465202Y-127800500D01*
X113532241Y-127820185D01*
X113570739Y-127859401D01*
X113607288Y-127918656D01*
X113731344Y-128042712D01*
X113880666Y-128134814D01*
X114047203Y-128189999D01*
X114149991Y-128200500D01*
X115200008Y-128200499D01*
X115200016Y-128200498D01*
X115200019Y-128200498D01*
X115256302Y-128194748D01*
X115302797Y-128189999D01*
X115469334Y-128134814D01*
X115618656Y-128042712D01*
X115742712Y-127918656D01*
X115834814Y-127769334D01*
X115889999Y-127602797D01*
X115900500Y-127500009D01*
X115900499Y-126899992D01*
X115889999Y-126797203D01*
X115834814Y-126630666D01*
X115742712Y-126481344D01*
X115618656Y-126357288D01*
X115615342Y-126355243D01*
X115613546Y-126353248D01*
X115612989Y-126352807D01*
X115613064Y-126352711D01*
X115568618Y-126303297D01*
X115557397Y-126234334D01*
X115585240Y-126170252D01*
X115615348Y-126144165D01*
X115618342Y-126142318D01*
X115742315Y-126018345D01*
X115834356Y-125869124D01*
X115834358Y-125869119D01*
X115889505Y-125702697D01*
X115889506Y-125702690D01*
X115899999Y-125599986D01*
X115900000Y-125599973D01*
X115900000Y-125550000D01*
X113450001Y-125550000D01*
X113450001Y-125599986D01*
X113460494Y-125702697D01*
X113515641Y-125869119D01*
X113515643Y-125869124D01*
X113607684Y-126018345D01*
X113731655Y-126142316D01*
X113731659Y-126142319D01*
X113734656Y-126144168D01*
X113736279Y-126145972D01*
X113737323Y-126146798D01*
X113737181Y-126146976D01*
X113781381Y-126196116D01*
X113792602Y-126265079D01*
X113764759Y-126329161D01*
X113734661Y-126355241D01*
X113731349Y-126357283D01*
X113731343Y-126357288D01*
X113607289Y-126481342D01*
X113607288Y-126481344D01*
X113579121Y-126527011D01*
X113570741Y-126540597D01*
X113518793Y-126587321D01*
X113465202Y-126599500D01*
X111949499Y-126599500D01*
X111882460Y-126579815D01*
X111836705Y-126527011D01*
X111825499Y-126475500D01*
X111825499Y-126302129D01*
X111825498Y-126302123D01*
X111825497Y-126302116D01*
X111819091Y-126242517D01*
X111806963Y-126210001D01*
X111768797Y-126107671D01*
X111768793Y-126107664D01*
X111682547Y-125992455D01*
X111682544Y-125992452D01*
X111567335Y-125906206D01*
X111567328Y-125906202D01*
X111432482Y-125855908D01*
X111432483Y-125855908D01*
X111372883Y-125849501D01*
X111372881Y-125849500D01*
X111372873Y-125849500D01*
X111372865Y-125849500D01*
X111362309Y-125849500D01*
X111295270Y-125829815D01*
X111274628Y-125813181D01*
X110604408Y-125142962D01*
X110667993Y-125125925D01*
X110782007Y-125060099D01*
X110875099Y-124967007D01*
X110940925Y-124852993D01*
X110957962Y-124789408D01*
X111590270Y-125421717D01*
X111590270Y-125421716D01*
X111629622Y-125367554D01*
X111726095Y-125178217D01*
X111783997Y-125000013D01*
X113450000Y-125000013D01*
X113450000Y-125050000D01*
X114425000Y-125050000D01*
X114925000Y-125050000D01*
X115899999Y-125050000D01*
X115899999Y-125000028D01*
X115899998Y-125000013D01*
X115889505Y-124897302D01*
X115834358Y-124730880D01*
X115834356Y-124730875D01*
X115742315Y-124581654D01*
X115618345Y-124457684D01*
X115469124Y-124365643D01*
X115469119Y-124365641D01*
X115302697Y-124310494D01*
X115302690Y-124310493D01*
X115199986Y-124300000D01*
X114925000Y-124300000D01*
X114925000Y-125050000D01*
X114425000Y-125050000D01*
X114425000Y-124300000D01*
X114150029Y-124300000D01*
X114150012Y-124300001D01*
X114047302Y-124310494D01*
X113880880Y-124365641D01*
X113880875Y-124365643D01*
X113731654Y-124457684D01*
X113607684Y-124581654D01*
X113515643Y-124730875D01*
X113515641Y-124730880D01*
X113460494Y-124897302D01*
X113460493Y-124897309D01*
X113450000Y-125000013D01*
X111783997Y-125000013D01*
X111791757Y-124976130D01*
X111791758Y-124976126D01*
X111825000Y-124766246D01*
X111825000Y-124553753D01*
X111791757Y-124343872D01*
X111791757Y-124343869D01*
X111726095Y-124141782D01*
X111629624Y-123952449D01*
X111590270Y-123898282D01*
X111590269Y-123898282D01*
X110957962Y-124530590D01*
X110940925Y-124467007D01*
X110875099Y-124352993D01*
X110782007Y-124259901D01*
X110667993Y-124194075D01*
X110604409Y-124177037D01*
X111236716Y-123544728D01*
X111182550Y-123505375D01*
X110993217Y-123408904D01*
X110791129Y-123343242D01*
X110581246Y-123310000D01*
X110368754Y-123310000D01*
X110158872Y-123343242D01*
X110158869Y-123343242D01*
X109956782Y-123408904D01*
X109767439Y-123505380D01*
X109713282Y-123544727D01*
X109713282Y-123544728D01*
X110345591Y-124177037D01*
X110282007Y-124194075D01*
X110167993Y-124259901D01*
X110074901Y-124352993D01*
X110009075Y-124467007D01*
X109992037Y-124530591D01*
X109359728Y-123898282D01*
X109359727Y-123898282D01*
X109320380Y-123952439D01*
X109223904Y-124141782D01*
X109158242Y-124343869D01*
X109158242Y-124343872D01*
X109125000Y-124553753D01*
X109125000Y-124766246D01*
X109158242Y-124976127D01*
X109158242Y-124976130D01*
X109223904Y-125178217D01*
X109320375Y-125367550D01*
X109359728Y-125421716D01*
X109992037Y-124789408D01*
X110009075Y-124852993D01*
X110074901Y-124967007D01*
X110167993Y-125060099D01*
X110282007Y-125125925D01*
X110345590Y-125142962D01*
X109675370Y-125813181D01*
X109614047Y-125846666D01*
X109587698Y-125849500D01*
X109577134Y-125849500D01*
X109577123Y-125849501D01*
X109517516Y-125855908D01*
X109382671Y-125906202D01*
X109382664Y-125906206D01*
X109267455Y-125992452D01*
X109267452Y-125992455D01*
X109181206Y-126107664D01*
X109181202Y-126107671D01*
X109130908Y-126242517D01*
X109124501Y-126302116D01*
X109124501Y-126302123D01*
X109124500Y-126302135D01*
X109124500Y-126475500D01*
X109104815Y-126542539D01*
X109052011Y-126588294D01*
X109000500Y-126599500D01*
X108399500Y-126599500D01*
X108332461Y-126579815D01*
X108286706Y-126527011D01*
X108275500Y-126475500D01*
X108275500Y-124370945D01*
X108275500Y-124370943D01*
X108234577Y-124218216D01*
X108234577Y-124218215D01*
X108234577Y-124218214D01*
X108205639Y-124168095D01*
X108205637Y-124168092D01*
X108191662Y-124143886D01*
X108155520Y-124081284D01*
X108043716Y-123969480D01*
X108043715Y-123969479D01*
X108039385Y-123965149D01*
X108039374Y-123965139D01*
X107112590Y-123038355D01*
X107112588Y-123038352D01*
X106993717Y-122919481D01*
X106993716Y-122919480D01*
X106906904Y-122869360D01*
X106906904Y-122869359D01*
X106906900Y-122869358D01*
X106856785Y-122840423D01*
X106704057Y-122799499D01*
X106545943Y-122799499D01*
X106538347Y-122799499D01*
X106538331Y-122799500D01*
X104848199Y-122799500D01*
X104781160Y-122779815D01*
X104735405Y-122727011D01*
X104724483Y-122683886D01*
X104722600Y-122656113D01*
X104722600Y-122656112D01*
X104721080Y-122649999D01*
X104676641Y-122471307D01*
X104625577Y-122368345D01*
X104592032Y-122300707D01*
X104592030Y-122300704D01*
X104472722Y-122152278D01*
X104472721Y-122152277D01*
X104324295Y-122032969D01*
X104324292Y-122032967D01*
X104153697Y-121948360D01*
X103968892Y-121902400D01*
X103947506Y-121900950D01*
X103926123Y-121899500D01*
X103926120Y-121899500D01*
X103023877Y-121899500D01*
X103023874Y-121899501D01*
X102981113Y-121902399D01*
X102981112Y-121902399D01*
X102796303Y-121948360D01*
X102625707Y-122032967D01*
X102625704Y-122032969D01*
X102477280Y-122152276D01*
X102477278Y-122152278D01*
X102449625Y-122186678D01*
X102421326Y-122221885D01*
X102363982Y-122261803D01*
X102294160Y-122264383D01*
X102234027Y-122228804D01*
X102228031Y-122221884D01*
X102172364Y-122152630D01*
X102024025Y-122033392D01*
X102024022Y-122033390D01*
X101853523Y-121948831D01*
X101668824Y-121902897D01*
X101626097Y-121900000D01*
X101425000Y-121900000D01*
X100925000Y-121900000D01*
X100723903Y-121900000D01*
X100681175Y-121902897D01*
X100496476Y-121948831D01*
X100325977Y-122033390D01*
X100325974Y-122033392D01*
X100177635Y-122152631D01*
X100121967Y-122221885D01*
X100064624Y-122261803D01*
X99994801Y-122264383D01*
X99934669Y-122228804D01*
X99928673Y-122221884D01*
X99872722Y-122152278D01*
X99872721Y-122152277D01*
X99724295Y-122032969D01*
X99724292Y-122032967D01*
X99547671Y-121945372D01*
X99548617Y-121943464D01*
X99500590Y-121907869D01*
X99475860Y-121842522D01*
X99475500Y-121833084D01*
X99475500Y-118889060D01*
X99475501Y-118889047D01*
X99475501Y-118720944D01*
X99471554Y-118706215D01*
X99458258Y-118656592D01*
X99459921Y-118586743D01*
X99499083Y-118528880D01*
X99563312Y-118501376D01*
X99578033Y-118500499D01*
X99714422Y-118500499D01*
X99714434Y-118500499D01*
X99750598Y-118497654D01*
X99877906Y-118460667D01*
X99947094Y-118460667D01*
X100074402Y-118497654D01*
X100110565Y-118500500D01*
X100514434Y-118500499D01*
X100550598Y-118497654D01*
X100678801Y-118460407D01*
X100747990Y-118460407D01*
X100862499Y-118493674D01*
X100862500Y-118493674D01*
X100862500Y-118403631D01*
X100868929Y-118381736D01*
X100870813Y-118358993D01*
X100879550Y-118345563D01*
X100882185Y-118336592D01*
X100888075Y-118328208D01*
X100893039Y-118321729D01*
X100958126Y-118256643D01*
X101009557Y-118169676D01*
X101014075Y-118163781D01*
X101036518Y-118147371D01*
X101056836Y-118128400D01*
X101064328Y-118127037D01*
X101070476Y-118122542D01*
X101098229Y-118120870D01*
X101125578Y-118115896D01*
X101132617Y-118118799D01*
X101140220Y-118118342D01*
X101164470Y-118131940D01*
X101190167Y-118142541D01*
X101196586Y-118149949D01*
X101201162Y-118152515D01*
X101204894Y-118159536D01*
X101219230Y-118176080D01*
X101266874Y-118256643D01*
X101326182Y-118315951D01*
X101359666Y-118377272D01*
X101362500Y-118403631D01*
X101362500Y-118493674D01*
X101477008Y-118460407D01*
X101546198Y-118460407D01*
X101674397Y-118497653D01*
X101674400Y-118497653D01*
X101674402Y-118497654D01*
X101710565Y-118500500D01*
X102041618Y-118500499D01*
X102053133Y-118503880D01*
X102065083Y-118502739D01*
X102086037Y-118513541D01*
X102108657Y-118520183D01*
X102118069Y-118530054D01*
X102127186Y-118534754D01*
X102149004Y-118562497D01*
X102152922Y-118569284D01*
X102152923Y-118569285D01*
X102173703Y-118605276D01*
X102203331Y-118656593D01*
X102231979Y-118706215D01*
X102350849Y-118825085D01*
X102350855Y-118825090D01*
X102590139Y-119064374D01*
X102590149Y-119064385D01*
X102594479Y-119068715D01*
X102594480Y-119068716D01*
X102706284Y-119180520D01*
X102706286Y-119180521D01*
X102706290Y-119180524D01*
X102803796Y-119236818D01*
X102843216Y-119259577D01*
X102955019Y-119289534D01*
X102995942Y-119300500D01*
X102995943Y-119300500D01*
X104395234Y-119300500D01*
X104462273Y-119320185D01*
X104464125Y-119321398D01*
X104595814Y-119409390D01*
X104595827Y-119409397D01*
X104693846Y-119449997D01*
X104741503Y-119469737D01*
X104896153Y-119500499D01*
X104896156Y-119500500D01*
X104896158Y-119500500D01*
X105053844Y-119500500D01*
X105053845Y-119500499D01*
X105208497Y-119469737D01*
X105354179Y-119409394D01*
X105485289Y-119321789D01*
X105596789Y-119210289D01*
X105684394Y-119079179D01*
X105744737Y-118933497D01*
X105775500Y-118778842D01*
X105775500Y-118621158D01*
X105775500Y-118621155D01*
X105775499Y-118621153D01*
X105764969Y-118568216D01*
X105744737Y-118466503D01*
X105705024Y-118370626D01*
X105684397Y-118320827D01*
X105684390Y-118320814D01*
X105596789Y-118189711D01*
X105596786Y-118189707D01*
X105485292Y-118078213D01*
X105485288Y-118078210D01*
X105354185Y-117990609D01*
X105354172Y-117990602D01*
X105208501Y-117930264D01*
X105208489Y-117930261D01*
X105053845Y-117899500D01*
X105053842Y-117899500D01*
X104896158Y-117899500D01*
X104896155Y-117899500D01*
X104741510Y-117930261D01*
X104741498Y-117930264D01*
X104595827Y-117990602D01*
X104595809Y-117990612D01*
X104478191Y-118069202D01*
X104411514Y-118090080D01*
X104344134Y-118071595D01*
X104297444Y-118019616D01*
X104285683Y-117956370D01*
X104288000Y-117926935D01*
X104287999Y-116799498D01*
X104307684Y-116732460D01*
X104360487Y-116686705D01*
X104411999Y-116675499D01*
X105539422Y-116675499D01*
X105539434Y-116675499D01*
X105575598Y-116672654D01*
X105730394Y-116627681D01*
X105869143Y-116545626D01*
X105983126Y-116431643D01*
X106065181Y-116292894D01*
X106110154Y-116138098D01*
X106113000Y-116101935D01*
X106112999Y-115698066D01*
X106110154Y-115661902D01*
X106073167Y-115534593D01*
X106073167Y-115465406D01*
X106110154Y-115338098D01*
X106113000Y-115301935D01*
X106112999Y-114898066D01*
X106110154Y-114861902D01*
X106073167Y-114734593D01*
X106073167Y-114665406D01*
X106110154Y-114538098D01*
X106113000Y-114501935D01*
X106112999Y-114098066D01*
X106112826Y-114095874D01*
X106118928Y-114066814D01*
X106122454Y-114037325D01*
X106126029Y-114032993D01*
X106127184Y-114027498D01*
X106148029Y-114006348D01*
X106166939Y-113983446D01*
X106172288Y-113981735D01*
X106176230Y-113977737D01*
X106205200Y-113971214D01*
X106233491Y-113962171D01*
X106241250Y-113963098D01*
X106244394Y-113962391D01*
X106268529Y-113966359D01*
X106355019Y-113989534D01*
X106395942Y-114000500D01*
X106395943Y-114000500D01*
X106750500Y-114000500D01*
X106817539Y-114020185D01*
X106863294Y-114072989D01*
X106874500Y-114124500D01*
X106874500Y-118713330D01*
X106874499Y-118713348D01*
X106874499Y-118879054D01*
X106874498Y-118879054D01*
X106874499Y-118879057D01*
X106915423Y-119031785D01*
X106942786Y-119079179D01*
X106942786Y-119079180D01*
X106994475Y-119168709D01*
X106994481Y-119168717D01*
X107113349Y-119287585D01*
X107113355Y-119287590D01*
X108190139Y-120364374D01*
X108190149Y-120364385D01*
X108194479Y-120368715D01*
X108194480Y-120368716D01*
X108306284Y-120480520D01*
X108393095Y-120530639D01*
X108443215Y-120559577D01*
X108499409Y-120574634D01*
X108507335Y-120577990D01*
X108527969Y-120594886D01*
X108550741Y-120608766D01*
X108556083Y-120617907D01*
X108561394Y-120622256D01*
X108564842Y-120632895D01*
X108576693Y-120653172D01*
X108580887Y-120665826D01*
X108615185Y-120769331D01*
X108615187Y-120769336D01*
X108615435Y-120769738D01*
X108707288Y-120918656D01*
X108831344Y-121042712D01*
X108980666Y-121134814D01*
X109147203Y-121189999D01*
X109249991Y-121200500D01*
X109875008Y-121200499D01*
X109875016Y-121200498D01*
X109875019Y-121200498D01*
X109931302Y-121194748D01*
X109977797Y-121189999D01*
X110144334Y-121134814D01*
X110293656Y-121042712D01*
X110387319Y-120949049D01*
X110448642Y-120915564D01*
X110518334Y-120920548D01*
X110562681Y-120949049D01*
X110656344Y-121042712D01*
X110805666Y-121134814D01*
X110972203Y-121189999D01*
X111074991Y-121200500D01*
X111700008Y-121200499D01*
X111700016Y-121200498D01*
X111700019Y-121200498D01*
X111756302Y-121194748D01*
X111802797Y-121189999D01*
X111969334Y-121134814D01*
X112118656Y-121042712D01*
X112242712Y-120918656D01*
X112334814Y-120769334D01*
X112362595Y-120685495D01*
X112376465Y-120665463D01*
X112386588Y-120643297D01*
X112396000Y-120637248D01*
X112402368Y-120628051D01*
X112424866Y-120618697D01*
X112445366Y-120605523D01*
X112462467Y-120603064D01*
X112466884Y-120601228D01*
X112480301Y-120600500D01*
X112495234Y-120600500D01*
X112562273Y-120620185D01*
X112564125Y-120621398D01*
X112695814Y-120709390D01*
X112695827Y-120709397D01*
X112840523Y-120769331D01*
X112841503Y-120769737D01*
X112996153Y-120800499D01*
X112996156Y-120800500D01*
X112996158Y-120800500D01*
X113153844Y-120800500D01*
X113153845Y-120800499D01*
X113308497Y-120769737D01*
X113454179Y-120709394D01*
X113585289Y-120621789D01*
X113696789Y-120510289D01*
X113784394Y-120379179D01*
X113844737Y-120233497D01*
X113875500Y-120078842D01*
X113875500Y-119921158D01*
X113875500Y-119921155D01*
X113875499Y-119921153D01*
X113873281Y-119910001D01*
X113844737Y-119766503D01*
X113818072Y-119702127D01*
X113784397Y-119620827D01*
X113784390Y-119620814D01*
X113696789Y-119489711D01*
X113696786Y-119489707D01*
X113585292Y-119378213D01*
X113585288Y-119378210D01*
X113454185Y-119290609D01*
X113454172Y-119290602D01*
X113308501Y-119230264D01*
X113308489Y-119230261D01*
X113153845Y-119199500D01*
X113153842Y-119199500D01*
X112996158Y-119199500D01*
X112996155Y-119199500D01*
X112841510Y-119230261D01*
X112841498Y-119230264D01*
X112695827Y-119290602D01*
X112695814Y-119290609D01*
X112564125Y-119378602D01*
X112546078Y-119384252D01*
X112530169Y-119394477D01*
X112499207Y-119398928D01*
X112497447Y-119399480D01*
X112495234Y-119399500D01*
X112480301Y-119399500D01*
X112413262Y-119379815D01*
X112367507Y-119327011D01*
X112362595Y-119314504D01*
X112361363Y-119310785D01*
X112334814Y-119230666D01*
X112242712Y-119081344D01*
X112118656Y-118957288D01*
X111976714Y-118869738D01*
X111969336Y-118865187D01*
X111969331Y-118865185D01*
X111967862Y-118864698D01*
X111802797Y-118810001D01*
X111802795Y-118810000D01*
X111700010Y-118799500D01*
X111074998Y-118799500D01*
X111074980Y-118799501D01*
X110972203Y-118810000D01*
X110972200Y-118810001D01*
X110805668Y-118865185D01*
X110805663Y-118865187D01*
X110656342Y-118957289D01*
X110562681Y-119050951D01*
X110501358Y-119084436D01*
X110431666Y-119079452D01*
X110387319Y-119050951D01*
X110293657Y-118957289D01*
X110293656Y-118957288D01*
X110151714Y-118869738D01*
X110144336Y-118865187D01*
X110144331Y-118865185D01*
X110142862Y-118864698D01*
X109977797Y-118810001D01*
X109977795Y-118810000D01*
X109875010Y-118799500D01*
X109249998Y-118799500D01*
X109249980Y-118799501D01*
X109147203Y-118810000D01*
X109147200Y-118810001D01*
X108980668Y-118865185D01*
X108980663Y-118865187D01*
X108831345Y-118957287D01*
X108744114Y-119044518D01*
X108682790Y-119078002D01*
X108613099Y-119073018D01*
X108568752Y-119044517D01*
X108111819Y-118587584D01*
X108078334Y-118526261D01*
X108075500Y-118499903D01*
X108075500Y-117324501D01*
X108078050Y-117315815D01*
X108076762Y-117306855D01*
X108087740Y-117282816D01*
X108095185Y-117257462D01*
X108102026Y-117251534D01*
X108105787Y-117243299D01*
X108128020Y-117229010D01*
X108147989Y-117211707D01*
X108158502Y-117209419D01*
X108164564Y-117205524D01*
X108199497Y-117200501D01*
X108199499Y-117200501D01*
X108354058Y-117200501D01*
X108354061Y-117200500D01*
X108361669Y-117200500D01*
X113667297Y-117200500D01*
X113734336Y-117220185D01*
X113780091Y-117272989D01*
X113790035Y-117342147D01*
X113788914Y-117348691D01*
X113774500Y-117421153D01*
X113774500Y-117578846D01*
X113805261Y-117733489D01*
X113805264Y-117733501D01*
X113865602Y-117879172D01*
X113865609Y-117879185D01*
X113953210Y-118010288D01*
X113953213Y-118010292D01*
X114064707Y-118121786D01*
X114064711Y-118121789D01*
X114195814Y-118209390D01*
X114195827Y-118209397D01*
X114309891Y-118256643D01*
X114341503Y-118269737D01*
X114496153Y-118300499D01*
X114496156Y-118300500D01*
X114496158Y-118300500D01*
X114653844Y-118300500D01*
X114653845Y-118300499D01*
X114808497Y-118269737D01*
X114954179Y-118209394D01*
X115085289Y-118121789D01*
X115196789Y-118010289D01*
X115284394Y-117879179D01*
X115344737Y-117733497D01*
X115375500Y-117578842D01*
X115375500Y-117421158D01*
X115375500Y-117421155D01*
X115375499Y-117421153D01*
X115361086Y-117348691D01*
X115367313Y-117279100D01*
X115410176Y-117223922D01*
X115476066Y-117200678D01*
X115482703Y-117200500D01*
X116771561Y-117200500D01*
X116838600Y-117220185D01*
X116884355Y-117272989D01*
X116894299Y-117342147D01*
X116865274Y-117405703D01*
X116840452Y-117427602D01*
X116764711Y-117478210D01*
X116764707Y-117478213D01*
X116653213Y-117589707D01*
X116653210Y-117589711D01*
X116565609Y-117720814D01*
X116565602Y-117720827D01*
X116505264Y-117866498D01*
X116505261Y-117866510D01*
X116474500Y-118021153D01*
X116474500Y-118178846D01*
X116505261Y-118333489D01*
X116505264Y-118333501D01*
X116565602Y-118479172D01*
X116565609Y-118479185D01*
X116653210Y-118610288D01*
X116653213Y-118610292D01*
X116764707Y-118721786D01*
X116764711Y-118721789D01*
X116895814Y-118809390D01*
X116895827Y-118809397D01*
X117030513Y-118865185D01*
X117041503Y-118869737D01*
X117088363Y-118879058D01*
X117196849Y-118900638D01*
X117258760Y-118933023D01*
X117260339Y-118934574D01*
X117535360Y-119209596D01*
X117568845Y-119270919D01*
X117563861Y-119340611D01*
X117531453Y-119383906D01*
X117533728Y-119386180D01*
X117527451Y-119392457D01*
X117441206Y-119507664D01*
X117441202Y-119507671D01*
X117390908Y-119642517D01*
X117384501Y-119702116D01*
X117384500Y-119702135D01*
X117384500Y-121497870D01*
X117384501Y-121497876D01*
X117390908Y-121557483D01*
X117441202Y-121692328D01*
X117441206Y-121692335D01*
X117527452Y-121807544D01*
X117527455Y-121807547D01*
X117642664Y-121893793D01*
X117642671Y-121893797D01*
X117777517Y-121944091D01*
X117777516Y-121944091D01*
X117784444Y-121944835D01*
X117837127Y-121950500D01*
X119632872Y-121950499D01*
X119692483Y-121944091D01*
X119827331Y-121893796D01*
X119942546Y-121807546D01*
X120028796Y-121692331D01*
X120079091Y-121557483D01*
X120085500Y-121497873D01*
X120085499Y-121473979D01*
X120088330Y-121460963D01*
X120098940Y-121441525D01*
X120105179Y-121420275D01*
X120121803Y-121399643D01*
X120121808Y-121399636D01*
X120121811Y-121399634D01*
X120121818Y-121399626D01*
X120792037Y-120729408D01*
X120809075Y-120792993D01*
X120874901Y-120907007D01*
X120967993Y-121000099D01*
X121082007Y-121065925D01*
X121145590Y-121082962D01*
X120513282Y-121715269D01*
X120513282Y-121715270D01*
X120567449Y-121754624D01*
X120756782Y-121851095D01*
X120958870Y-121916757D01*
X121168754Y-121950000D01*
X121381246Y-121950000D01*
X121591127Y-121916757D01*
X121591130Y-121916757D01*
X121793217Y-121851095D01*
X121982554Y-121754622D01*
X122036716Y-121715270D01*
X122036717Y-121715270D01*
X121404408Y-121082962D01*
X121467993Y-121065925D01*
X121582007Y-121000099D01*
X121675099Y-120907007D01*
X121740925Y-120792993D01*
X121757962Y-120729409D01*
X122390270Y-121361717D01*
X122390270Y-121361716D01*
X122429622Y-121307554D01*
X122526095Y-121118217D01*
X122591757Y-120916130D01*
X122591757Y-120916127D01*
X122625000Y-120706246D01*
X122625000Y-120493753D01*
X122591757Y-120283872D01*
X122591757Y-120283869D01*
X122526095Y-120081782D01*
X122429624Y-119892449D01*
X122390270Y-119838282D01*
X122390269Y-119838282D01*
X121757962Y-120470590D01*
X121740925Y-120407007D01*
X121675099Y-120292993D01*
X121582007Y-120199901D01*
X121467993Y-120134075D01*
X121404409Y-120117037D01*
X122036716Y-119484728D01*
X121982550Y-119445375D01*
X121793217Y-119348904D01*
X121591129Y-119283242D01*
X121381246Y-119250000D01*
X121168754Y-119250000D01*
X120958872Y-119283242D01*
X120958869Y-119283242D01*
X120756782Y-119348904D01*
X120567439Y-119445380D01*
X120513282Y-119484727D01*
X120513282Y-119484728D01*
X121145591Y-120117037D01*
X121082007Y-120134075D01*
X120967993Y-120199901D01*
X120874901Y-120292993D01*
X120809075Y-120407007D01*
X120792037Y-120470591D01*
X120121818Y-119800372D01*
X120088333Y-119739049D01*
X120088330Y-119739036D01*
X120085499Y-119726015D01*
X120085499Y-119702128D01*
X120079091Y-119642517D01*
X120050926Y-119567002D01*
X120028798Y-119507673D01*
X120028793Y-119507664D01*
X119942547Y-119392455D01*
X119942544Y-119392452D01*
X119827335Y-119306206D01*
X119827328Y-119306202D01*
X119692482Y-119255908D01*
X119692483Y-119255908D01*
X119632883Y-119249501D01*
X119632881Y-119249500D01*
X119632873Y-119249500D01*
X119632865Y-119249500D01*
X119320722Y-119249500D01*
X119253683Y-119229815D01*
X119221984Y-119196569D01*
X119220468Y-119197733D01*
X119215522Y-119191287D01*
X119215520Y-119191284D01*
X118109573Y-118085337D01*
X118076088Y-118024014D01*
X118075637Y-118021847D01*
X118062613Y-117956370D01*
X118044737Y-117866503D01*
X118044735Y-117866498D01*
X117984397Y-117720827D01*
X117984390Y-117720814D01*
X117896789Y-117589711D01*
X117896786Y-117589707D01*
X117785292Y-117478213D01*
X117785288Y-117478210D01*
X117709548Y-117427602D01*
X117664743Y-117373990D01*
X117656036Y-117304665D01*
X117686190Y-117241637D01*
X117745634Y-117204918D01*
X117778439Y-117200500D01*
X125550500Y-117200500D01*
X125617539Y-117220185D01*
X125663294Y-117272989D01*
X125674500Y-117324500D01*
X125674500Y-119813330D01*
X125674499Y-119813348D01*
X125674499Y-119979054D01*
X125674498Y-119979054D01*
X125674499Y-119979057D01*
X125715423Y-120131785D01*
X125744036Y-120181344D01*
X125744036Y-120181345D01*
X125794475Y-120268709D01*
X125794481Y-120268717D01*
X125913349Y-120387585D01*
X125913355Y-120387590D01*
X127190139Y-121664374D01*
X127190149Y-121664385D01*
X127194479Y-121668715D01*
X127194480Y-121668716D01*
X127306284Y-121780520D01*
X127382462Y-121824500D01*
X127393095Y-121830639D01*
X127393097Y-121830641D01*
X127428524Y-121851095D01*
X127443215Y-121859577D01*
X127595943Y-121900501D01*
X127595946Y-121900501D01*
X127761653Y-121900501D01*
X127761669Y-121900500D01*
X128277702Y-121900500D01*
X128344741Y-121920185D01*
X128383239Y-121959401D01*
X128419788Y-122018656D01*
X128543844Y-122142712D01*
X128693166Y-122234814D01*
X128859703Y-122289999D01*
X128962491Y-122300500D01*
X129587508Y-122300499D01*
X129587516Y-122300498D01*
X129587519Y-122300498D01*
X129643802Y-122294748D01*
X129690297Y-122289999D01*
X129856834Y-122234814D01*
X130006156Y-122142712D01*
X130099819Y-122049049D01*
X130161142Y-122015564D01*
X130230834Y-122020548D01*
X130275181Y-122049049D01*
X130368844Y-122142712D01*
X130518166Y-122234814D01*
X130684703Y-122289999D01*
X130787491Y-122300500D01*
X131412508Y-122300499D01*
X131412516Y-122300498D01*
X131412519Y-122300498D01*
X131468802Y-122294748D01*
X131515297Y-122289999D01*
X131681834Y-122234814D01*
X131831156Y-122142712D01*
X131955212Y-122018656D01*
X132047314Y-121869334D01*
X132075095Y-121785495D01*
X132114868Y-121728051D01*
X132179384Y-121701228D01*
X132192801Y-121700500D01*
X132476000Y-121700500D01*
X132543039Y-121720185D01*
X132588794Y-121772989D01*
X132600000Y-121824500D01*
X132600000Y-131404616D01*
X132580315Y-131471655D01*
X132527511Y-131517410D01*
X132476240Y-131528616D01*
X96103414Y-131599003D01*
X96036337Y-131579448D01*
X96016125Y-131563312D01*
X94691978Y-130258000D01*
X98775000Y-130258000D01*
X98785608Y-130377325D01*
X98785609Y-130377328D01*
X98841557Y-130572861D01*
X98935721Y-130753129D01*
X99064246Y-130910753D01*
X99221870Y-131039278D01*
X99402138Y-131133442D01*
X99597671Y-131189390D01*
X99597674Y-131189391D01*
X99716999Y-131199999D01*
X99717002Y-131200000D01*
X100925000Y-131200000D01*
X101425000Y-131200000D01*
X102632998Y-131200000D01*
X102633000Y-131199999D01*
X102752325Y-131189391D01*
X102752328Y-131189390D01*
X102947861Y-131133442D01*
X103128129Y-131039278D01*
X103285753Y-130910753D01*
X103414278Y-130753129D01*
X103508442Y-130572861D01*
X103564390Y-130377328D01*
X103564391Y-130377325D01*
X103574999Y-130258000D01*
X103575000Y-130257998D01*
X103575000Y-129950000D01*
X101425000Y-129950000D01*
X101425000Y-131200000D01*
X100925000Y-131200000D01*
X100925000Y-129950000D01*
X98775000Y-129950000D01*
X98775000Y-130258000D01*
X94691978Y-130258000D01*
X93559873Y-129141999D01*
X98775000Y-129141999D01*
X98775000Y-129450000D01*
X100925000Y-129450000D01*
X101425000Y-129450000D01*
X103575000Y-129450000D01*
X103575000Y-129142002D01*
X103574999Y-129141999D01*
X103564391Y-129022674D01*
X103564390Y-129022671D01*
X103508442Y-128827138D01*
X103414278Y-128646870D01*
X103285753Y-128489246D01*
X103128129Y-128360721D01*
X102947861Y-128266557D01*
X102752328Y-128210609D01*
X102752325Y-128210608D01*
X102633000Y-128200000D01*
X101425000Y-128200000D01*
X101425000Y-129450000D01*
X100925000Y-129450000D01*
X100925000Y-128200000D01*
X99716999Y-128200000D01*
X99597674Y-128210608D01*
X99597671Y-128210609D01*
X99402138Y-128266557D01*
X99221870Y-128360721D01*
X99064246Y-128489246D01*
X98935721Y-128646870D01*
X98841557Y-128827138D01*
X98785609Y-129022671D01*
X98785608Y-129022674D01*
X98775000Y-129141999D01*
X93559873Y-129141999D01*
X93033471Y-128623085D01*
X92999549Y-128562004D01*
X92996538Y-128536680D01*
X92895978Y-121949986D01*
X93950001Y-121949986D01*
X93960494Y-122052697D01*
X94015641Y-122219119D01*
X94015643Y-122219124D01*
X94107684Y-122368345D01*
X94231654Y-122492315D01*
X94380875Y-122584356D01*
X94380880Y-122584358D01*
X94547302Y-122639505D01*
X94547309Y-122639506D01*
X94650019Y-122649999D01*
X94924999Y-122649999D01*
X95425000Y-122649999D01*
X95699972Y-122649999D01*
X95699986Y-122649998D01*
X95802697Y-122639505D01*
X95969119Y-122584358D01*
X95969124Y-122584356D01*
X96118345Y-122492315D01*
X96242315Y-122368345D01*
X96334356Y-122219124D01*
X96334358Y-122219119D01*
X96389505Y-122052697D01*
X96389506Y-122052690D01*
X96400000Y-121949982D01*
X96400000Y-121900000D01*
X95425000Y-121900000D01*
X95425000Y-122649999D01*
X94924999Y-122649999D01*
X94925000Y-122649998D01*
X94925000Y-121900000D01*
X93950001Y-121900000D01*
X93950001Y-121949986D01*
X92895978Y-121949986D01*
X92610099Y-103224986D01*
X94137501Y-103224986D01*
X94147994Y-103327697D01*
X94203141Y-103494119D01*
X94203143Y-103494124D01*
X94295184Y-103643345D01*
X94419154Y-103767315D01*
X94568375Y-103859356D01*
X94568380Y-103859358D01*
X94734802Y-103914505D01*
X94734809Y-103914506D01*
X94837519Y-103924999D01*
X94887499Y-103924998D01*
X94887500Y-103924998D01*
X94887500Y-102950000D01*
X94137501Y-102950000D01*
X94137501Y-103224986D01*
X92610099Y-103224986D01*
X92604925Y-102886068D01*
X92623583Y-102818737D01*
X92648389Y-102789876D01*
X93368474Y-102175013D01*
X94137500Y-102175013D01*
X94137500Y-102450000D01*
X94887500Y-102450000D01*
X94887500Y-101475000D01*
X94887499Y-101474999D01*
X94837529Y-101475000D01*
X94837511Y-101475001D01*
X94734802Y-101485494D01*
X94568380Y-101540641D01*
X94568375Y-101540643D01*
X94419154Y-101632684D01*
X94295184Y-101756654D01*
X94203143Y-101905875D01*
X94203141Y-101905880D01*
X94147994Y-102072302D01*
X94147993Y-102072309D01*
X94137500Y-102175013D01*
X93368474Y-102175013D01*
X95996928Y-99930641D01*
X96060690Y-99902080D01*
X96077680Y-99900943D01*
X132476242Y-99971040D01*
G37*
%TD.AperFunction*%
%TA.AperFunction,Conductor*%
G36*
X128293075Y-104107364D02*
G01*
X128317302Y-104110001D01*
X128326005Y-104117033D01*
X128336738Y-104120185D01*
X128352692Y-104138597D01*
X128371648Y-104153914D01*
X128379362Y-104169376D01*
X128382493Y-104172989D01*
X128387403Y-104185492D01*
X128415186Y-104269334D01*
X128507288Y-104418656D01*
X128631344Y-104542712D01*
X128780666Y-104634814D01*
X128947203Y-104689999D01*
X129049991Y-104700500D01*
X129675008Y-104700499D01*
X129675016Y-104700498D01*
X129675019Y-104700498D01*
X129731302Y-104694748D01*
X129777797Y-104689999D01*
X129944334Y-104634814D01*
X130093656Y-104542712D01*
X130187319Y-104449049D01*
X130248642Y-104415564D01*
X130318334Y-104420548D01*
X130362681Y-104449049D01*
X130456344Y-104542712D01*
X130605666Y-104634814D01*
X130772203Y-104689999D01*
X130874991Y-104700500D01*
X131500008Y-104700499D01*
X131500016Y-104700498D01*
X131500019Y-104700498D01*
X131556302Y-104694748D01*
X131602797Y-104689999D01*
X131769334Y-104634814D01*
X131918656Y-104542712D01*
X132042712Y-104418656D01*
X132134814Y-104269334D01*
X132162595Y-104185495D01*
X132176465Y-104165463D01*
X132186588Y-104143297D01*
X132196000Y-104137248D01*
X132202368Y-104128051D01*
X132224866Y-104118697D01*
X132245366Y-104105523D01*
X132262467Y-104103064D01*
X132266884Y-104101228D01*
X132280301Y-104100500D01*
X132476000Y-104100500D01*
X132543039Y-104120185D01*
X132588794Y-104172989D01*
X132600000Y-104224500D01*
X132600000Y-120375500D01*
X132580315Y-120442539D01*
X132527511Y-120488294D01*
X132476000Y-120499500D01*
X132192801Y-120499500D01*
X132125762Y-120479815D01*
X132080007Y-120427011D01*
X132075095Y-120414504D01*
X132072611Y-120407007D01*
X132047314Y-120330666D01*
X131955212Y-120181344D01*
X131831156Y-120057288D01*
X131681834Y-119965186D01*
X131515297Y-119910001D01*
X131515295Y-119910000D01*
X131412510Y-119899500D01*
X130787498Y-119899500D01*
X130787480Y-119899501D01*
X130684703Y-119910000D01*
X130684700Y-119910001D01*
X130518168Y-119965185D01*
X130518163Y-119965187D01*
X130368842Y-120057289D01*
X130275181Y-120150951D01*
X130213858Y-120184436D01*
X130144166Y-120179452D01*
X130099819Y-120150951D01*
X130006157Y-120057289D01*
X130006156Y-120057288D01*
X129856834Y-119965186D01*
X129690297Y-119910001D01*
X129690295Y-119910000D01*
X129587510Y-119899500D01*
X128962498Y-119899500D01*
X128962480Y-119899501D01*
X128859703Y-119910000D01*
X128859700Y-119910001D01*
X128693168Y-119965185D01*
X128693163Y-119965187D01*
X128543842Y-120057289D01*
X128419789Y-120181342D01*
X128327687Y-120330663D01*
X128327685Y-120330668D01*
X128315078Y-120368713D01*
X128273645Y-120493753D01*
X128272501Y-120497204D01*
X128272500Y-120497205D01*
X128263214Y-120588103D01*
X128262219Y-120590540D01*
X128262594Y-120593147D01*
X128249091Y-120622712D01*
X128236817Y-120652795D01*
X128234662Y-120654307D01*
X128233569Y-120656703D01*
X128206227Y-120674274D01*
X128179636Y-120692946D01*
X128176324Y-120693491D01*
X128174791Y-120694477D01*
X128139856Y-120699500D01*
X127975097Y-120699500D01*
X127908058Y-120679815D01*
X127887416Y-120663181D01*
X126911819Y-119687584D01*
X126878334Y-119626261D01*
X126875500Y-119599903D01*
X126875500Y-116520945D01*
X126875500Y-116520943D01*
X126834577Y-116368216D01*
X126823434Y-116348916D01*
X126755524Y-116231290D01*
X126755518Y-116231282D01*
X126643717Y-116119481D01*
X126643709Y-116119475D01*
X126506790Y-116040426D01*
X126506786Y-116040424D01*
X126506784Y-116040423D01*
X126354057Y-115999500D01*
X126354056Y-115999500D01*
X111457559Y-115999500D01*
X111390520Y-115979815D01*
X111344765Y-115927011D01*
X111334821Y-115857853D01*
X111363846Y-115794297D01*
X111392462Y-115769961D01*
X111518345Y-115692315D01*
X111642315Y-115568345D01*
X111734356Y-115419124D01*
X111734358Y-115419119D01*
X111789505Y-115252697D01*
X111789506Y-115252690D01*
X111799999Y-115149986D01*
X111800000Y-115149973D01*
X111800000Y-115100000D01*
X109350001Y-115100000D01*
X109350001Y-115149986D01*
X109360494Y-115252697D01*
X109415641Y-115419119D01*
X109415643Y-115419124D01*
X109507684Y-115568345D01*
X109631654Y-115692315D01*
X109757538Y-115769961D01*
X109804262Y-115821909D01*
X109815485Y-115890872D01*
X109787641Y-115954954D01*
X109729573Y-115993810D01*
X109692441Y-115999500D01*
X108799500Y-115999500D01*
X108732461Y-115979815D01*
X108686706Y-115927011D01*
X108675500Y-115875500D01*
X108675500Y-112489060D01*
X108675501Y-112489047D01*
X108675501Y-112320944D01*
X108667985Y-112292894D01*
X108634577Y-112168216D01*
X108617189Y-112138098D01*
X108555524Y-112031290D01*
X108555518Y-112031282D01*
X107943717Y-111419481D01*
X107943709Y-111419475D01*
X107855169Y-111368357D01*
X107855168Y-111368357D01*
X107806785Y-111340423D01*
X107654057Y-111299499D01*
X107495943Y-111299499D01*
X107488347Y-111299499D01*
X107488331Y-111299500D01*
X106994786Y-111299500D01*
X106927747Y-111279815D01*
X106881992Y-111227011D01*
X106872048Y-111157853D01*
X106887398Y-111113501D01*
X106934577Y-111031784D01*
X106975501Y-110879057D01*
X106975501Y-110824500D01*
X106995186Y-110757461D01*
X107047990Y-110711706D01*
X107099501Y-110700500D01*
X107153844Y-110700500D01*
X107153845Y-110700499D01*
X107308497Y-110669737D01*
X107454179Y-110609394D01*
X107585289Y-110521789D01*
X107670260Y-110436817D01*
X107731581Y-110403334D01*
X107757940Y-110400500D01*
X109265202Y-110400500D01*
X109332241Y-110420185D01*
X109370739Y-110459401D01*
X109407288Y-110518656D01*
X109531344Y-110642712D01*
X109680666Y-110734814D01*
X109847203Y-110789999D01*
X109863101Y-110791623D01*
X109927793Y-110818018D01*
X109967945Y-110875198D01*
X109974500Y-110914981D01*
X109974500Y-111861414D01*
X109954815Y-111928453D01*
X109902011Y-111974208D01*
X109889505Y-111979120D01*
X109780666Y-112015186D01*
X109780663Y-112015187D01*
X109631342Y-112107289D01*
X109507289Y-112231342D01*
X109415187Y-112380663D01*
X109415186Y-112380666D01*
X109360001Y-112547203D01*
X109360001Y-112547204D01*
X109360000Y-112547204D01*
X109349500Y-112649983D01*
X109349500Y-113250001D01*
X109349501Y-113250019D01*
X109360000Y-113352796D01*
X109360001Y-113352799D01*
X109415185Y-113519331D01*
X109415186Y-113519334D01*
X109507288Y-113668656D01*
X109631344Y-113792712D01*
X109634628Y-113794737D01*
X109634653Y-113794753D01*
X109636445Y-113796746D01*
X109637011Y-113797193D01*
X109636934Y-113797289D01*
X109681379Y-113846699D01*
X109692603Y-113915661D01*
X109664761Y-113979744D01*
X109634665Y-114005826D01*
X109631660Y-114007679D01*
X109631655Y-114007683D01*
X109507684Y-114131654D01*
X109415643Y-114280875D01*
X109415641Y-114280880D01*
X109360494Y-114447302D01*
X109360493Y-114447309D01*
X109350000Y-114550013D01*
X109350000Y-114600000D01*
X111799999Y-114600000D01*
X111799999Y-114550028D01*
X111799998Y-114550013D01*
X111789505Y-114447302D01*
X111734358Y-114280880D01*
X111734356Y-114280875D01*
X111642315Y-114131654D01*
X111518344Y-114007683D01*
X111518341Y-114007681D01*
X111515339Y-114005829D01*
X111513713Y-114004021D01*
X111512677Y-114003202D01*
X111512817Y-114003024D01*
X111468617Y-113953880D01*
X111457397Y-113884917D01*
X111485243Y-113820836D01*
X111515344Y-113794754D01*
X111518656Y-113792712D01*
X111642712Y-113668656D01*
X111679259Y-113609402D01*
X111731207Y-113562679D01*
X111784798Y-113550500D01*
X113495943Y-113550500D01*
X114424903Y-113550500D01*
X114491942Y-113570185D01*
X114512584Y-113586819D01*
X116390139Y-115464374D01*
X116390149Y-115464385D01*
X116394479Y-115468715D01*
X116394480Y-115468716D01*
X116506284Y-115580520D01*
X116593095Y-115630639D01*
X116593097Y-115630641D01*
X116631151Y-115652611D01*
X116643215Y-115659577D01*
X116795943Y-115700500D01*
X119313331Y-115700500D01*
X119313347Y-115700501D01*
X119320943Y-115700501D01*
X119479054Y-115700501D01*
X119479057Y-115700501D01*
X119631785Y-115659577D01*
X119681904Y-115630639D01*
X119768716Y-115580520D01*
X119880520Y-115468716D01*
X119880520Y-115468714D01*
X119890728Y-115458507D01*
X119890730Y-115458504D01*
X120212417Y-115136816D01*
X120273738Y-115103333D01*
X120300086Y-115100499D01*
X120912508Y-115100499D01*
X120912516Y-115100498D01*
X120912519Y-115100498D01*
X120968802Y-115094748D01*
X121015297Y-115089999D01*
X121181834Y-115034814D01*
X121331156Y-114942712D01*
X121455212Y-114818656D01*
X121547314Y-114669334D01*
X121602499Y-114502797D01*
X121613000Y-114400009D01*
X121612999Y-113399992D01*
X121602499Y-113297203D01*
X121547314Y-113130666D01*
X121455212Y-112981344D01*
X121331156Y-112857288D01*
X121331155Y-112857287D01*
X121259402Y-112813029D01*
X121212678Y-112761081D01*
X121200500Y-112707491D01*
X121200500Y-111864000D01*
X121220185Y-111796961D01*
X121272989Y-111751206D01*
X121324500Y-111740000D01*
X121387500Y-111740000D01*
X121887500Y-111740000D01*
X122528134Y-111740000D01*
X122528149Y-111739999D01*
X122564989Y-111737100D01*
X122564995Y-111737099D01*
X122722693Y-111691283D01*
X122722696Y-111691282D01*
X122864052Y-111607685D01*
X122864061Y-111607678D01*
X122980178Y-111491561D01*
X122980185Y-111491552D01*
X123063781Y-111350198D01*
X123109600Y-111192486D01*
X123109795Y-111190001D01*
X123109795Y-111190000D01*
X121887500Y-111190000D01*
X121887500Y-111740000D01*
X121387500Y-111740000D01*
X121387500Y-111064000D01*
X121407185Y-110996961D01*
X121459989Y-110951206D01*
X121511500Y-110940000D01*
X121637500Y-110940000D01*
X121637500Y-110814000D01*
X121657185Y-110746961D01*
X121709989Y-110701206D01*
X121761500Y-110690000D01*
X123109795Y-110690000D01*
X123109795Y-110689998D01*
X123109600Y-110687513D01*
X123063781Y-110529801D01*
X122980185Y-110388447D01*
X122975400Y-110382278D01*
X122977866Y-110380364D01*
X122951302Y-110331776D01*
X122956249Y-110262082D01*
X122977356Y-110229232D01*
X122975801Y-110228026D01*
X122980577Y-110221868D01*
X122980581Y-110221865D01*
X122981992Y-110219480D01*
X122983520Y-110216895D01*
X123064244Y-110080398D01*
X123110098Y-109922569D01*
X123113000Y-109885694D01*
X123113000Y-109454306D01*
X123110098Y-109417431D01*
X123105817Y-109402697D01*
X123075977Y-109299986D01*
X123750001Y-109299986D01*
X123760494Y-109402697D01*
X123815641Y-109569119D01*
X123815643Y-109569124D01*
X123907684Y-109718345D01*
X124031654Y-109842315D01*
X124180875Y-109934356D01*
X124180880Y-109934358D01*
X124347302Y-109989505D01*
X124347309Y-109989506D01*
X124450019Y-109999999D01*
X124724999Y-109999999D01*
X125225000Y-109999999D01*
X125499972Y-109999999D01*
X125499986Y-109999998D01*
X125602697Y-109989505D01*
X125769119Y-109934358D01*
X125769124Y-109934356D01*
X125918345Y-109842315D01*
X126042315Y-109718345D01*
X126134356Y-109569124D01*
X126134358Y-109569119D01*
X126189505Y-109402697D01*
X126189506Y-109402690D01*
X126199999Y-109299986D01*
X126200000Y-109299973D01*
X126200000Y-109250000D01*
X125225000Y-109250000D01*
X125225000Y-109999999D01*
X124724999Y-109999999D01*
X124725000Y-109999998D01*
X124725000Y-109250000D01*
X123750001Y-109250000D01*
X123750001Y-109299986D01*
X123075977Y-109299986D01*
X123064287Y-109259749D01*
X123064286Y-109259748D01*
X123064244Y-109259602D01*
X122980581Y-109118135D01*
X122974583Y-109112137D01*
X122966841Y-109099397D01*
X122961536Y-109079495D01*
X122951655Y-109061421D01*
X122952720Y-109046416D01*
X122948847Y-109031883D01*
X122955145Y-109012271D01*
X122956604Y-108991726D01*
X122966875Y-108975743D01*
X122970210Y-108965360D01*
X122977301Y-108959521D01*
X122977440Y-108959304D01*
X122975798Y-108958031D01*
X122980575Y-108951870D01*
X122980581Y-108951865D01*
X123064244Y-108810398D01*
X123110098Y-108652569D01*
X123113000Y-108615694D01*
X123113000Y-108184306D01*
X123110098Y-108147431D01*
X123108391Y-108141557D01*
X123064245Y-107989606D01*
X123064244Y-107989602D01*
X123053146Y-107970836D01*
X123021675Y-107917620D01*
X123004492Y-107849896D01*
X123026652Y-107783634D01*
X123081119Y-107739871D01*
X123128407Y-107730500D01*
X123783706Y-107730500D01*
X123850745Y-107750185D01*
X123889243Y-107789401D01*
X123907288Y-107818656D01*
X124031344Y-107942712D01*
X124034628Y-107944737D01*
X124034653Y-107944753D01*
X124036445Y-107946746D01*
X124037011Y-107947193D01*
X124036934Y-107947289D01*
X124081379Y-107996699D01*
X124092603Y-108065661D01*
X124064761Y-108129744D01*
X124034665Y-108155826D01*
X124031660Y-108157679D01*
X124031655Y-108157683D01*
X123907684Y-108281654D01*
X123815643Y-108430875D01*
X123815641Y-108430880D01*
X123760494Y-108597302D01*
X123760493Y-108597309D01*
X123750000Y-108700013D01*
X123750000Y-108750000D01*
X126199999Y-108750000D01*
X126199999Y-108700028D01*
X126199998Y-108700013D01*
X126189505Y-108597302D01*
X126134358Y-108430880D01*
X126134356Y-108430875D01*
X126042315Y-108281654D01*
X125918344Y-108157683D01*
X125918341Y-108157681D01*
X125915339Y-108155829D01*
X125913713Y-108154021D01*
X125912677Y-108153202D01*
X125912817Y-108153024D01*
X125868617Y-108103880D01*
X125857397Y-108034917D01*
X125885243Y-107970836D01*
X125915344Y-107944754D01*
X125918656Y-107942712D01*
X126042712Y-107818656D01*
X126134814Y-107669334D01*
X126189999Y-107502797D01*
X126200500Y-107400009D01*
X126200499Y-106799992D01*
X126192287Y-106719606D01*
X126189999Y-106697203D01*
X126189998Y-106697200D01*
X126154715Y-106590724D01*
X126134814Y-106530666D01*
X126042712Y-106381344D01*
X125918656Y-106257288D01*
X125791821Y-106179056D01*
X125769336Y-106165187D01*
X125769331Y-106165185D01*
X125694613Y-106140426D01*
X125602797Y-106110001D01*
X125602795Y-106110000D01*
X125500010Y-106099500D01*
X124449998Y-106099500D01*
X124449980Y-106099501D01*
X124347203Y-106110000D01*
X124347200Y-106110001D01*
X124180668Y-106165185D01*
X124180663Y-106165187D01*
X124031342Y-106257289D01*
X123907289Y-106381342D01*
X123901575Y-106390606D01*
X123853397Y-106468717D01*
X123852237Y-106470597D01*
X123800289Y-106517321D01*
X123746698Y-106529500D01*
X122983308Y-106529500D01*
X122916269Y-106509815D01*
X122895626Y-106493180D01*
X122864370Y-106461923D01*
X122864362Y-106461917D01*
X122743774Y-106390602D01*
X122722898Y-106378256D01*
X122722897Y-106378255D01*
X122722896Y-106378255D01*
X122722893Y-106378254D01*
X122565073Y-106332402D01*
X122565067Y-106332401D01*
X122528201Y-106329500D01*
X122528194Y-106329500D01*
X120746806Y-106329500D01*
X120746798Y-106329500D01*
X120709932Y-106332401D01*
X120709926Y-106332402D01*
X120552106Y-106378254D01*
X120552103Y-106378255D01*
X120410637Y-106461917D01*
X120410633Y-106461920D01*
X120298532Y-106574021D01*
X120272852Y-106593726D01*
X120176284Y-106649480D01*
X120176281Y-106649482D01*
X119094481Y-107731282D01*
X119094479Y-107731285D01*
X119082796Y-107751521D01*
X119055915Y-107798081D01*
X119015423Y-107868215D01*
X118974499Y-108020943D01*
X118974499Y-108020945D01*
X118974499Y-108189046D01*
X118974500Y-108189059D01*
X118974500Y-109067534D01*
X118972789Y-109073358D01*
X118973939Y-109079320D01*
X118963059Y-109106495D01*
X118954815Y-109134573D01*
X118950227Y-109138547D01*
X118947971Y-109144185D01*
X118924125Y-109161165D01*
X118902011Y-109180328D01*
X118896003Y-109181191D01*
X118891057Y-109184714D01*
X118861819Y-109186106D01*
X118832853Y-109190272D01*
X118825779Y-109187823D01*
X118821267Y-109188039D01*
X118788501Y-109174922D01*
X118735262Y-109144185D01*
X118712917Y-109131284D01*
X118712916Y-109131283D01*
X118676790Y-109110425D01*
X118676789Y-109110424D01*
X118636020Y-109099500D01*
X118524057Y-109069499D01*
X118365943Y-109069499D01*
X118358347Y-109069499D01*
X118358331Y-109069500D01*
X118177826Y-109069500D01*
X118110787Y-109049815D01*
X118065032Y-108997011D01*
X118055088Y-108927853D01*
X118071094Y-108882379D01*
X118113781Y-108810198D01*
X118159600Y-108652486D01*
X118159795Y-108650001D01*
X118159795Y-108650000D01*
X115215205Y-108650000D01*
X115215204Y-108650001D01*
X115215399Y-108652486D01*
X115261218Y-108810198D01*
X115344814Y-108951552D01*
X115349600Y-108957722D01*
X115347140Y-108959629D01*
X115373710Y-109008288D01*
X115368726Y-109077980D01*
X115347662Y-109110781D01*
X115349199Y-109111974D01*
X115344415Y-109118140D01*
X115260755Y-109259603D01*
X115260754Y-109259606D01*
X115214902Y-109417426D01*
X115214901Y-109417432D01*
X115212000Y-109454298D01*
X115212000Y-109885701D01*
X115214901Y-109922567D01*
X115214902Y-109922573D01*
X115260754Y-110080393D01*
X115260755Y-110080396D01*
X115260756Y-110080398D01*
X115271204Y-110098065D01*
X115344417Y-110221862D01*
X115349202Y-110228031D01*
X115346869Y-110229840D01*
X115373710Y-110278995D01*
X115368726Y-110348687D01*
X115347970Y-110381021D01*
X115349597Y-110382283D01*
X115344813Y-110388449D01*
X115261218Y-110529801D01*
X115215399Y-110687513D01*
X115215204Y-110689998D01*
X115215205Y-110690000D01*
X116563500Y-110690000D01*
X116630539Y-110709685D01*
X116676294Y-110762489D01*
X116687500Y-110814000D01*
X116687500Y-110940000D01*
X116813500Y-110940000D01*
X116880539Y-110959685D01*
X116926294Y-111012489D01*
X116937500Y-111064000D01*
X116937500Y-111740000D01*
X117578134Y-111740000D01*
X117578149Y-111739999D01*
X117614989Y-111737100D01*
X117614995Y-111737099D01*
X117715905Y-111707782D01*
X117785774Y-111707981D01*
X117844444Y-111745923D01*
X117873288Y-111809561D01*
X117874500Y-111826858D01*
X117874500Y-112705831D01*
X117854815Y-112772870D01*
X117802011Y-112818625D01*
X117732853Y-112828569D01*
X117681610Y-112808934D01*
X117654183Y-112790608D01*
X117654172Y-112790602D01*
X117508501Y-112730264D01*
X117508489Y-112730261D01*
X117353845Y-112699500D01*
X117353842Y-112699500D01*
X117196158Y-112699500D01*
X117196155Y-112699500D01*
X117041510Y-112730261D01*
X117041498Y-112730264D01*
X116895827Y-112790602D01*
X116895814Y-112790609D01*
X116764711Y-112878210D01*
X116764707Y-112878213D01*
X116653213Y-112989707D01*
X116653210Y-112989711D01*
X116565609Y-113120814D01*
X116565602Y-113120827D01*
X116505264Y-113266498D01*
X116505261Y-113266510D01*
X116474500Y-113421153D01*
X116474500Y-113550903D01*
X116454815Y-113617942D01*
X116402011Y-113663697D01*
X116332853Y-113673641D01*
X116269297Y-113644616D01*
X116262819Y-113638584D01*
X115212590Y-112588355D01*
X115212588Y-112588352D01*
X115093717Y-112469481D01*
X115093716Y-112469480D01*
X115006904Y-112419360D01*
X115006904Y-112419359D01*
X115006900Y-112419358D01*
X114956785Y-112390423D01*
X114804057Y-112349499D01*
X114645943Y-112349499D01*
X114638347Y-112349499D01*
X114638331Y-112349500D01*
X111784798Y-112349500D01*
X111717759Y-112329815D01*
X111679259Y-112290597D01*
X111663720Y-112265404D01*
X111642712Y-112231344D01*
X111518656Y-112107288D01*
X111369334Y-112015186D01*
X111308301Y-111994961D01*
X111260495Y-111979120D01*
X111203050Y-111939347D01*
X111176228Y-111874831D01*
X111175500Y-111861414D01*
X111175500Y-111190001D01*
X115215204Y-111190001D01*
X115215399Y-111192486D01*
X115261218Y-111350198D01*
X115344814Y-111491552D01*
X115344821Y-111491561D01*
X115460938Y-111607678D01*
X115460947Y-111607685D01*
X115602303Y-111691282D01*
X115602306Y-111691283D01*
X115760004Y-111737099D01*
X115760010Y-111737100D01*
X115796850Y-111739999D01*
X115796866Y-111740000D01*
X116437500Y-111740000D01*
X116437500Y-111190000D01*
X115215205Y-111190000D01*
X115215204Y-111190001D01*
X111175500Y-111190001D01*
X111175500Y-110855448D01*
X111195185Y-110788409D01*
X111247989Y-110742654D01*
X111260488Y-110737744D01*
X111269334Y-110734814D01*
X111418656Y-110642712D01*
X111524550Y-110536818D01*
X111585873Y-110503334D01*
X111612231Y-110500500D01*
X112595234Y-110500500D01*
X112662273Y-110520185D01*
X112664125Y-110521398D01*
X112795814Y-110609390D01*
X112795827Y-110609397D01*
X112941498Y-110669735D01*
X112941503Y-110669737D01*
X113075496Y-110696390D01*
X113096153Y-110700499D01*
X113096156Y-110700500D01*
X113096158Y-110700500D01*
X113253844Y-110700500D01*
X113253845Y-110700499D01*
X113408497Y-110669737D01*
X113554179Y-110609394D01*
X113685289Y-110521789D01*
X113796789Y-110410289D01*
X113884394Y-110279179D01*
X113944737Y-110133497D01*
X113975500Y-109978842D01*
X113975500Y-109821158D01*
X113975500Y-109821155D01*
X113975499Y-109821153D01*
X113944738Y-109666510D01*
X113944737Y-109666503D01*
X113939711Y-109654369D01*
X113884397Y-109520827D01*
X113884390Y-109520814D01*
X113796789Y-109389711D01*
X113796786Y-109389707D01*
X113685292Y-109278213D01*
X113685288Y-109278210D01*
X113554185Y-109190609D01*
X113554172Y-109190602D01*
X113408501Y-109130264D01*
X113408489Y-109130261D01*
X113253845Y-109099500D01*
X113253842Y-109099500D01*
X113096158Y-109099500D01*
X113096155Y-109099500D01*
X112941510Y-109130261D01*
X112941498Y-109130264D01*
X112795827Y-109190602D01*
X112795814Y-109190609D01*
X112664125Y-109278602D01*
X112597447Y-109299480D01*
X112595234Y-109299500D01*
X111745908Y-109299500D01*
X111678869Y-109279815D01*
X111640363Y-109235728D01*
X111638605Y-109236813D01*
X111627914Y-109219480D01*
X111542712Y-109081344D01*
X111418656Y-108957288D01*
X111415342Y-108955243D01*
X111413546Y-108953248D01*
X111412989Y-108952807D01*
X111413064Y-108952711D01*
X111368618Y-108903297D01*
X111357397Y-108834334D01*
X111385240Y-108770252D01*
X111415348Y-108744165D01*
X111418342Y-108742318D01*
X111542315Y-108618345D01*
X111634356Y-108469124D01*
X111634358Y-108469119D01*
X111689505Y-108302697D01*
X111689506Y-108302690D01*
X111699999Y-108199986D01*
X111700000Y-108199973D01*
X111700000Y-108150000D01*
X110599000Y-108150000D01*
X110531961Y-108130315D01*
X110486206Y-108077511D01*
X110475000Y-108026000D01*
X110475000Y-107774000D01*
X110494685Y-107706961D01*
X110547489Y-107661206D01*
X110599000Y-107650000D01*
X111699999Y-107650000D01*
X111699999Y-107600028D01*
X111699998Y-107600013D01*
X111689505Y-107497302D01*
X111634358Y-107330880D01*
X111634356Y-107330875D01*
X111542315Y-107181654D01*
X111418345Y-107057684D01*
X111359119Y-107021153D01*
X113674500Y-107021153D01*
X113674500Y-107178846D01*
X113705261Y-107333489D01*
X113705264Y-107333501D01*
X113765602Y-107479172D01*
X113765609Y-107479185D01*
X113853210Y-107610288D01*
X113853213Y-107610292D01*
X113964707Y-107721786D01*
X113964711Y-107721789D01*
X114095814Y-107809390D01*
X114095827Y-107809397D01*
X114241498Y-107869735D01*
X114241503Y-107869737D01*
X114396153Y-107900499D01*
X114396156Y-107900500D01*
X114396158Y-107900500D01*
X114553844Y-107900500D01*
X114553845Y-107900499D01*
X114708497Y-107869737D01*
X114854179Y-107809394D01*
X114908663Y-107772989D01*
X114985875Y-107721398D01*
X115003921Y-107715747D01*
X115019831Y-107705523D01*
X115050792Y-107701071D01*
X115052553Y-107700520D01*
X115054766Y-107700500D01*
X115214916Y-107700500D01*
X115281955Y-107720185D01*
X115327710Y-107772989D01*
X115337654Y-107842147D01*
X115321648Y-107887621D01*
X115261218Y-107989801D01*
X115215399Y-108147513D01*
X115215204Y-108149998D01*
X115215205Y-108150000D01*
X118159795Y-108150000D01*
X118159795Y-108149998D01*
X118159600Y-108147513D01*
X118113781Y-107989801D01*
X118030185Y-107848447D01*
X118025400Y-107842278D01*
X118027866Y-107840364D01*
X118001302Y-107791776D01*
X118006249Y-107722082D01*
X118027356Y-107689232D01*
X118025801Y-107688026D01*
X118030577Y-107681868D01*
X118030581Y-107681865D01*
X118114244Y-107540398D01*
X118160098Y-107382569D01*
X118163000Y-107345694D01*
X118163000Y-106914306D01*
X118160098Y-106877431D01*
X118156925Y-106866510D01*
X118114245Y-106719606D01*
X118114244Y-106719603D01*
X118114244Y-106719602D01*
X118030581Y-106578135D01*
X118030579Y-106578133D01*
X118030576Y-106578129D01*
X117914370Y-106461923D01*
X117914362Y-106461917D01*
X117793774Y-106390602D01*
X117772898Y-106378256D01*
X117772897Y-106378255D01*
X117772896Y-106378255D01*
X117772893Y-106378254D01*
X117615073Y-106332402D01*
X117615067Y-106332401D01*
X117578201Y-106329500D01*
X117578194Y-106329500D01*
X115796806Y-106329500D01*
X115796798Y-106329500D01*
X115759932Y-106332401D01*
X115759926Y-106332402D01*
X115602106Y-106378254D01*
X115602103Y-106378255D01*
X115460637Y-106461917D01*
X115460629Y-106461923D01*
X115459372Y-106463181D01*
X115458143Y-106463851D01*
X115454469Y-106466702D01*
X115454009Y-106466109D01*
X115398049Y-106496666D01*
X115371691Y-106499500D01*
X115054766Y-106499500D01*
X114987727Y-106479815D01*
X114985875Y-106478602D01*
X114854185Y-106390609D01*
X114854172Y-106390602D01*
X114708501Y-106330264D01*
X114708489Y-106330261D01*
X114553845Y-106299500D01*
X114553842Y-106299500D01*
X114396158Y-106299500D01*
X114396155Y-106299500D01*
X114241510Y-106330261D01*
X114241498Y-106330264D01*
X114095827Y-106390602D01*
X114095814Y-106390609D01*
X113964711Y-106478210D01*
X113964707Y-106478213D01*
X113853213Y-106589707D01*
X113853210Y-106589711D01*
X113765609Y-106720814D01*
X113765602Y-106720827D01*
X113705264Y-106866498D01*
X113705261Y-106866510D01*
X113674500Y-107021153D01*
X111359119Y-107021153D01*
X111269124Y-106965643D01*
X111269119Y-106965641D01*
X111102697Y-106910494D01*
X111102690Y-106910493D01*
X110999986Y-106900000D01*
X110823595Y-106900000D01*
X110756556Y-106880315D01*
X110710801Y-106827511D01*
X110700857Y-106758353D01*
X110729882Y-106694797D01*
X110735894Y-106688339D01*
X113287416Y-104136819D01*
X113348739Y-104103334D01*
X113375097Y-104100500D01*
X128269699Y-104100500D01*
X128293075Y-104107364D01*
G37*
%TD.AperFunction*%
%TA.AperFunction,Conductor*%
G36*
X102324287Y-110135407D02*
G01*
X102346199Y-110135407D01*
X102474402Y-110172654D01*
X102510565Y-110175500D01*
X102914434Y-110175499D01*
X102950598Y-110172654D01*
X103077906Y-110135667D01*
X103147094Y-110135667D01*
X103274402Y-110172654D01*
X103310565Y-110175500D01*
X103513000Y-110175499D01*
X103580039Y-110195183D01*
X103625794Y-110247987D01*
X103637000Y-110299498D01*
X103637000Y-110501921D01*
X103637001Y-110501947D01*
X103639846Y-110538098D01*
X103676832Y-110665404D01*
X103676832Y-110734594D01*
X103639846Y-110861897D01*
X103639845Y-110861903D01*
X103637000Y-110898057D01*
X103637000Y-111301922D01*
X103637001Y-111301947D01*
X103639846Y-111338098D01*
X103676832Y-111465404D01*
X103676832Y-111534594D01*
X103639846Y-111661897D01*
X103639845Y-111661903D01*
X103637000Y-111698057D01*
X103637000Y-112101922D01*
X103637001Y-112101947D01*
X103639846Y-112138098D01*
X103676832Y-112265404D01*
X103676832Y-112334594D01*
X103639846Y-112461897D01*
X103639845Y-112461903D01*
X103637000Y-112498057D01*
X103637000Y-112901922D01*
X103637001Y-112901947D01*
X103639846Y-112938098D01*
X103676832Y-113065404D01*
X103676832Y-113134594D01*
X103639846Y-113261897D01*
X103639845Y-113261903D01*
X103637000Y-113298057D01*
X103637000Y-113701922D01*
X103637001Y-113701947D01*
X103639846Y-113738098D01*
X103676832Y-113865404D01*
X103676832Y-113934594D01*
X103639846Y-114061897D01*
X103639845Y-114061903D01*
X103637000Y-114098057D01*
X103637000Y-114501922D01*
X103637001Y-114501947D01*
X103639846Y-114538098D01*
X103676832Y-114665404D01*
X103676832Y-114734594D01*
X103639846Y-114861897D01*
X103639845Y-114861903D01*
X103637000Y-114898057D01*
X103637000Y-115301922D01*
X103637001Y-115301947D01*
X103639846Y-115338098D01*
X103676832Y-115465404D01*
X103676832Y-115534594D01*
X103639846Y-115661897D01*
X103639845Y-115661903D01*
X103637000Y-115698057D01*
X103637000Y-115900500D01*
X103617315Y-115967539D01*
X103564511Y-116013294D01*
X103513001Y-116024500D01*
X103310578Y-116024500D01*
X103310552Y-116024501D01*
X103274401Y-116027346D01*
X103147095Y-116064332D01*
X103077905Y-116064332D01*
X102950602Y-116027346D01*
X102950596Y-116027345D01*
X102914435Y-116024500D01*
X102510577Y-116024500D01*
X102510552Y-116024501D01*
X102474401Y-116027346D01*
X102347095Y-116064332D01*
X102277905Y-116064332D01*
X102150602Y-116027346D01*
X102150596Y-116027345D01*
X102114435Y-116024500D01*
X101710577Y-116024500D01*
X101710552Y-116024501D01*
X101674401Y-116027346D01*
X101546200Y-116064592D01*
X101477010Y-116064592D01*
X101362501Y-116031323D01*
X101362500Y-116031324D01*
X101362500Y-116121368D01*
X101356070Y-116143262D01*
X101354187Y-116166006D01*
X101345449Y-116179434D01*
X101342815Y-116188407D01*
X101336925Y-116196791D01*
X101331957Y-116203273D01*
X101266874Y-116268357D01*
X101215445Y-116355318D01*
X101210925Y-116361218D01*
X101188479Y-116377629D01*
X101168163Y-116396599D01*
X101160672Y-116397961D01*
X101154524Y-116402457D01*
X101126770Y-116404128D01*
X101099422Y-116409103D01*
X101092382Y-116406199D01*
X101084780Y-116406657D01*
X101060531Y-116393059D01*
X101034832Y-116382458D01*
X101028412Y-116375048D01*
X101023838Y-116372484D01*
X101020106Y-116365463D01*
X101005768Y-116348916D01*
X100958127Y-116268359D01*
X100958126Y-116268357D01*
X100958124Y-116268355D01*
X100958121Y-116268351D01*
X100898819Y-116209049D01*
X100865334Y-116147726D01*
X100862500Y-116121368D01*
X100862500Y-116031324D01*
X100862498Y-116031323D01*
X100747989Y-116064592D01*
X100678799Y-116064592D01*
X100550602Y-116027346D01*
X100550596Y-116027345D01*
X100514435Y-116024500D01*
X100110577Y-116024500D01*
X100110552Y-116024501D01*
X100074401Y-116027346D01*
X99947095Y-116064332D01*
X99877905Y-116064332D01*
X99750602Y-116027346D01*
X99750596Y-116027345D01*
X99714442Y-116024500D01*
X99714435Y-116024500D01*
X99599500Y-116024500D01*
X99532461Y-116004815D01*
X99486706Y-115952011D01*
X99475500Y-115900500D01*
X99475500Y-111000097D01*
X99484144Y-110970656D01*
X99490668Y-110940670D01*
X99494422Y-110935654D01*
X99495185Y-110933058D01*
X99511819Y-110912416D01*
X99687416Y-110736819D01*
X99748739Y-110703334D01*
X99775097Y-110700500D01*
X100774903Y-110700500D01*
X100841942Y-110720185D01*
X100862584Y-110736819D01*
X101072958Y-110947193D01*
X101106443Y-111008516D01*
X101104382Y-111060116D01*
X101106451Y-111060528D01*
X101074500Y-111221153D01*
X101074500Y-111378846D01*
X101105261Y-111533489D01*
X101105264Y-111533501D01*
X101165602Y-111679172D01*
X101165609Y-111679185D01*
X101253210Y-111810288D01*
X101253213Y-111810292D01*
X101364707Y-111921786D01*
X101364711Y-111921789D01*
X101495814Y-112009390D01*
X101495827Y-112009397D01*
X101641498Y-112069735D01*
X101641503Y-112069737D01*
X101796153Y-112100499D01*
X101796156Y-112100500D01*
X101796158Y-112100500D01*
X101953844Y-112100500D01*
X101953845Y-112100499D01*
X102108497Y-112069737D01*
X102254179Y-112009394D01*
X102385289Y-111921789D01*
X102496789Y-111810289D01*
X102584394Y-111679179D01*
X102644737Y-111533497D01*
X102675500Y-111378842D01*
X102675500Y-111221158D01*
X102675500Y-111221155D01*
X102675499Y-111221153D01*
X102669302Y-111190000D01*
X102644737Y-111066503D01*
X102642262Y-111060528D01*
X102584397Y-110920827D01*
X102584390Y-110920814D01*
X102496789Y-110789711D01*
X102496786Y-110789707D01*
X102479770Y-110772691D01*
X102454678Y-110736569D01*
X102450363Y-110727132D01*
X102434577Y-110668215D01*
X102383946Y-110580520D01*
X102355520Y-110531284D01*
X102243716Y-110419480D01*
X102243715Y-110419479D01*
X102239385Y-110415149D01*
X102239385Y-110415148D01*
X102239374Y-110415139D01*
X102179349Y-110355114D01*
X102145864Y-110293791D01*
X102150848Y-110224099D01*
X102192720Y-110168166D01*
X102232435Y-110148357D01*
X102277009Y-110135407D01*
X102290750Y-110135407D01*
X102303445Y-110130752D01*
X102324287Y-110135407D01*
G37*
%TD.AperFunction*%
%TA.AperFunction,Conductor*%
G36*
X109214770Y-108311975D02*
G01*
X109270704Y-108353846D01*
X109289143Y-108389153D01*
X109315641Y-108469119D01*
X109315643Y-108469124D01*
X109407684Y-108618345D01*
X109531655Y-108742316D01*
X109531659Y-108742319D01*
X109534656Y-108744168D01*
X109536279Y-108745972D01*
X109537323Y-108746798D01*
X109537181Y-108746976D01*
X109581381Y-108796116D01*
X109592602Y-108865079D01*
X109564759Y-108929161D01*
X109534661Y-108955241D01*
X109531349Y-108957283D01*
X109531343Y-108957288D01*
X109407289Y-109081342D01*
X109407288Y-109081344D01*
X109374457Y-109134573D01*
X109370741Y-109140597D01*
X109318793Y-109187321D01*
X109265202Y-109199500D01*
X107500316Y-109199500D01*
X107492139Y-109197873D01*
X107487061Y-109198790D01*
X107452864Y-109190061D01*
X107329738Y-109139061D01*
X107275334Y-109095220D01*
X107253269Y-109028926D01*
X107270548Y-108961227D01*
X107321685Y-108913616D01*
X107377190Y-108900500D01*
X108188331Y-108900500D01*
X108188347Y-108900501D01*
X108195943Y-108900501D01*
X108354054Y-108900501D01*
X108354057Y-108900501D01*
X108506785Y-108859577D01*
X108591965Y-108810398D01*
X108591969Y-108810396D01*
X108643709Y-108780524D01*
X108643708Y-108780524D01*
X108643716Y-108780520D01*
X108755520Y-108668716D01*
X108755520Y-108668714D01*
X108765724Y-108658511D01*
X108765727Y-108658506D01*
X109083760Y-108340473D01*
X109145079Y-108306991D01*
X109214770Y-108311975D01*
G37*
%TD.AperFunction*%
%TD*%
M02*
